M48
;DRILL file {KiCad 4.0.6-e0-6349~53~ubuntu16.04.1} date Thu May 11 19:56:27 2017
;FORMAT={-:-/ absolute / metric / decimal}
FMAT,2
METRIC,TZ
T1C0.800
T2C0.900
T3C0.990
T4C1.000
T5C1.300
%
G90
G05
M71
T1
X154.64Y-112.19
X157.75Y-118.3
X158.2Y-103.25
X163.6Y-89.85
T2
X149.16Y-91.05
X151.7Y-91.05
X153.5Y-91.05
X156.04Y-91.05
T3
X155.35Y-121.45
X159.85Y-121.45
X171.15Y-115.073
X171.15Y-119.573
X171.15Y-104.75
X171.15Y-109.25
X171.2Y-91.55
X171.2Y-96.05
T4
X147.Y-93.92
X147.Y-96.46
X147.Y-99.
X147.Y-101.54
X147.Y-104.08
X147.Y-106.62
X147.Y-109.16
X147.Y-111.7
X147.Y-115.5
X147.Y-118.04
T5
X154.09Y-118.96
X161.1Y-118.96
X168.66Y-113.823
X168.66Y-120.833
X168.66Y-103.5
X168.66Y-110.51
X168.71Y-90.3
X168.71Y-97.31
T0
M30
