<?xml version="1.0" standalone="no"?>
 <!DOCTYPE svg PUBLIC "-//W3C//DTD SVG 1.1//EN" 
 "http://www.w3.org/Graphics/SVG/1.1/DTD/svg11.dtd"> 
<svg xmlns="http://www.w3.org/2000/svg" version="1.1" 
    width="29.7002cm" height="21.0007cm" viewBox="0 0 116930 82680 ">
<title>SVG Picture created as MinimalArduiVario-F.Cu.svg date 2017/05/12 13:06:41 </title>
  <desc>Picture generated by PCBNEW </desc>
<g style="fill:#000000; fill-opacity:1;stroke:#000000; stroke-opacity:1;
stroke-linecap:round; stroke-linejoin:round; "
 transform="translate(0 0) scale(1 1)">
</g>
<g style="fill:#000000; fill-opacity:0.0; 
stroke:#000000; stroke-width:-0.000393701; stroke-opacity:1; 
stroke-linecap:round; stroke-linejoin:round;">
</g>
<g style="fill:#000000; fill-opacity:0.0; 
stroke:#000000; stroke-width:39.3701; stroke-opacity:1; 
stroke-linecap:round; stroke-linejoin:round;">
<path d="M60571 48326
L60571 34153
" />
<path d="M48760 48326
L60571 48326
" />
<path d="M48760 34153
L48760 48326
" />
<path d="M60571 34153
L48760 34153
" />
</g>
<g style="fill:#000000; fill-opacity:0.0; 
stroke:#000000; stroke-width:0; stroke-opacity:1; 
stroke-linecap:round; stroke-linejoin:round;">
</g>
<g style="fill:#000000; fill-opacity:1.0; 
stroke:#000000; stroke-width:0; stroke-opacity:1; 
stroke-linecap:round; stroke-linejoin:round;">
<polyline style="fill-rule:evenodd;"
points="57638,43444
57166,43444
57166,43799
57638,43799
57638,43444
" /> 
<polyline style="fill-rule:evenodd;"
points="57638,44744
57166,44744
57166,45098
57638,45098
57638,44744
" /> 
<polyline style="fill-rule:evenodd;"
points="55709,46102
55709,45629
55355,45629
55355,46102
55709,46102
" /> 
<polyline style="fill-rule:evenodd;"
points="54410,46102
54410,45629
54055,45629
54055,46102
54410,46102
" /> 
<polyline style="fill-rule:evenodd;"
points="58721,43641
58721,44311
59390,44311
59390,43641
58721,43641
" /> 
</g>
<g style="fill:#000000; fill-opacity:1.0; 
stroke:#000000; stroke-width:669.291; stroke-opacity:1; 
stroke-linecap:round; stroke-linejoin:round;">
</g>
<g style="fill:#000000; fill-opacity:0.0; 
stroke:#000000; stroke-width:669.291; stroke-opacity:1; 
stroke-linecap:round; stroke-linejoin:round;">
<path d="M59055 42976
L59055 42976
" />
<path d="M59055 41976
L59055 41976
" />
<path d="M59055 40976
L59055 40976
" />
<path d="M59055 39976
L59055 39976
" />
<path d="M59055 38976
L59055 38976
" />
<path d="M59055 37976
L59055 37976
" />
<path d="M59055 36976
L59055 36976
" />
</g>
<g style="fill:#000000; fill-opacity:0.0; 
stroke:#000000; stroke-width:0; stroke-opacity:1; 
stroke-linecap:round; stroke-linejoin:round;">
</g>
<g style="fill:#000000; fill-opacity:1.0; 
stroke:#000000; stroke-width:0; stroke-opacity:1; 
stroke-linecap:round; stroke-linejoin:round;">
<polyline style="fill-rule:evenodd;"
points="52559,36948
52559,37224
52953,37224
52953,36948
52559,36948
" /> 
<polyline style="fill-rule:evenodd;"
points="52559,36358
52559,36633
52953,36633
52953,36358
52559,36358
" /> 
<polyline style="fill-rule:evenodd;"
points="52559,35767
52559,36043
52953,36043
52953,35767
52559,35767
" /> 
<polyline style="fill-rule:evenodd;"
points="53898,35767
53898,36043
54292,36043
54292,35767
53898,35767
" /> 
<polyline style="fill-rule:evenodd;"
points="53898,36358
53898,36633
54292,36633
54292,36358
53898,36358
" /> 
<polyline style="fill-rule:evenodd;"
points="53898,36948
53898,37224
54292,37224
54292,36948
53898,36948
" /> 
<polyline style="fill-rule:evenodd;"
points="53563,36988
53288,36988
53288,37381
53563,37381
53563,36988
" /> 
<circle cx="56264.6" cy="46834.6" r="413.386" /> 
</g>
<g style="fill:#000000; fill-opacity:1.0; 
stroke:#000000; stroke-width:39.3701; stroke-opacity:1; 
stroke-linecap:round; stroke-linejoin:round;">
</g>
<g style="fill:#000000; fill-opacity:1.0; 
stroke:#000000; stroke-width:0; stroke-opacity:1; 
stroke-linecap:round; stroke-linejoin:round;">
<circle cx="55768.6" cy="47815" r="344.488" /> 
</g>
<g style="fill:#000000; fill-opacity:1.0; 
stroke:#000000; stroke-width:39.3701; stroke-opacity:1; 
stroke-linecap:round; stroke-linejoin:round;">
</g>
<g style="fill:#000000; fill-opacity:1.0; 
stroke:#000000; stroke-width:0; stroke-opacity:1; 
stroke-linecap:round; stroke-linejoin:round;">
<circle cx="53996.9" cy="47815" r="344.488" /> 
</g>
<g style="fill:#000000; fill-opacity:1.0; 
stroke:#000000; stroke-width:39.3701; stroke-opacity:1; 
stroke-linecap:round; stroke-linejoin:round;">
</g>
<g style="fill:#000000; fill-opacity:1.0; 
stroke:#000000; stroke-width:0; stroke-opacity:1; 
stroke-linecap:round; stroke-linejoin:round;">
<circle cx="53504.8" cy="46834.6" r="413.386" /> 
</g>
<g style="fill:#000000; fill-opacity:1.0; 
stroke:#000000; stroke-width:39.3701; stroke-opacity:1; 
stroke-linecap:round; stroke-linejoin:round;">
</g>
<g style="fill:#000000; fill-opacity:1.0; 
stroke:#000000; stroke-width:0; stroke-opacity:1; 
stroke-linecap:round; stroke-linejoin:round;">
<circle cx="50528.4" cy="43507.9" r="413.386" /> 
</g>
<g style="fill:#000000; fill-opacity:1.0; 
stroke:#000000; stroke-width:39.3701; stroke-opacity:1; 
stroke-linecap:round; stroke-linejoin:round;">
</g>
<g style="fill:#000000; fill-opacity:1.0; 
stroke:#000000; stroke-width:0; stroke-opacity:1; 
stroke-linecap:round; stroke-linejoin:round;">
<circle cx="49548.1" cy="43011.8" r="344.488" /> 
</g>
<g style="fill:#000000; fill-opacity:1.0; 
stroke:#000000; stroke-width:39.3701; stroke-opacity:1; 
stroke-linecap:round; stroke-linejoin:round;">
</g>
<g style="fill:#000000; fill-opacity:1.0; 
stroke:#000000; stroke-width:0; stroke-opacity:1; 
stroke-linecap:round; stroke-linejoin:round;">
<circle cx="49548.1" cy="41240.2" r="344.488" /> 
</g>
<g style="fill:#000000; fill-opacity:1.0; 
stroke:#000000; stroke-width:39.3701; stroke-opacity:1; 
stroke-linecap:round; stroke-linejoin:round;">
</g>
<g style="fill:#000000; fill-opacity:1.0; 
stroke:#000000; stroke-width:0; stroke-opacity:1; 
stroke-linecap:round; stroke-linejoin:round;">
<circle cx="50528.4" cy="40748" r="413.386" /> 
</g>
<g style="fill:#000000; fill-opacity:1.0; 
stroke:#000000; stroke-width:39.3701; stroke-opacity:1; 
stroke-linecap:round; stroke-linejoin:round;">
</g>
<g style="fill:#000000; fill-opacity:1.0; 
stroke:#000000; stroke-width:0; stroke-opacity:1; 
stroke-linecap:round; stroke-linejoin:round;">
<circle cx="50528.4" cy="47571.9" r="413.386" /> 
</g>
<g style="fill:#000000; fill-opacity:1.0; 
stroke:#000000; stroke-width:39.3701; stroke-opacity:1; 
stroke-linecap:round; stroke-linejoin:round;">
</g>
<g style="fill:#000000; fill-opacity:1.0; 
stroke:#000000; stroke-width:0; stroke-opacity:1; 
stroke-linecap:round; stroke-linejoin:round;">
<circle cx="49548.1" cy="47075.8" r="344.488" /> 
</g>
<g style="fill:#000000; fill-opacity:1.0; 
stroke:#000000; stroke-width:39.3701; stroke-opacity:1; 
stroke-linecap:round; stroke-linejoin:round;">
</g>
<g style="fill:#000000; fill-opacity:1.0; 
stroke:#000000; stroke-width:0; stroke-opacity:1; 
stroke-linecap:round; stroke-linejoin:round;">
<circle cx="49548.1" cy="45304.2" r="344.488" /> 
</g>
<g style="fill:#000000; fill-opacity:1.0; 
stroke:#000000; stroke-width:39.3701; stroke-opacity:1; 
stroke-linecap:round; stroke-linejoin:round;">
</g>
<g style="fill:#000000; fill-opacity:1.0; 
stroke:#000000; stroke-width:0; stroke-opacity:1; 
stroke-linecap:round; stroke-linejoin:round;">
<circle cx="50528.4" cy="44812" r="413.386" /> 
</g>
<g style="fill:#000000; fill-opacity:1.0; 
stroke:#000000; stroke-width:39.3701; stroke-opacity:1; 
stroke-linecap:round; stroke-linejoin:round;">
</g>
<g style="fill:#000000; fill-opacity:1.0; 
stroke:#000000; stroke-width:0; stroke-opacity:1; 
stroke-linecap:round; stroke-linejoin:round;">
<circle cx="50508.7" cy="38311" r="413.386" /> 
</g>
<g style="fill:#000000; fill-opacity:1.0; 
stroke:#000000; stroke-width:39.3701; stroke-opacity:1; 
stroke-linecap:round; stroke-linejoin:round;">
</g>
<g style="fill:#000000; fill-opacity:1.0; 
stroke:#000000; stroke-width:0; stroke-opacity:1; 
stroke-linecap:round; stroke-linejoin:round;">
<circle cx="49528.4" cy="37815" r="344.488" /> 
</g>
<g style="fill:#000000; fill-opacity:1.0; 
stroke:#000000; stroke-width:39.3701; stroke-opacity:1; 
stroke-linecap:round; stroke-linejoin:round;">
</g>
<g style="fill:#000000; fill-opacity:1.0; 
stroke:#000000; stroke-width:0; stroke-opacity:1; 
stroke-linecap:round; stroke-linejoin:round;">
<circle cx="49528.4" cy="36043.3" r="344.488" /> 
</g>
<g style="fill:#000000; fill-opacity:1.0; 
stroke:#000000; stroke-width:39.3701; stroke-opacity:1; 
stroke-linecap:round; stroke-linejoin:round;">
</g>
<g style="fill:#000000; fill-opacity:1.0; 
stroke:#000000; stroke-width:0; stroke-opacity:1; 
stroke-linecap:round; stroke-linejoin:round;">
<circle cx="50508.7" cy="35551.2" r="413.386" /> 
</g>
<g style="fill:#000000; fill-opacity:1.0; 
stroke:#000000; stroke-width:39.3701; stroke-opacity:1; 
stroke-linecap:round; stroke-linejoin:round;">
</g>
<g style="fill:#000000; fill-opacity:1.0; 
stroke:#000000; stroke-width:0; stroke-opacity:1; 
stroke-linecap:round; stroke-linejoin:round;">
<polyline style="fill-rule:evenodd;"
points="57146,38937
57146,40118
57737,40118
57737,38937
57146,38937
" /> 
<polyline style="fill-rule:evenodd;"
points="57933,38937
57933,40118
58524,40118
58524,38937
57933,38937
" /> 
<polyline style="fill-rule:evenodd;"
points="56713,36791
56949,36791
56949,36633
56713,36633
56713,36791
" /> 
<polyline style="fill-rule:evenodd;"
points="56713,36437
56949,36437
56949,36279
56713,36279
56713,36437
" /> 
<polyline style="fill-rule:evenodd;"
points="53741,35137
53504,35137
53504,35295
53741,35295
53741,35137
" /> 
<polyline style="fill-rule:evenodd;"
points="53741,35492
53504,35492
53504,35649
53741,35649
53741,35492
" /> 
<polyline style="fill-rule:evenodd;"
points="53327,35137
53091,35137
53091,35295
53327,35295
53327,35137
" /> 
<polyline style="fill-rule:evenodd;"
points="53327,35492
53091,35492
53091,35649
53327,35649
53327,35492
" /> 
<polyline style="fill-rule:evenodd;"
points="58406,43543
58170,43543
58170,43700
58406,43700
58406,43543
" /> 
<polyline style="fill-rule:evenodd;"
points="58406,43897
58170,43897
58170,44055
58406,44055
58406,43897
" /> 
<polyline style="fill-rule:evenodd;"
points="53957,44862
53721,44862
53721,45019
53957,45019
53957,44862
" /> 
<polyline style="fill-rule:evenodd;"
points="53957,45216
53721,45216
53721,45374
53957,45374
53957,45216
" /> 
<polyline style="fill-rule:evenodd;"
points="53918,45984
53918,45748
53760,45748
53760,45984
53918,45984
" /> 
<polyline style="fill-rule:evenodd;"
points="53563,45984
53563,45748
53406,45748
53406,45984
53563,45984
" /> 
<polyline style="fill-rule:evenodd;"
points="52894,45748
52894,45984
53052,45984
53052,45748
52894,45748
" /> 
<polyline style="fill-rule:evenodd;"
points="53248,45748
53248,45984
53406,45984
53406,45748
53248,45748
" /> 
<polyline style="fill-rule:evenodd;"
points="55985,44606
55748,44606
55748,44763
55985,44763
55985,44606
" /> 
<polyline style="fill-rule:evenodd;"
points="55985,44960
55748,44960
55748,45118
55985,45118
55985,44960
" /> 
<polyline style="fill-rule:evenodd;"
points="56418,44606
56181,44606
56181,44763
56418,44763
56418,44606
" /> 
<polyline style="fill-rule:evenodd;"
points="56418,44960
56181,44960
56181,45118
56418,45118
56418,44960
" /> 
<polyline style="fill-rule:evenodd;"
points="55524,44458
55524,44202
55107,44202
55107,44458
55524,44458
" /> 
<polyline style="fill-rule:evenodd;"
points="55524,44832
55524,44576
55107,44576
55107,44832
55524,44832
" /> 
<polyline style="fill-rule:evenodd;"
points="55524,45206
55524,44950
55107,44950
55107,45206
55524,45206
" /> 
<polyline style="fill-rule:evenodd;"
points="54658,45206
54658,44950
54241,44950
54241,45206
54658,45206
" /> 
<polyline style="fill-rule:evenodd;"
points="54658,44458
54658,44202
54241,44202
54241,44458
54658,44458
" /> 
<polyline style="fill-rule:evenodd;"
points="54658,44832
54658,44576
54241,44576
54241,44832
54658,44832
" /> 
<polyline style="fill-rule:evenodd;"
points="58721,46137
58721,46807
59390,46807
59390,46137
58721,46137
" /> 
</g>
<g style="fill:#000000; fill-opacity:1.0; 
stroke:#000000; stroke-width:669.291; stroke-opacity:1; 
stroke-linecap:round; stroke-linejoin:round;">
</g>
<g style="fill:#000000; fill-opacity:0.0; 
stroke:#000000; stroke-width:669.291; stroke-opacity:1; 
stroke-linecap:round; stroke-linejoin:round;">
<path d="M59055 45472
L59055 45472
" />
</g>
<g style="fill:#000000; fill-opacity:0.0; 
stroke:#000000; stroke-width:0; stroke-opacity:1; 
stroke-linecap:round; stroke-linejoin:round;">
</g>
<g style="fill:#000000; fill-opacity:1.0; 
stroke:#000000; stroke-width:0; stroke-opacity:1; 
stroke-linecap:round; stroke-linejoin:round;">
<polyline style="fill-rule:evenodd;"
points="56595,38877
56595,38641
56122,38641
56122,38877
56595,38877
" /> 
<polyline style="fill-rule:evenodd;"
points="56595,39192
56595,38956
56122,38956
56122,39192
56595,39192
" /> 
<polyline style="fill-rule:evenodd;"
points="56595,39507
56595,39271
56122,39271
56122,39507
56595,39507
" /> 
<polyline style="fill-rule:evenodd;"
points="56595,39822
56595,39586
56122,39586
56122,39822
56595,39822
" /> 
<polyline style="fill-rule:evenodd;"
points="56595,40137
56595,39901
56122,39901
56122,40137
56595,40137
" /> 
<polyline style="fill-rule:evenodd;"
points="56595,40452
56595,40216
56122,40216
56122,40452
56595,40452
" /> 
<polyline style="fill-rule:evenodd;"
points="56595,40767
56595,40531
56122,40531
56122,40767
56595,40767
" /> 
<polyline style="fill-rule:evenodd;"
points="56595,41082
56595,40846
56122,40846
56122,41082
56595,41082
" /> 
<polyline style="fill-rule:evenodd;"
points="55670,41771
55906,41771
55906,41299
55670,41299
55670,41771
" /> 
<polyline style="fill-rule:evenodd;"
points="55355,41771
55591,41771
55591,41299
55355,41299
55355,41771
" /> 
<polyline style="fill-rule:evenodd;"
points="55040,41771
55276,41771
55276,41299
55040,41299
55040,41771
" /> 
<polyline style="fill-rule:evenodd;"
points="54725,41771
54961,41771
54961,41299
54725,41299
54725,41771
" /> 
<polyline style="fill-rule:evenodd;"
points="54410,41771
54646,41771
54646,41299
54410,41299
54410,41771
" /> 
<polyline style="fill-rule:evenodd;"
points="54095,41771
54331,41771
54331,41299
54095,41299
54095,41771
" /> 
<polyline style="fill-rule:evenodd;"
points="53780,41771
54016,41771
54016,41299
53780,41299
53780,41771
" /> 
<polyline style="fill-rule:evenodd;"
points="53465,41771
53701,41771
53701,41299
53465,41299
53465,41771
" /> 
<polyline style="fill-rule:evenodd;"
points="53248,41082
53248,40846
52776,40846
52776,41082
53248,41082
" /> 
<polyline style="fill-rule:evenodd;"
points="53248,40767
53248,40531
52776,40531
52776,40767
53248,40767
" /> 
<polyline style="fill-rule:evenodd;"
points="53248,40452
53248,40216
52776,40216
52776,40452
53248,40452
" /> 
<polyline style="fill-rule:evenodd;"
points="53248,40137
53248,39901
52776,39901
52776,40137
53248,40137
" /> 
<polyline style="fill-rule:evenodd;"
points="53248,39822
53248,39586
52776,39586
52776,39822
53248,39822
" /> 
<polyline style="fill-rule:evenodd;"
points="53248,39507
53248,39271
52776,39271
52776,39507
53248,39507
" /> 
<polyline style="fill-rule:evenodd;"
points="53248,39192
53248,38956
52776,38956
52776,39192
53248,39192
" /> 
<polyline style="fill-rule:evenodd;"
points="53248,38877
53248,38641
52776,38641
52776,38877
53248,38877
" /> 
<polyline style="fill-rule:evenodd;"
points="53465,38425
53701,38425
53701,37952
53465,37952
53465,38425
" /> 
<polyline style="fill-rule:evenodd;"
points="53780,38425
54016,38425
54016,37952
53780,37952
53780,38425
" /> 
<polyline style="fill-rule:evenodd;"
points="54095,38425
54331,38425
54331,37952
54095,37952
54095,38425
" /> 
<polyline style="fill-rule:evenodd;"
points="54410,38425
54646,38425
54646,37952
54410,37952
54410,38425
" /> 
<polyline style="fill-rule:evenodd;"
points="54725,38425
54961,38425
54961,37952
54725,37952
54725,38425
" /> 
<polyline style="fill-rule:evenodd;"
points="55040,38425
55276,38425
55276,37952
55040,37952
55040,38425
" /> 
<polyline style="fill-rule:evenodd;"
points="55355,38425
55591,38425
55591,37952
55355,37952
55355,38425
" /> 
<polyline style="fill-rule:evenodd;"
points="55670,38425
55906,38425
55906,37952
55670,37952
55670,38425
" /> 
<polyline style="fill-rule:evenodd;"
points="56851,36200
56851,35492
56142,35492
56142,36200
56851,36200
" /> 
<circle cx="55496.9" cy="35846.5" r="354.331" /> 
</g>
<g style="fill:#000000; fill-opacity:1.0; 
stroke:#000000; stroke-width:39.3701; stroke-opacity:1; 
stroke-linecap:round; stroke-linejoin:round;">
</g>
<g style="fill:#000000; fill-opacity:1.0; 
stroke:#000000; stroke-width:0; stroke-opacity:1; 
stroke-linecap:round; stroke-linejoin:round;">
<polyline style="fill-rule:evenodd;"
points="56851,35492
56851,36200
57559,36200
57559,35492
56851,35492
" /> 
<circle cx="58205.6" cy="35846.5" r="354.331" /> 
</g>
<g style="fill:#000000; fill-opacity:1.0; 
stroke:#000000; stroke-width:39.3701; stroke-opacity:1; 
stroke-linecap:round; stroke-linejoin:round;">
</g>
<g style="fill:#000000; fill-opacity:1.0; 
stroke:#000000; stroke-width:0; stroke-opacity:1; 
stroke-linecap:round; stroke-linejoin:round;">
<polyline style="fill-rule:evenodd;"
points="50453,42480
50650,42480
50650,42244
50453,42244
50453,42480
" /> 
<polyline style="fill-rule:evenodd;"
points="50453,42047
50650,42047
50650,41811
50453,41811
50453,42047
" /> 
<polyline style="fill-rule:evenodd;"
points="50650,45866
50453,45866
50453,46102
50650,46102
50650,45866
" /> 
<polyline style="fill-rule:evenodd;"
points="50650,46299
50453,46299
50453,46535
50650,46535
50650,46299
" /> 
<polyline style="fill-rule:evenodd;"
points="50433,37244
50630,37244
50630,37007
50433,37007
50433,37244
" /> 
<polyline style="fill-rule:evenodd;"
points="50433,36811
50630,36811
50630,36574
50433,36574
50433,36811
" /> 
<polyline style="fill-rule:evenodd;"
points="52520,36003
52520,35807
52284,35807
52284,36003
52520,36003
" /> 
<polyline style="fill-rule:evenodd;"
points="52087,36003
52087,35807
51851,35807
51851,36003
52087,36003
" /> 
<polyline style="fill-rule:evenodd;"
points="52520,36594
52520,36397
52284,36397
52284,36594
52520,36594
" /> 
<polyline style="fill-rule:evenodd;"
points="52087,36594
52087,36397
51851,36397
51851,36594
52087,36594
" /> 
<polyline style="fill-rule:evenodd;"
points="53534,44685
53239,44685
53239,45000
53534,45000
53534,44685
" /> 
<polyline style="fill-rule:evenodd;"
points="53534,45275
53239,45275
53239,45590
53534,45590
53534,45275
" /> 
<polyline style="fill-rule:evenodd;"
points="51989,40551
51989,40748
52225,40748
52225,40551
51989,40551
" /> 
<polyline style="fill-rule:evenodd;"
points="52422,40551
52422,40748
52658,40748
52658,40551
52422,40551
" /> 
<polyline style="fill-rule:evenodd;"
points="56949,39153
56752,39153
56752,39389
56949,39389
56949,39153
" /> 
<polyline style="fill-rule:evenodd;"
points="56949,39586
56752,39586
56752,39822
56949,39822
56949,39586
" /> 
<polyline style="fill-rule:evenodd;"
points="55748,45196
55748,45393
55985,45393
55985,45196
55748,45196
" /> 
<polyline style="fill-rule:evenodd;"
points="56181,45196
56181,45393
56418,45393
56418,45196
56181,45196
" /> 
<polyline style="fill-rule:evenodd;"
points="58209,47066
58209,45885
57618,45885
57618,47066
58209,47066
" /> 
<polyline style="fill-rule:evenodd;"
points="57422,47066
57422,45885
56831,45885
56831,47066
57422,47066
" /> 
<polyline style="fill-rule:evenodd;"
points="53061,44685
52766,44685
52766,45000
53061,45000
53061,44685
" /> 
<polyline style="fill-rule:evenodd;"
points="53061,45275
52766,45275
52766,45590
53061,45590
53061,45275
" /> 
<circle cx="54646.5" cy="40649.6" r="314.961" /> 
</g>
<g style="fill:#000000; fill-opacity:1.0; 
stroke:#000000; stroke-width:39.3701; stroke-opacity:1; 
stroke-linecap:round; stroke-linejoin:round;">
</g>
<g style="fill:#000000; fill-opacity:1.0; 
stroke:#000000; stroke-width:0; stroke-opacity:1; 
stroke-linecap:round; stroke-linejoin:round;">
<circle cx="52520.6" cy="35374" r="314.961" /> 
</g>
<g style="fill:#000000; fill-opacity:1.0; 
stroke:#000000; stroke-width:39.3701; stroke-opacity:1; 
stroke-linecap:round; stroke-linejoin:round;">
</g>
<g style="fill:#000000; fill-opacity:1.0; 
stroke:#000000; stroke-width:0; stroke-opacity:1; 
stroke-linecap:round; stroke-linejoin:round;">
<circle cx="56048.1" cy="44169.3" r="314.961" /> 
</g>
<g style="fill:#000000; fill-opacity:1.0; 
stroke:#000000; stroke-width:39.3701; stroke-opacity:1; 
stroke-linecap:round; stroke-linejoin:round;">
</g>
<g style="fill:#000000; fill-opacity:1.0; 
stroke:#000000; stroke-width:0; stroke-opacity:1; 
stroke-linecap:round; stroke-linejoin:round;">
<circle cx="54823.7" cy="46574.8" r="314.961" /> 
</g>
<g style="fill:#000000; fill-opacity:1.0; 
stroke:#000000; stroke-width:39.3701; stroke-opacity:1; 
stroke-linecap:round; stroke-linejoin:round;">
</g>
<g style="fill:#000000; fill-opacity:1.0; 
stroke:#000000; stroke-width:157.48; stroke-opacity:1; 
stroke-linecap:round; stroke-linejoin:round;">
</g>
<g style="fill:#000000; fill-opacity:0.0; 
stroke:#000000; stroke-width:157.48; stroke-opacity:1; 
stroke-linecap:round; stroke-linejoin:round;">
<path d="M59055 46472
L57918 46472
" />
<path d="M57918 46472
L57914 46476
" />
<path d="M59040 46456
L59055 46472
" />
</g>
<g style="fill:#000000; fill-opacity:0.0; 
stroke:#000000; stroke-width:118.11; stroke-opacity:1; 
stroke-linecap:round; stroke-linejoin:round;">
<path d="M54449 44704
L54122 44704
" />
<path d="M54122 44704
L54063 44645
" />
<path d="M54063 44645
L54063 44061
" />
<path d="M54451 43673
L56678 43673
" />
<path d="M56678 43673
L57276 44271
" />
<path d="M57276 44271
L58217 44271
" />
<path d="M54063 44061
L54451 43673
" />
<path d="M58217 44271
L58906 44960
" />
<path d="M58906 44960
L59301 44960
" />
<path d="M59301 44960
L59567 45226
" />
<path d="M52343 37480
L53032 37480
" />
<path d="M53032 37480
L53386 37480
" />
<path d="M53721 37480
L53032 37480
" />
<path d="M53426 37185
L53426 37460
" />
<path d="M53426 37460
L53445 37480
" />
<path d="M51969 36496
L51969 37106
" />
<path d="M53445 37480
L53721 37480
" />
<path d="M51969 37106
L52343 37480
" />
<path d="M53701 37185
L53426 37185
" />
<path d="M53721 37204
L53701 37185
" />
<path d="M53386 37480
L53426 37440
" />
<path d="M53426 37440
L53426 37460
" />
<path d="M53721 37480
L53721 37204
" />
<path d="M55595 36712
L53764 34881
" />
<path d="M53764 34881
L52087 34881
" />
<path d="M52087 34881
L51969 34999
" />
<path d="M56831 36712
L55595 36712
" />
<path d="M59567 45226
L59567 45226
" />
<path d="M59725 43070
L59725 45069
" />
<path d="M59725 45069
L59567 45226
" />
<path d="M59630 42976
L59725 43070
" />
<path d="M59055 42976
L59630 42976
" />
<path d="M56851 39271
L56733 39389
" />
<path d="M56733 39389
L56359 39389
" />
<path d="M57126 47185
L57126 46476
" />
<path d="M58977 47539
L57481 47539
" />
<path d="M59567 45226
L59567 46948
" />
<path d="M57481 47539
L57126 47185
" />
<path d="M59567 46948
L58977 47539
" />
<path d="M57402 44921
L57402 45452
" />
<path d="M57402 45452
L57126 45728
" />
<path d="M57126 45728
L57126 46476
" />
<path d="M56264 46807
L56595 46476
" />
<path d="M56595 46476
L57126 46476
" />
<path d="M56264 46834
L56264 46807
" />
<path d="M52973 45866
L52973 46303
" />
<path d="M52973 46303
L53504 46834
" />
<path d="M53996 47814
L53996 47326
" />
<path d="M53996 47326
L53504 46834
" />
<path d="M50771 47814
L50528 47571
" />
<path d="M52914 45433
L52914 45807
" />
<path d="M52914 45807
L52973 45866
" />
<path d="M50552 43484
L50528 43507
" />
<path d="M50508 38311
L50012 37814
" />
<path d="M50012 37814
L49528 37814
" />
<path d="M50528 40748
L50528 38330
" />
<path d="M50528 38330
L50508 38311
" />
<path d="M50552 44835
L50528 44812
" />
<path d="M50532 37125
L50217 37125
" />
<path d="M50217 37125
L49528 37814
" />
<path d="M51969 34999
L51059 34999
" />
<path d="M51059 34999
L50922 35137
" />
<path d="M50922 35137
L50508 35551
" />
</g>
<g style="fill:#000000; fill-opacity:0.0; 
stroke:#000000; stroke-width:157.48; stroke-opacity:1; 
stroke-linecap:round; stroke-linejoin:round;">
<path d="M53012 39704
L55552 39704
" />
<path d="M56359 40019
L55867 40019
" />
<path d="M55965 39389
L56359 39389
" />
<path d="M55867 39389
L55965 39389
" />
<path d="M55552 39704
L55867 39389
" />
<path d="M55867 40019
L55552 39704
" />
<path d="M52107 40649
L52107 40216
" />
<path d="M52107 40216
L52618 39704
" />
<path d="M52618 39704
L53012 39704
" />
<path d="M59055 42976
L59016 43015
" />
<path d="M59016 43015
L59016 43031
" />
<path d="M59016 43031
L58977 43070
" />
<path d="M55315 45078
L55040 45078
" />
<path d="M55040 45078
L54882 44921
" />
<path d="M54882 44921
L54882 44468
" />
<path d="M54882 44468
L54744 44330
" />
<path d="M54744 44330
L54449 44330
" />
<path d="M55867 45039
L55355 45039
" />
<path d="M55355 45039
L55315 45078
" />
<path d="M55867 45295
L55867 45039
" />
<path d="M55768 47814
L55768 47362
" />
<path d="M55768 47362
L55532 47125
" />
<path d="M55532 47125
L55532 46259
" />
<path d="M55532 46259
L55532 45866
" />
<path d="M55867 45866
L55532 45866
" />
<path d="M56300 45551
L55985 45866
" />
<path d="M55985 45866
L55867 45866
" />
<path d="M56300 45295
L56300 45551
" />
<path d="M56300 45039
L56300 45295
" />
<path d="M57402 43622
L56989 43622
" />
<path d="M56989 43622
L56756 43389
" />
<path d="M56756 43389
L53697 43389
" />
<path d="M53697 43389
L53386 43700
" />
<path d="M53386 43700
L53386 44842
" />
<path d="M54646 40649
L53012 40649
" />
<path d="M56359 40334
L54961 40334
" />
<path d="M54961 40334
L54646 40649
" />
<path d="M52402 35905
L52402 35492
" />
<path d="M52402 35492
L52520 35374
" />
<path d="M52756 36496
L52402 36496
" />
<path d="M52402 36496
L52402 35905
" />
<path d="M52756 35905
L52402 35905
" />
<path d="M53209 35216
L52678 35216
" />
<path d="M52678 35216
L52520 35374
" />
<path d="M53622 35216
L53209 35216
" />
<path d="M52638 35255
L52520 35374
" />
<path d="M57402 43622
L58288 43622
" />
<path d="M56910 40019
L56910 40177
" />
<path d="M56910 40019
L56910 39862
" />
<path d="M56752 39704
L56359 39704
" />
<path d="M56910 39862
L56752 39704
" />
<path d="M56359 40334
L56752 40334
" />
<path d="M56752 40334
L56910 40177
" />
<path d="M52520 40748
L52618 40649
" />
<path d="M52914 44842
L52914 41574
" />
<path d="M52520 41181
L52520 40748
" />
<path d="M52914 41574
L52520 41181
" />
<path d="M52618 40649
L53012 40649
" />
<path d="M54016 44940
L53839 44940
" />
<path d="M54154 45078
L54016 44940
" />
<path d="M54449 45078
L54154 45078
" />
<path d="M53839 44940
L53485 44940
" />
<path d="M53386 44842
L52914 44842
" />
<path d="M53485 44940
L53386 44842
" />
<path d="M55315 44330
L55886 44330
" />
<path d="M55886 44330
L56048 44169
" />
<path d="M53603 46181
L53386 45964
" />
<path d="M53386 45964
L53386 45433
" />
<path d="M53386 45433
L53386 45767
" />
<path d="M53386 45767
L53485 45866
" />
<path d="M53386 45433
L53386 45807
" />
<path d="M53386 45807
L53327 45866
" />
<path d="M53327 45866
L53327 45905
" />
<path d="M53780 46181
L54174 46574
" />
<path d="M53327 45905
L53603 46181
" />
<path d="M53603 46181
L53780 46181
" />
<path d="M54174 46574
L54823 46574
" />
<path d="M50630 36692
L50532 36692
" />
<path d="M51674 37736
L50630 36692
" />
<path d="M53800 37736
L51674 37736
" />
<path d="M53898 37834
L53800 37736
" />
<path d="M53800 37736
L53800 37736
" />
<path d="M53898 38188
L53898 37834
" />
<path d="M49528 36043
L49882 36043
" />
<path d="M49882 36043
L50532 36692
" />
<path d="M50788 46417
L51414 45791
" />
<path d="M52516 38759
L53012 38759
" />
<path d="M50552 46417
L50788 46417
" />
<path d="M51414 45791
L51414 39862
" />
<path d="M51414 39862
L52516 38759
" />
<path d="M50552 46417
L50296 46417
" />
<path d="M49567 45688
L49567 45323
" />
<path d="M50296 46417
L49567 45688
" />
<path d="M49567 45323
L49548 45304
" />
<path d="M50237 41929
L49548 41240
" />
<path d="M50552 41929
L50237 41929
" />
<path d="M51138 41342
L50552 41929
" />
<path d="M51138 39748
L51138 41342
" />
<path d="M53583 38188
L52697 38188
" />
<path d="M52697 38188
L51138 39748
" />
<path d="M54233 45866
L53859 45866
" />
<path d="M53839 45295
L53839 45846
" />
<path d="M53839 45846
L53859 45866
" />
<path d="M56831 36358
L56831 36220
" />
<path d="M56831 36220
L57205 35846
" />
<path d="M56831 36358
L56831 36181
" />
<path d="M56831 36181
L56496 35846
" />
<path d="M57205 35846
L56496 35846
" />
<path d="M53012 40964
L53012 41240
" />
<path d="M53012 41240
L53268 41496
" />
<path d="M53268 41496
L53268 42283
" />
<path d="M54075 43090
L57941 43090
" />
<path d="M53268 42283
L54075 43090
" />
<path d="M57941 43090
L58721 42311
" />
<path d="M58721 42311
L59055 41976
" />
<path d="M58205 35846
L58706 35846
" />
<path d="M59587 36727
L59587 41444
" />
<path d="M58706 35846
L59587 36727
" />
<path d="M59587 41444
L59390 41641
" />
<path d="M59390 41641
L59055 41976
" />
<path d="M55496 35846
L54256 34606
" />
<path d="M51792 39901
L52618 39074
" />
<path d="M54256 34606
L50164 34606
" />
<path d="M50164 34606
L48987 35783
" />
<path d="M48987 35783
L48987 45544
" />
<path d="M48987 45544
L50175 46732
" />
<path d="M50175 46732
L50863 46732
" />
<path d="M50863 46732
L51792 45803
" />
<path d="M51792 45803
L51792 39901
" />
<path d="M52618 39074
L53012 39074
" />
<path d="M56044 41988
L54587 41988
" />
<path d="M54587 41988
L54528 41929
" />
<path d="M57441 40590
L56044 41988
" />
<path d="M54528 41929
L54528 41535
" />
<path d="M57441 39527
L57441 40590
" />
<path d="M56241 42263
L58229 40275
" />
<path d="M54213 41535
L54213 42003
" />
<path d="M54473 42263
L56241 42263
" />
<path d="M54213 42003
L54473 42263
" />
<path d="M58229 40275
L58229 39527
" />
<path d="M54213 38188
L54213 37204
" />
<path d="M54213 37204
L54095 37086
" />
<path d="M54095 37086
L54055 37086
" />
<path d="M54055 37086
L53209 36240
" />
<path d="M53209 36240
L53209 35807
" />
<path d="M53209 35807
L53209 35570
" />
<path d="M54095 36496
L54193 36496
" />
<path d="M54193 36496
L54528 36830
" />
<path d="M54528 36830
L54528 37795
" />
<path d="M54528 37795
L54528 38188
" />
<path d="M53622 35570
L53622 36102
" />
<path d="M53622 36102
L54016 36496
" />
<path d="M54016 36496
L54095 36496
" />
<path d="M56300 44685
L56615 44685
" />
<path d="M56615 44685
L56772 44527
" />
<path d="M56772 44527
L57914 44527
" />
<path d="M57914 44527
L58859 45472
" />
<path d="M58859 45472
L59055 45472
" />
<path d="M55867 44685
L56300 44685
" />
<path d="M55315 44704
L55847 44704
" />
<path d="M55847 44704
L55867 44685
" />
<path d="M58721 40311
L59055 39976
" />
<path d="M53898 41535
L53898 42078
" />
<path d="M56493 42539
L58721 40311
" />
<path d="M54359 42539
L56493 42539
" />
<path d="M53898 42078
L54359 42539
" />
<path d="M59055 39976
L59052 39976
" />
<path d="M54201 42814
L57217 42814
" />
<path d="M53583 42196
L54201 42814
" />
<path d="M57217 42814
L58721 41311
" />
<path d="M58721 41311
L59055 40976
" />
<path d="M53583 41535
L53583 42196
" />
<path d="M59063 40984
L59055 40976
" />
<path d="M59075 40984
L59063 40984
" />
<path d="M59075 41062
L59075 40984
" />
<path d="M59055 36976
L58162 36976
" />
<path d="M58162 36976
L57973 37165
" />
<path d="M57973 37165
L55323 37165
" />
<path d="M54843 37795
L54843 38188
" />
<path d="M55323 37165
L54843 37645
" />
<path d="M54843 37645
L54843 37795
" />
<path d="M59055 37976
L58469 37976
" />
<path d="M58469 37976
L57953 37460
" />
<path d="M55418 37460
L55158 37720
" />
<path d="M57953 37460
L55418 37460
" />
<path d="M55158 37720
L55158 37795
" />
<path d="M55158 37795
L55158 38188
" />
<path d="M55473 37795
L55473 38188
" />
<path d="M55532 37736
L55473 37795
" />
<path d="M57815 37736
L55532 37736
" />
<path d="M59055 38976
L57815 37736
" />
<path d="M58288 43976
L59055 43976
" />
</g>
<g style="fill:#000000; fill-opacity:1.0; 
stroke:#000000; stroke-width:39.3701; stroke-opacity:1; 
stroke-linecap:round; stroke-linejoin:round;">
<polyline style="fill-rule:evenodd;"
points="56046,38425
56037,38476
56007,38523
55961,38554
55906,38565
55670,38565
55629,38558
55591,38565
55355,38565
55314,38558
55276,38565
55040,38565
54999,38558
54961,38565
54725,38565
54684,38558
54646,38565
54410,38565
54369,38558
54331,38565
54095,38565
54054,38558
54016,38565
53780,38565
53739,38558
53701,38565
53465,38565
53414,38556
53367,38525
53336,38479
53324,38425
53324,38405
52787,38405
52649,38543
52676,38543
52721,38512
52776,38501
53248,38501
53299,38510
53346,38541
53378,38587
53389,38641
53389,38877
53381,38918
53389,38956
53389,39192
53381,39233
53389,39271
53389,39507
53381,39547
53386,39559
53386,39628
53352,39663
53054,39663
53054,39655
52971,39655
52971,39663
52673,39663
52638,39628
52638,39559
52643,39546
52635,39507
52635,39364
52008,39991
52008,40413
52031,40413
52065,40447
52065,40608
52057,40608
52057,40690
52065,40690
52065,40851
52031,40885
52008,40885
52008,45803
51992,45886
51945,45956
51016,46885
51016,46885
50980,46909
50945,46932
50863,46948
50175,46948
50092,46932
50021,46885
49975,46838
50034,47001
50025,47193
49968,47330
49899,47368
49606,47075
49489,47075
49196,47368
49127,47330
49062,47150
49070,46958
49127,46821
49196,46783
49489,47075
49606,47075
49612,47070
49553,47011
49548,47017
49255,46724
49293,46655
49473,46589
49665,46598
49783,46647
48918,45781
48918,48169
53705,48169
53704,48166
53996,47873
54289,48166
54288,48169
55440,48169
55359,48088
55286,47911
55286,47740
54483,47740
54474,47932
54417,48069
54348,48107
54055,47814
53938,47814
53645,48107
53576,48069
53541,47972
50871,47972
50824,48049
50619,48126
50399,48118
50232,48049
50185,47972
50528,47630
50871,47972
53541,47972
53510,47889
53519,47697
53576,47560
53645,47522
53938,47814
54055,47814
54348,47522
54417,47560
54483,47740
55286,47740
55286,47719
55359,47542
55437,47463
54289,47463
53996,47756
53721,47481
51083,47481
51075,47700
51006,47867
50929,47914
50586,47571
50469,47571
50127,47914
50050,47867
49973,47662
49981,47443
49988,47427
49840,47427
49802,47496
49622,47561
49430,47553
49293,47496
49255,47427
49548,47134
49840,47427
49988,47427
50050,47275
50127,47229
50469,47571
50586,47571
50929,47229
51006,47275
51083,47481
53721,47481
53704,47463
53742,47394
53922,47328
54114,47337
54251,47394
54289,47463
55437,47463
55495,47406
55503,47402
55379,47279
55350,47235
53847,47235
53800,47312
53595,47389
53376,47381
53208,47312
53162,47235
53504,46893
53847,47235
55350,47235
55332,47208
55315,47125
55315,47125
55315,46235
55304,46233
55257,46203
55225,46157
55214,46102
55214,45629
55224,45578
55254,45531
55300,45500
55355,45489
55647,45489
55619,45448
55608,45393
55608,45316
55579,45336
55524,45347
55107,45347
55056,45337
55009,45307
54994,45286
54957,45278
54898,45239
54887,45231
54887,45231
54798,45143
54798,45206
54789,45257
54759,45304
54713,45336
54658,45347
54241,45347
54189,45337
54176,45328
54176,45328
54139,45318
54109,45305
54098,45299
54098,45374
54088,45425
54058,45471
54055,45473
54055,45489
54410,45489
54461,45499
54508,45529
54539,45575
54550,45629
54550,46102
54541,46153
54511,46200
54464,46231
54410,46242
54148,46242
54263,46358
54423,46358
54439,46318
54566,46191
54733,46122
54913,46121
55079,46190
55207,46318
55276,46484
55276,46664
55207,46830
55080,46958
54914,47027
54734,47027
54567,46958
54440,46831
54423,46791
54174,46791
54091,46774
54059,46753
54051,46963
53982,47130
53905,47177
53563,46834
53446,46834
53103,47177
53093,47170
50871,47170
50528,47513
50185,47170
50232,47094
50437,47017
50656,47024
50824,47094
50871,47170
53093,47170
53027,47130
52950,46925
52957,46706
53027,46538
53103,46492
53446,46834
53563,46834
53568,46829
53510,46770
53504,46776
53162,46433
53208,46356
53400,46284
53238,46122
53197,46115
53150,46084
53149,46082
53130,46101
53079,46122
53047,46122
53012,46087
53012,45907
52933,45907
52933,46087
52899,46122
52867,46122
52816,46101
52777,46062
52756,46011
52756,45941
52791,45907
52933,45907
53012,45907
53022,45907
53022,45824
53012,45824
53012,45816
52933,45816
52933,45824
52791,45824
52756,45790
52756,45728
52739,45728
52688,45707
52649,45668
52628,45617
52628,45508
52663,45474
52872,45474
52872,45482
52955,45482
52955,45474
52963,45474
52963,45391
52955,45391
52955,45383
52872,45383
52872,45391
52663,45391
52628,45357
52628,45248
52645,45208
52540,45208
52513,45206
52468,45197
52418,45176
52380,45150
52342,45112
52316,45074
52295,45024
52286,44979
52284,44952
52284,40872
52252,40885
52182,40885
52148,40851
52148,40690
52156,40690
52156,40608
52148,40608
52148,40447
52182,40413
52252,40413
52284,40426
52284,40334
52286,40307
52295,40262
52316,40212
52342,40174
52380,40136
52418,40110
52468,40090
52513,40081
52540,40078
52635,40078
52635,39901
52643,39861
52638,39850
52638,39780
52673,39746
52971,39746
52971,39753
53054,39753
53054,39746
53352,39746
53386,39780
53386,39850
53381,39862
53389,39901
53389,40078
56001,40078
56019,40061
56317,40061
56317,40068
56400,40068
56400,40061
56408,40061
56408,39978
56400,39978
56400,39970
56317,39970
56317,39978
56019,39978
55985,39943
55985,39874
55990,39861
55982,39822
55982,39586
55989,39546
55985,39535
55985,39465
56019,39431
56317,39431
56317,39438
56400,39438
56400,39431
56408,39431
56408,39348
56400,39348
56400,39340
56317,39340
56317,39348
56019,39348
55985,39313
55985,39244
55990,39231
55982,39192
55982,38956
55990,38915
55982,38877
55982,38641
55992,38590
56022,38543
56068,38512
56122,38501
56595,38501
56646,38510
56693,38541
56724,38587
56735,38641
56735,38877
56728,38918
56735,38956
56735,39015
56775,39015
56809,39050
56809,39230
56802,39230
56802,39312
56809,39312
56809,39320
56892,39320
56892,39312
56900,39312
56900,39230
56892,39230
56892,39050
56927,39015
56977,39015
57006,39027
57006,38937
57015,38885
57045,38839
57091,38807
57146,38796
57737,38796
57788,38806
57835,38836
57835,38837
57879,38807
57933,38796
58524,38796
58575,38806
58586,38813
57726,37952
56046,37952
56046,38425
" /> 
<polyline style="fill-rule:evenodd;"
points="48918,35546
50011,34453
50081,34406
50164,34389
54256,34389
54256,34389
54339,34406
54409,34453
55336,35380
55398,35354
55594,35354
55775,35429
55913,35567
55988,35748
55989,35943
55914,36124
55776,36263
55595,36338
55399,36338
55218,36263
55079,36125
55004,35944
55004,35748
55030,35686
54167,34822
50253,34822
49515,35561
49623,35560
49801,35634
49937,35769
49968,35845
50035,35890
50035,35890
50579,36434
50630,36434
50681,36443
50728,36474
50760,36520
50761,36524
50783,36539
50783,36539
51763,37519
53760,37519
53760,37260
53701,37260
53701,37409
53680,37459
53641,37498
53591,37519
53501,37519
53467,37485
53467,37226
53384,37226
53384,37485
53350,37519
53260,37519
53210,37498
53171,37459
53150,37409
53150,37260
53184,37226
53384,37226
53467,37226
53667,37226
53701,37260
53760,37260
53760,37237
53758,37224
53758,37189
53694,37116
53667,37143
53467,37143
53467,36884
53384,36884
53384,37143
53184,37143
53150,37109
53150,36960
53155,36948
53094,36948
53094,37224
53084,37275
53054,37322
53008,37353
52953,37364
52559,37364
52508,37355
52461,37325
52430,37279
52419,37224
52419,36948
52429,36897
52459,36850
52505,36819
52559,36808
52953,36808
53004,36817
53051,36848
53083,36894
53094,36948
53155,36948
53171,36910
53210,36871
53260,36850
53350,36850
53384,36884
53467,36884
53480,36871
53358,36732
53053,36732
53008,36763
52953,36774
52559,36774
52508,36764
52462,36734
52284,36734
52269,36732
52028,36732
52021,36731
52015,36727
52010,36720
52008,36713
52004,36537
51928,36537
51928,36697
51893,36732
51823,36732
51773,36711
51734,36672
51713,36621
51713,36571
51747,36537
51928,36537
52004,36537
51999,36294
51928,36294
51928,36454
51747,36454
51713,36420
51713,36370
51734,36319
51773,36280
51823,36259
51893,36259
51928,36294
51999,36294
51990,35946
51928,35946
51928,36107
51893,36141
51823,36141
51773,36120
51734,36081
51713,36031
51713,35981
51742,35952
50851,35952
50804,36028
50599,36105
50380,36098
50212,36028
50166,35952
50508,35609
50851,35952
51742,35952
51747,35946
51928,35946
51990,35946
51985,35703
51928,35703
51928,35864
51747,35864
51713,35829
51713,35779
51734,35729
51773,35690
51823,35669
51893,35669
51928,35703
51985,35703
51979,35460
51063,35460
51055,35679
50986,35847
50909,35893
50567,35551
50450,35551
50107,35893
50031,35847
49954,35641
49961,35422
50031,35255
50107,35208
50450,35551
50567,35551
50909,35208
50986,35255
51063,35460
51979,35460
51972,35150
50851,35150
50508,35492
50166,35150
50212,35073
50418,34996
50637,35004
50804,35073
50851,35150
51972,35150
51969,35020
51970,35012
51974,35005
51981,35001
51989,35000
52254,35000
52263,34990
52430,34921
52610,34921
52776,34989
52786,35000
53078,35000
53091,34997
53327,34997
53341,35000
53491,35000
53504,34997
53741,34997
53755,35000
53859,35000
53866,35001
53872,35005
53877,35012
53878,35019
53878,35124
53881,35137
53881,35295
53878,35309
53878,35478
53881,35492
53881,35629
53885,35629
53898,35627
54292,35627
54306,35629
54410,35629
54417,35631
54424,35635
54428,35641
54430,35649
54430,35754
54432,35767
54432,36043
54430,36057
54430,36344
54432,36358
54432,36428
54681,36677
54728,36747
54744,36830
54744,37437
55170,37012
55240,36965
55323,36948
57883,36948
58009,36823
58064,36786
57087,36786
57087,36818
57066,36869
57027,36908
56977,36929
56907,36929
56872,36894
56872,36751
56790,36751
56790,36894
56755,36929
56686,36929
56635,36908
56596,36869
56575,36818
56575,36786
56610,36751
56790,36751
56872,36751
57053,36751
57087,36786
58064,36786
58079,36776
58162,36759
58634,36759
58712,36642
58865,36539
59046,36503
59057,36503
58639,36085
58623,36124
58484,36263
58303,36338
58108,36338
57927,36263
57788,36125
57713,35944
57713,35748
57788,35568
57863,35492
57700,35492
57700,36200
57690,36251
57660,36298
57614,36330
57559,36341
57090,36341
57090,36437
57080,36488
57050,36534
57047,36536
57066,36555
57087,36606
57087,36638
57053,36673
56872,36673
56872,36663
56790,36663
56790,36673
56610,36673
56575,36638
56575,36606
56596,36555
56615,36537
56584,36491
56572,36437
56572,36341
56142,36341
56091,36331
56044,36301
56013,36255
56002,36200
56002,35492
56011,35441
56041,35394
56087,35362
56142,35351
57559,35351
57610,35361
57657,35391
57689,35437
57700,35492
57863,35492
57926,35429
58107,35354
58303,35354
58483,35429
58622,35567
58648,35629
58706,35629
58789,35646
58859,35693
59740,36574
59787,36644
59804,36727
59804,41444
59787,41527
59740,41597
59543,41794
59543,41794
59508,41830
59537,41976
59501,42157
59399,42310
59246,42412
59065,42448
59046,42448
58915,42422
58188,43149
58288,43149
58315,43152
58360,43161
58410,43181
58448,43207
58486,43245
58511,43283
58532,43333
58541,43378
58544,43405
58544,43529
58546,43543
58546,43700
58537,43751
58532,43759
58580,43759
58580,43641
58590,43590
58620,43543
58666,43512
58721,43501
59390,43501
59441,43510
59488,43541
59520,43587
59531,43641
59531,44311
59521,44362
59491,44408
59445,44440
59390,44451
58721,44451
58670,44441
58623,44411
58591,44365
58580,44311
58580,44192
58419,44192
58406,44195
58170,44195
58119,44186
58072,44155
58040,44109
58029,44055
58029,43897
58039,43846
58044,43838
57771,43838
57769,43850
57739,43897
57693,43928
57638,43939
57166,43939
57115,43930
57068,43899
57036,43853
57033,43838
56989,43838
56979,43836
56971,43835
56926,43826
56922,43825
56906,43822
56892,43812
56876,43806
56838,43780
56817,43763
56660,43606
53996,43606
53996,44724
54016,44724
54019,44725
54024,44725
54051,44728
54082,44735
54092,44739
54099,44740
54102,44743
54108,44745
54122,44751
54129,44754
54137,44746
54408,44746
54408,44753
54491,44753
54491,44746
54498,44746
54498,44663
54491,44663
54491,44655
54408,44655
54408,44663
54137,44663
54103,44628
54103,44549
54115,44519
54111,44513
54100,44458
54100,44202
54110,44151
54140,44104
54186,44073
54241,44062
54658,44062
54709,44071
54756,44102
54767,44118
54827,44130
54898,44177
54898,44177
54966,44246
54966,44202
54976,44151
55006,44104
55052,44073
55107,44062
55524,44062
55575,44071
55595,44084
55595,44079
55664,43913
55791,43785
55957,43716
56137,43716
56304,43785
56431,43912
56500,44078
56500,44258
56432,44425
56391,44465
56418,44465
56432,44468
56525,44468
56619,44374
56689,44327
56772,44311
57914,44311
57914,44311
57997,44327
58067,44374
58067,44374
58783,45090
58865,45035
59046,45000
59065,45000
59246,45035
59399,45138
59501,45291
59537,45472
59501,45653
59399,45806
59246,45908
59065,45944
59046,45944
58865,45908
58712,45806
58610,45653
58579,45499
58077,44997
57776,44997
57776,45125
57755,45176
57716,45215
57666,45236
57478,45236
57443,45201
57443,44962
57361,44962
57361,45201
57326,45236
57138,45236
57088,45215
57049,45176
57028,45125
57028,44997
57062,44962
57361,44962
57443,44962
57742,44962
57776,44997
58077,44997
57824,44744
57776,44744
57776,44845
57742,44879
57443,44879
57443,44872
57361,44872
57361,44879
57062,44879
57028,44845
57028,44744
56862,44744
56768,44838
56768,44838
56697,44885
56615,44901
56544,44901
56547,44905
56558,44960
56558,45118
56551,45158
56558,45196
56558,45393
56549,45444
56518,45491
56516,45493
56516,45551
56500,45634
56453,45704
56138,46019
56138,46019
56097,46046
56067,46066
56067,46066
56067,46066
56018,46076
55985,46082
55985,46082
55867,46082
55850,46082
55850,46102
55840,46153
55810,46200
55764,46231
55748,46234
55748,46630
55786,46538
55863,46492
56206,46834
56200,46840
56259,46898
56264,46893
56607,47235
56560,47312
56355,47389
56136,47381
55975,47315
55985,47362
55985,47382
56041,47405
56177,47541
56250,47718
56250,47910
56177,48087
56096,48169
60414,48169
60414,46137
59531,46137
59531,46807
59521,46858
59491,46905
59445,46936
59390,46947
58721,46947
58670,46937
58623,46907
58591,46861
58580,46807
58580,46688
58350,46688
58350,47066
58340,47117
58310,47164
58264,47196
58209,47207
57618,47207
57567,47197
57521,47167
57519,47164
57500,47183
57449,47204
57202,47204
57168,47170
57168,46517
57085,46517
57085,47170
57051,47204
56804,47204
56753,47183
56716,47146
56665,47177
56323,46834
56665,46492
56720,46525
56728,46517
57085,46517
57168,46517
57176,46517
57176,46435
57168,46435
57168,45782
57085,45782
57085,46435
56728,46435
56726,46433
56607,46433
56264,46776
55922,46433
55968,46356
56174,46280
56393,46287
56560,46356
56607,46433
56726,46433
56693,46400
56693,45858
56714,45807
56753,45769
56804,45748
57051,45748
57085,45782
57168,45782
57202,45748
57449,45748
57500,45769
57518,45787
57564,45756
57618,45745
58209,45745
58260,45754
58307,45785
58338,45831
58350,45885
58350,46255
58580,46255
58580,46137
58590,46086
58620,46039
58666,46008
58721,45997
59390,45997
59441,46006
59488,46037
59520,46083
59531,46137
60414,46137
60414,43090
59514,43090
59461,43219
59337,43356
59170,43434
59097,43412
59097,43017
59014,43017
59014,43412
58941,43434
58774,43356
58650,43219
58597,43090
58619,43017
59014,43017
59097,43017
59492,43017
59514,43090
60414,43090
60414,42861
59514,42861
59492,42935
59097,42935
59097,42540
59014,42540
59014,42935
58619,42935
58597,42861
58650,42733
58774,42596
58941,42518
59014,42540
59097,42540
59170,42518
59337,42596
59461,42733
59514,42861
60414,42861
60414,34311
48918,34311
48918,35546
" /> 
<polyline style="fill-rule:evenodd;"
points="49203,42661
49229,42635
49255,42660
49293,42591
49473,42525
49665,42534
49802,42591
49840,42660
49548,42953
49542,42947
49484,43006
49489,43011
49484,43017
49542,43075
49548,43070
49840,43363
49802,43432
49622,43497
49430,43489
49293,43432
49255,43363
49229,43388
49203,43362
49203,44966
49274,44895
49451,44821
49643,44821
49820,44895
49956,45030
50030,45207
50030,45399
49957,45577
49859,45674
50316,46131
50315,46129
50315,46060
50350,46025
50510,46025
50510,46033
50593,46033
50593,46025
50753,46025
50788,46060
50788,46111
51060,45838
50788,45838
50788,45908
50753,45942
50593,45942
50593,45762
50510,45762
50510,45942
50350,45942
50315,45908
50315,45838
50336,45788
50375,45749
50426,45728
50476,45728
50510,45762
50593,45762
50627,45728
50677,45728
50728,45749
50767,45788
50788,45838
51060,45838
51197,45701
51197,45213
50871,45213
50824,45289
50619,45366
50399,45359
50232,45289
50185,45213
50528,44870
50871,45213
51197,45213
51197,44721
51083,44721
51075,44940
51006,45108
50929,45154
50586,44812
50469,44812
50127,45154
50050,45108
49973,44902
49981,44683
50050,44516
50127,44469
50469,44812
50586,44812
50929,44469
51006,44516
51083,44721
51197,44721
51197,44410
50871,44410
50528,44753
50185,44410
50232,44334
50437,44257
50656,44264
50824,44334
50871,44410
51197,44410
51197,43908
50871,43908
50824,43985
50619,44062
50399,44054
50232,43985
50185,43908
50528,43566
50871,43908
51197,43908
51197,43417
51083,43417
51075,43636
51006,43803
50929,43850
50586,43507
50469,43507
50127,43850
50050,43803
49973,43598
49981,43379
50050,43211
50127,43165
50469,43507
50586,43507
50929,43165
51006,43211
51083,43417
51197,43417
51197,43106
50871,43106
50528,43449
50185,43106
50232,43030
50437,42953
50656,42960
50824,43030
50871,43106
51197,43106
51197,42937
50034,42937
50025,43129
49968,43266
49899,43304
49606,43011
49899,42719
49968,42757
50034,42937
51197,42937
51197,42437
50788,42437
50788,42507
50767,42558
50728,42597
50677,42618
50627,42618
50593,42583
50593,42403
50510,42403
50510,42583
50476,42618
50426,42618
50375,42597
50336,42558
50315,42507
50315,42437
50350,42403
50510,42403
50593,42403
50753,42403
50788,42437
51197,42437
51197,41589
50790,41996
50790,42047
50781,42098
50751,42145
50748,42147
50767,42166
50788,42216
50788,42286
50753,42320
50593,42320
50593,42312
50510,42312
50510,42320
50350,42320
50315,42286
50315,42216
50336,42166
50355,42147
50354,42145
50237,42145
50154,42129
50083,42082
49700,41698
49644,41722
49452,41722
49275,41649
49203,41577
49203,42661
" /> 
<polyline style="fill-rule:evenodd;"
points="49801,36451
49624,36525
49432,36525
49255,36452
49203,36400
49203,37444
49210,37438
49235,37463
49273,37394
49454,37328
49645,37337
49782,37394
49821,37463
49528,37756
49522,37750
49464,37809
49469,37814
49464,37820
49522,37878
49528,37873
49821,38166
49782,38235
49602,38301
49410,38292
49273,38235
49235,38166
49210,38191
49203,38185
49203,40902
49274,40831
49451,40757
49643,40757
49820,40831
49956,40966
50030,41143
50030,41335
50006,41392
50326,41712
50353,41712
50398,41681
50453,41670
50504,41670
50922,41252
50922,41148
50896,41174
50871,41149
50824,41225
50619,41302
50399,41295
50232,41225
50185,41149
50528,40806
50533,40812
50592,40753
50586,40748
50469,40748
50127,41090
50050,41044
49973,40838
49981,40619
50050,40452
50127,40405
50469,40748
50586,40748
50592,40742
50533,40684
50528,40689
50185,40346
50232,40270
50437,40193
50656,40200
50824,40270
50871,40346
50896,40321
50922,40347
50922,39748
50922,39748
50938,39665
50985,39594
51868,38712
50851,38712
50804,38788
50599,38865
50380,38858
50212,38788
50166,38712
50508,38369
50851,38712
51868,38712
52360,38220
51063,38220
51055,38439
50986,38607
50909,38653
50567,38311
50450,38311
50107,38653
50031,38607
49954,38401
49961,38182
50031,38015
50107,37968
50450,38311
50567,38311
50909,37968
50986,38015
51063,38220
52360,38220
52544,38035
52614,37988
52697,37972
53324,37972
53324,37952
51674,37952
51591,37936
51551,37909
50851,37909
50508,38252
50166,37909
50212,37833
50418,37756
50637,37763
50804,37833
50851,37909
51551,37909
51520,37889
51372,37740
50014,37740
50005,37932
49949,38069
49879,38107
49586,37814
49879,37522
49949,37560
50014,37740
51372,37740
50768,37136
50768,37167
50734,37167
50768,37201
50768,37271
50747,37322
50708,37360
50658,37381
50608,37381
50573,37347
50573,37167
50491,37167
50491,37347
50456,37381
50406,37381
50355,37360
50317,37322
50296,37271
50296,37201
50330,37167
50491,37167
50573,37167
50581,37167
50581,37084
50573,37084
50573,37076
50491,37076
50491,37084
50330,37084
50296,37050
50296,36980
50317,36929
50335,36911
50304,36865
50293,36811
50293,36760
49893,36360
49801,36451
" /> 
</g>
<g style="fill:#000000; fill-opacity:1.0; 
stroke:#000000; stroke-width:50; stroke-opacity:1; 
stroke-linecap:round; stroke-linejoin:round;">
<polyline style="fill-rule:evenodd;"
points="56652,39642
56595,39653
56185,39653
56175,39669
56168,39704
56175,39740
56185,39755
56595,39755
56648,39765
56697,39796
56729,39844
56741,39901
56741,40137
56731,40190
56699,40239
56652,40272
56595,40283
56122,40283
56069,40273
56021,40242
56020,40241
53394,40241
53394,40452
53384,40505
53353,40554
53305,40587
53248,40598
52776,40598
52723,40588
52674,40557
52642,40509
52630,40452
52630,40241
52542,40241
52504,40249
52474,40269
52454,40299
52447,40337
52447,44950
52454,44988
52474,45018
52504,45038
52542,45045
53955,45045
53959,45046
53991,45050
53997,45052
54027,45065
54030,45067
54176,45157
54201,45168
54228,45171
54525,45171
54563,45164
54593,45144
54613,45114
54621,45078
54613,45043
54593,45013
54563,44993
54525,44985
54261,44985
54258,44985
54231,44982
54225,44980
54199,44971
54197,44970
54196,44970
54187,44968
54169,44956
54051,44897
54029,44889
54006,44887
53947,44887
53942,44886
53908,44879
53899,44876
53871,44857
53864,44850
53845,44821
53841,44812
53834,44778
53834,44773
53834,43582
53834,43577
53843,43532
53847,43523
53872,43485
53879,43478
53918,43452
53927,43449
53972,43440
53977,43439
56664,43439
56669,43440
56714,43449
56723,43452
56761,43478
56765,43481
56800,43516
56821,43530
56951,43660
56963,43668
57001,43675
57117,43675
57121,43676
57140,43680
57149,43683
57165,43694
57172,43701
57183,43717
57186,43726
57193,43759
57198,43766
57206,43771
57217,43774
57586,43774
57598,43771
57606,43766
57611,43759
57617,43726
57621,43717
57632,43701
57639,43694
57655,43683
57664,43680
57682,43676
57687,43675
58285,43675
58323,43668
58353,43648
58373,43618
58381,43580
58381,43407
58373,43370
58353,43340
58323,43319
58285,43312
54065,43312
54060,43311
54015,43302
54006,43299
54005,43298
53990,43295
53918,43247
53111,42440
53063,42368
53046,42283
53046,41587
52855,41397
52855,41397
52807,41325
52790,41240
52790,41228
52776,41228
52723,41218
52674,41187
52642,41139
52630,41082
52630,40846
52640,40793
52671,40744
52719,40712
52776,40700
53248,40700
53301,40710
53350,40741
53383,40789
53394,40846
53394,41082
53384,41135
53353,41184
53305,41217
53303,41217
53330,41244
53360,41197
53408,41164
53465,41153
53701,41153
53742,41160
53780,41153
54016,41153
54057,41160
54095,41153
54331,41153
54372,41160
54410,41153
54646,41153
54687,41160
54725,41153
54961,41153
55002,41160
55040,41153
55276,41153
55317,41160
55355,41153
55591,41153
55632,41160
55670,41153
55906,41153
55959,41163
56008,41194
56040,41242
56045,41263
56070,41246
56086,41221
56069,41218
56021,41187
55988,41139
55976,41082
55976,40846
55984,40805
55976,40767
55976,40531
55986,40478
56018,40429
56066,40397
56122,40385
56595,40385
56648,40395
56697,40426
56697,40427
56927,40427
56965,40420
56995,40400
57015,40370
57023,40332
57023,40190
57012,40174
57000,40118
57000,39646
56995,39639
56965,39619
56927,39611
56697,39611
56652,39642
" /> 
</g>
<g style="fill:#FFFFFF; fill-opacity:1.0; 
stroke:#FFFFFF; stroke-width:50; stroke-opacity:1; 
stroke-linecap:round; stroke-linejoin:round;">
</g>
<g style="fill:#FFFFFF; fill-opacity:1.0; 
stroke:#FFFFFF; stroke-width:0; stroke-opacity:1; 
stroke-linecap:round; stroke-linejoin:round;">
<circle cx="54646.5" cy="40649.6" r="68.8976" /> 
</g>
<g style="fill:#FFFFFF; fill-opacity:1.0; 
stroke:#FFFFFF; stroke-width:39.3701; stroke-opacity:1; 
stroke-linecap:round; stroke-linejoin:round;">
</g>
<g style="fill:#FFFFFF; fill-opacity:1.0; 
stroke:#FFFFFF; stroke-width:0; stroke-opacity:1; 
stroke-linecap:round; stroke-linejoin:round;">
<circle cx="52520.6" cy="35374" r="68.8976" /> 
</g>
<g style="fill:#FFFFFF; fill-opacity:1.0; 
stroke:#FFFFFF; stroke-width:39.3701; stroke-opacity:1; 
stroke-linecap:round; stroke-linejoin:round;">
</g>
<g style="fill:#FFFFFF; fill-opacity:1.0; 
stroke:#FFFFFF; stroke-width:0; stroke-opacity:1; 
stroke-linecap:round; stroke-linejoin:round;">
<circle cx="56048.1" cy="44169.3" r="68.8976" /> 
</g>
<g style="fill:#FFFFFF; fill-opacity:1.0; 
stroke:#FFFFFF; stroke-width:39.3701; stroke-opacity:1; 
stroke-linecap:round; stroke-linejoin:round;">
</g>
<g style="fill:#FFFFFF; fill-opacity:1.0; 
stroke:#FFFFFF; stroke-width:0; stroke-opacity:1; 
stroke-linecap:round; stroke-linejoin:round;">
<circle cx="54823.7" cy="46574.8" r="68.8976" /> 
</g>
<g style="fill:#FFFFFF; fill-opacity:1.0; 
stroke:#FFFFFF; stroke-width:39.3701; stroke-opacity:1; 
stroke-linecap:round; stroke-linejoin:round;">
</g>
<g style="fill:#FFFFFF; fill-opacity:1.0; 
stroke:#FFFFFF; stroke-width:0; stroke-opacity:1; 
stroke-linecap:round; stroke-linejoin:round;">
<circle cx="59056" cy="43976.4" r="68.8976" /> 
</g>
<g style="fill:#FFFFFF; fill-opacity:1.0; 
stroke:#FFFFFF; stroke-width:39.3701; stroke-opacity:1; 
stroke-linecap:round; stroke-linejoin:round;">
</g>
<g style="fill:#FFFFFF; fill-opacity:1.0; 
stroke:#FFFFFF; stroke-width:0; stroke-opacity:1; 
stroke-linecap:round; stroke-linejoin:round;">
<circle cx="59056" cy="42976.4" r="68.8976" /> 
</g>
<g style="fill:#FFFFFF; fill-opacity:1.0; 
stroke:#FFFFFF; stroke-width:39.3701; stroke-opacity:1; 
stroke-linecap:round; stroke-linejoin:round;">
</g>
<g style="fill:#FFFFFF; fill-opacity:1.0; 
stroke:#FFFFFF; stroke-width:0; stroke-opacity:1; 
stroke-linecap:round; stroke-linejoin:round;">
<circle cx="59056" cy="41976.4" r="68.8976" /> 
</g>
<g style="fill:#FFFFFF; fill-opacity:1.0; 
stroke:#FFFFFF; stroke-width:39.3701; stroke-opacity:1; 
stroke-linecap:round; stroke-linejoin:round;">
</g>
<g style="fill:#FFFFFF; fill-opacity:1.0; 
stroke:#FFFFFF; stroke-width:0; stroke-opacity:1; 
stroke-linecap:round; stroke-linejoin:round;">
<circle cx="59056" cy="40976.4" r="68.8976" /> 
</g>
<g style="fill:#FFFFFF; fill-opacity:1.0; 
stroke:#FFFFFF; stroke-width:39.3701; stroke-opacity:1; 
stroke-linecap:round; stroke-linejoin:round;">
</g>
<g style="fill:#FFFFFF; fill-opacity:1.0; 
stroke:#FFFFFF; stroke-width:0; stroke-opacity:1; 
stroke-linecap:round; stroke-linejoin:round;">
<circle cx="59056" cy="39976.4" r="68.8976" /> 
</g>
<g style="fill:#FFFFFF; fill-opacity:1.0; 
stroke:#FFFFFF; stroke-width:39.3701; stroke-opacity:1; 
stroke-linecap:round; stroke-linejoin:round;">
</g>
<g style="fill:#FFFFFF; fill-opacity:1.0; 
stroke:#FFFFFF; stroke-width:0; stroke-opacity:1; 
stroke-linecap:round; stroke-linejoin:round;">
<circle cx="59056" cy="38976.4" r="68.8976" /> 
</g>
<g style="fill:#FFFFFF; fill-opacity:1.0; 
stroke:#FFFFFF; stroke-width:39.3701; stroke-opacity:1; 
stroke-linecap:round; stroke-linejoin:round;">
</g>
<g style="fill:#FFFFFF; fill-opacity:1.0; 
stroke:#FFFFFF; stroke-width:0; stroke-opacity:1; 
stroke-linecap:round; stroke-linejoin:round;">
<circle cx="59056" cy="37976.4" r="68.8976" /> 
</g>
<g style="fill:#FFFFFF; fill-opacity:1.0; 
stroke:#FFFFFF; stroke-width:39.3701; stroke-opacity:1; 
stroke-linecap:round; stroke-linejoin:round;">
</g>
<g style="fill:#FFFFFF; fill-opacity:1.0; 
stroke:#FFFFFF; stroke-width:0; stroke-opacity:1; 
stroke-linecap:round; stroke-linejoin:round;">
<circle cx="59056" cy="36976.4" r="68.8976" /> 
</g>
<g style="fill:#FFFFFF; fill-opacity:1.0; 
stroke:#FFFFFF; stroke-width:39.3701; stroke-opacity:1; 
stroke-linecap:round; stroke-linejoin:round;">
</g>
<g style="fill:#FFFFFF; fill-opacity:1.0; 
stroke:#FFFFFF; stroke-width:0; stroke-opacity:1; 
stroke-linecap:round; stroke-linejoin:round;">
<circle cx="56264.6" cy="46834.6" r="68.8976" /> 
</g>
<g style="fill:#FFFFFF; fill-opacity:1.0; 
stroke:#FFFFFF; stroke-width:39.3701; stroke-opacity:1; 
stroke-linecap:round; stroke-linejoin:round;">
</g>
<g style="fill:#FFFFFF; fill-opacity:1.0; 
stroke:#FFFFFF; stroke-width:0; stroke-opacity:1; 
stroke-linecap:round; stroke-linejoin:round;">
<circle cx="55768.6" cy="47815" r="68.8976" /> 
</g>
<g style="fill:#FFFFFF; fill-opacity:1.0; 
stroke:#FFFFFF; stroke-width:39.3701; stroke-opacity:1; 
stroke-linecap:round; stroke-linejoin:round;">
</g>
<g style="fill:#FFFFFF; fill-opacity:1.0; 
stroke:#FFFFFF; stroke-width:0; stroke-opacity:1; 
stroke-linecap:round; stroke-linejoin:round;">
<circle cx="53996.9" cy="47815" r="68.8976" /> 
</g>
<g style="fill:#FFFFFF; fill-opacity:1.0; 
stroke:#FFFFFF; stroke-width:39.3701; stroke-opacity:1; 
stroke-linecap:round; stroke-linejoin:round;">
</g>
<g style="fill:#FFFFFF; fill-opacity:1.0; 
stroke:#FFFFFF; stroke-width:0; stroke-opacity:1; 
stroke-linecap:round; stroke-linejoin:round;">
<circle cx="53504.8" cy="46834.6" r="68.8976" /> 
</g>
<g style="fill:#FFFFFF; fill-opacity:1.0; 
stroke:#FFFFFF; stroke-width:39.3701; stroke-opacity:1; 
stroke-linecap:round; stroke-linejoin:round;">
</g>
<g style="fill:#FFFFFF; fill-opacity:1.0; 
stroke:#FFFFFF; stroke-width:0; stroke-opacity:1; 
stroke-linecap:round; stroke-linejoin:round;">
<circle cx="50528.4" cy="43507.9" r="68.8976" /> 
</g>
<g style="fill:#FFFFFF; fill-opacity:1.0; 
stroke:#FFFFFF; stroke-width:39.3701; stroke-opacity:1; 
stroke-linecap:round; stroke-linejoin:round;">
</g>
<g style="fill:#FFFFFF; fill-opacity:1.0; 
stroke:#FFFFFF; stroke-width:0; stroke-opacity:1; 
stroke-linecap:round; stroke-linejoin:round;">
<circle cx="49548.1" cy="43011.8" r="68.8976" /> 
</g>
<g style="fill:#FFFFFF; fill-opacity:1.0; 
stroke:#FFFFFF; stroke-width:39.3701; stroke-opacity:1; 
stroke-linecap:round; stroke-linejoin:round;">
</g>
<g style="fill:#FFFFFF; fill-opacity:1.0; 
stroke:#FFFFFF; stroke-width:0; stroke-opacity:1; 
stroke-linecap:round; stroke-linejoin:round;">
<circle cx="49548.1" cy="41240.2" r="68.8976" /> 
</g>
<g style="fill:#FFFFFF; fill-opacity:1.0; 
stroke:#FFFFFF; stroke-width:39.3701; stroke-opacity:1; 
stroke-linecap:round; stroke-linejoin:round;">
</g>
<g style="fill:#FFFFFF; fill-opacity:1.0; 
stroke:#FFFFFF; stroke-width:0; stroke-opacity:1; 
stroke-linecap:round; stroke-linejoin:round;">
<circle cx="50528.4" cy="40748" r="68.8976" /> 
</g>
<g style="fill:#FFFFFF; fill-opacity:1.0; 
stroke:#FFFFFF; stroke-width:39.3701; stroke-opacity:1; 
stroke-linecap:round; stroke-linejoin:round;">
</g>
<g style="fill:#FFFFFF; fill-opacity:1.0; 
stroke:#FFFFFF; stroke-width:0; stroke-opacity:1; 
stroke-linecap:round; stroke-linejoin:round;">
<circle cx="50528.4" cy="47571.9" r="68.8976" /> 
</g>
<g style="fill:#FFFFFF; fill-opacity:1.0; 
stroke:#FFFFFF; stroke-width:39.3701; stroke-opacity:1; 
stroke-linecap:round; stroke-linejoin:round;">
</g>
<g style="fill:#FFFFFF; fill-opacity:1.0; 
stroke:#FFFFFF; stroke-width:0; stroke-opacity:1; 
stroke-linecap:round; stroke-linejoin:round;">
<circle cx="49548.1" cy="47075.8" r="68.8976" /> 
</g>
<g style="fill:#FFFFFF; fill-opacity:1.0; 
stroke:#FFFFFF; stroke-width:39.3701; stroke-opacity:1; 
stroke-linecap:round; stroke-linejoin:round;">
</g>
<g style="fill:#FFFFFF; fill-opacity:1.0; 
stroke:#FFFFFF; stroke-width:0; stroke-opacity:1; 
stroke-linecap:round; stroke-linejoin:round;">
<circle cx="49548.1" cy="45304.2" r="68.8976" /> 
</g>
<g style="fill:#FFFFFF; fill-opacity:1.0; 
stroke:#FFFFFF; stroke-width:39.3701; stroke-opacity:1; 
stroke-linecap:round; stroke-linejoin:round;">
</g>
<g style="fill:#FFFFFF; fill-opacity:1.0; 
stroke:#FFFFFF; stroke-width:0; stroke-opacity:1; 
stroke-linecap:round; stroke-linejoin:round;">
<circle cx="50528.4" cy="44812" r="68.8976" /> 
</g>
<g style="fill:#FFFFFF; fill-opacity:1.0; 
stroke:#FFFFFF; stroke-width:39.3701; stroke-opacity:1; 
stroke-linecap:round; stroke-linejoin:round;">
</g>
<g style="fill:#FFFFFF; fill-opacity:1.0; 
stroke:#FFFFFF; stroke-width:0; stroke-opacity:1; 
stroke-linecap:round; stroke-linejoin:round;">
<circle cx="50508.7" cy="38311" r="68.8976" /> 
</g>
<g style="fill:#FFFFFF; fill-opacity:1.0; 
stroke:#FFFFFF; stroke-width:39.3701; stroke-opacity:1; 
stroke-linecap:round; stroke-linejoin:round;">
</g>
<g style="fill:#FFFFFF; fill-opacity:1.0; 
stroke:#FFFFFF; stroke-width:0; stroke-opacity:1; 
stroke-linecap:round; stroke-linejoin:round;">
<circle cx="49528.4" cy="37815" r="68.8976" /> 
</g>
<g style="fill:#FFFFFF; fill-opacity:1.0; 
stroke:#FFFFFF; stroke-width:39.3701; stroke-opacity:1; 
stroke-linecap:round; stroke-linejoin:round;">
</g>
<g style="fill:#FFFFFF; fill-opacity:1.0; 
stroke:#FFFFFF; stroke-width:0; stroke-opacity:1; 
stroke-linecap:round; stroke-linejoin:round;">
<circle cx="49528.4" cy="36043.3" r="68.8976" /> 
</g>
<g style="fill:#FFFFFF; fill-opacity:1.0; 
stroke:#FFFFFF; stroke-width:39.3701; stroke-opacity:1; 
stroke-linecap:round; stroke-linejoin:round;">
</g>
<g style="fill:#FFFFFF; fill-opacity:1.0; 
stroke:#FFFFFF; stroke-width:0; stroke-opacity:1; 
stroke-linecap:round; stroke-linejoin:round;">
<circle cx="50508.7" cy="35551.2" r="68.8976" /> 
</g>
<g style="fill:#FFFFFF; fill-opacity:1.0; 
stroke:#FFFFFF; stroke-width:39.3701; stroke-opacity:1; 
stroke-linecap:round; stroke-linejoin:round;">
</g>
<g style="fill:#FFFFFF; fill-opacity:1.0; 
stroke:#FFFFFF; stroke-width:0; stroke-opacity:1; 
stroke-linecap:round; stroke-linejoin:round;">
<circle cx="59056" cy="46472.4" r="68.8976" /> 
</g>
<g style="fill:#FFFFFF; fill-opacity:1.0; 
stroke:#FFFFFF; stroke-width:39.3701; stroke-opacity:1; 
stroke-linecap:round; stroke-linejoin:round;">
</g>
<g style="fill:#FFFFFF; fill-opacity:1.0; 
stroke:#FFFFFF; stroke-width:0; stroke-opacity:1; 
stroke-linecap:round; stroke-linejoin:round;">
<circle cx="59056" cy="45472.4" r="68.8976" /> 
</g>
<g style="fill:#FFFFFF; fill-opacity:1.0; 
stroke:#FFFFFF; stroke-width:39.3701; stroke-opacity:1; 
stroke-linecap:round; stroke-linejoin:round;">
</g>
<g style="fill:#FFFFFF; fill-opacity:1.0; 
stroke:#FFFFFF; stroke-width:0; stroke-opacity:1; 
stroke-linecap:round; stroke-linejoin:round;">
<circle cx="56496.9" cy="35846.5" r="68.8976" /> 
</g>
<g style="fill:#FFFFFF; fill-opacity:1.0; 
stroke:#FFFFFF; stroke-width:39.3701; stroke-opacity:1; 
stroke-linecap:round; stroke-linejoin:round;">
</g>
<g style="fill:#FFFFFF; fill-opacity:1.0; 
stroke:#FFFFFF; stroke-width:0; stroke-opacity:1; 
stroke-linecap:round; stroke-linejoin:round;">
<circle cx="55496.9" cy="35846.5" r="68.8976" /> 
</g>
<g style="fill:#FFFFFF; fill-opacity:1.0; 
stroke:#FFFFFF; stroke-width:39.3701; stroke-opacity:1; 
stroke-linecap:round; stroke-linejoin:round;">
</g>
<g style="fill:#FFFFFF; fill-opacity:1.0; 
stroke:#FFFFFF; stroke-width:0; stroke-opacity:1; 
stroke-linecap:round; stroke-linejoin:round;">
<circle cx="57205.6" cy="35846.5" r="68.8976" /> 
</g>
<g style="fill:#FFFFFF; fill-opacity:1.0; 
stroke:#FFFFFF; stroke-width:39.3701; stroke-opacity:1; 
stroke-linecap:round; stroke-linejoin:round;">
</g>
<g style="fill:#FFFFFF; fill-opacity:1.0; 
stroke:#FFFFFF; stroke-width:0; stroke-opacity:1; 
stroke-linecap:round; stroke-linejoin:round;">
<circle cx="58205.6" cy="35846.5" r="68.8976" /> 
</g>
<g style="fill:#FFFFFF; fill-opacity:1.0; 
stroke:#FFFFFF; stroke-width:39.3701; stroke-opacity:1; 
stroke-linecap:round; stroke-linejoin:round;">
</g>
<g style="fill:#000000; fill-opacity:1.0; 
stroke:#000000; stroke-width:39.3701; stroke-opacity:1; 
stroke-linecap:round; stroke-linejoin:round;">
</g> 
</svg>
