<?xml version="1.0" standalone="no"?>
 <!DOCTYPE svg PUBLIC "-//W3C//DTD SVG 1.1//EN" 
 "http://www.w3.org/Graphics/SVG/1.1/DTD/svg11.dtd"> 
<svg xmlns="http://www.w3.org/2000/svg" version="1.1" 
    width="29.7002cm" height="21.0007cm" viewBox="0 0 116930 82680 ">
<title>SVG Picture created as MinimalArduiVario-B.Cu.svg date 2017/05/11 19:56:00 </title>
  <desc>Picture generated by PCBNEW </desc>
<g style="fill:#000000; fill-opacity:1;stroke:#000000; stroke-opacity:1;
stroke-linecap:round; stroke-linejoin:round; "
 transform="translate(0 0) scale(1 1)">
</g>
<g style="fill:#000000; fill-opacity:0.0; 
stroke:#000000; stroke-width:-0.000393701; stroke-opacity:1; 
stroke-linecap:round; stroke-linejoin:round;">
</g>
<g style="fill:#000000; fill-opacity:0.0; 
stroke:#000000; stroke-width:39.3701; stroke-opacity:1; 
stroke-linecap:round; stroke-linejoin:round;">
<path d="M56358 48326
L56358 34153
" />
<path d="M68169 48326
L56358 48326
" />
<path d="M68169 34153
L68169 48326
" />
<path d="M56358 34153
L68169 34153
" />
</g>
<g style="fill:#000000; fill-opacity:0.0; 
stroke:#000000; stroke-width:0; stroke-opacity:1; 
stroke-linecap:round; stroke-linejoin:round;">
</g>
<g style="fill:#000000; fill-opacity:1.0; 
stroke:#000000; stroke-width:0; stroke-opacity:1; 
stroke-linecap:round; stroke-linejoin:round;">
<polyline style="fill-rule:evenodd;"
points="58208,43641
58208,44311
57539,44311
57539,43641
58208,43641
" /> 
</g>
<g style="fill:#000000; fill-opacity:1.0; 
stroke:#000000; stroke-width:669.291; stroke-opacity:1; 
stroke-linecap:round; stroke-linejoin:round;">
</g>
<g style="fill:#000000; fill-opacity:0.0; 
stroke:#000000; stroke-width:669.291; stroke-opacity:1; 
stroke-linecap:round; stroke-linejoin:round;">
<path d="M57874 42976
L57874 42976
" />
<path d="M57874 41976
L57874 41976
" />
<path d="M57874 40976
L57874 40976
" />
<path d="M57874 39976
L57874 39976
" />
<path d="M57874 38976
L57874 38976
" />
<path d="M57874 37976
L57874 37976
" />
<path d="M57874 36976
L57874 36976
" />
</g>
<g style="fill:#000000; fill-opacity:1.0; 
stroke:#000000; stroke-width:0; stroke-opacity:1; 
stroke-linecap:round; stroke-linejoin:round;">
<circle cx="60665.4" cy="46834.6" r="413.386" /> 
</g>
<g style="fill:#000000; fill-opacity:1.0; 
stroke:#000000; stroke-width:39.3701; stroke-opacity:1; 
stroke-linecap:round; stroke-linejoin:round;">
</g>
<g style="fill:#000000; fill-opacity:1.0; 
stroke:#000000; stroke-width:0; stroke-opacity:1; 
stroke-linecap:round; stroke-linejoin:round;">
<circle cx="61161.4" cy="47815" r="344.488" /> 
</g>
<g style="fill:#000000; fill-opacity:1.0; 
stroke:#000000; stroke-width:39.3701; stroke-opacity:1; 
stroke-linecap:round; stroke-linejoin:round;">
</g>
<g style="fill:#000000; fill-opacity:1.0; 
stroke:#000000; stroke-width:0; stroke-opacity:1; 
stroke-linecap:round; stroke-linejoin:round;">
<circle cx="62933.1" cy="47815" r="344.488" /> 
</g>
<g style="fill:#000000; fill-opacity:1.0; 
stroke:#000000; stroke-width:39.3701; stroke-opacity:1; 
stroke-linecap:round; stroke-linejoin:round;">
</g>
<g style="fill:#000000; fill-opacity:1.0; 
stroke:#000000; stroke-width:0; stroke-opacity:1; 
stroke-linecap:round; stroke-linejoin:round;">
<circle cx="63425.2" cy="46834.6" r="413.386" /> 
</g>
<g style="fill:#000000; fill-opacity:1.0; 
stroke:#000000; stroke-width:39.3701; stroke-opacity:1; 
stroke-linecap:round; stroke-linejoin:round;">
</g>
<g style="fill:#000000; fill-opacity:1.0; 
stroke:#000000; stroke-width:0; stroke-opacity:1; 
stroke-linecap:round; stroke-linejoin:round;">
<circle cx="66401.6" cy="43507.9" r="413.386" /> 
</g>
<g style="fill:#000000; fill-opacity:1.0; 
stroke:#000000; stroke-width:39.3701; stroke-opacity:1; 
stroke-linecap:round; stroke-linejoin:round;">
</g>
<g style="fill:#000000; fill-opacity:1.0; 
stroke:#000000; stroke-width:0; stroke-opacity:1; 
stroke-linecap:round; stroke-linejoin:round;">
<circle cx="67381.9" cy="43011.8" r="344.488" /> 
</g>
<g style="fill:#000000; fill-opacity:1.0; 
stroke:#000000; stroke-width:39.3701; stroke-opacity:1; 
stroke-linecap:round; stroke-linejoin:round;">
</g>
<g style="fill:#000000; fill-opacity:1.0; 
stroke:#000000; stroke-width:0; stroke-opacity:1; 
stroke-linecap:round; stroke-linejoin:round;">
<circle cx="67381.9" cy="41240.2" r="344.488" /> 
</g>
<g style="fill:#000000; fill-opacity:1.0; 
stroke:#000000; stroke-width:39.3701; stroke-opacity:1; 
stroke-linecap:round; stroke-linejoin:round;">
</g>
<g style="fill:#000000; fill-opacity:1.0; 
stroke:#000000; stroke-width:0; stroke-opacity:1; 
stroke-linecap:round; stroke-linejoin:round;">
<circle cx="66401.6" cy="40748" r="413.386" /> 
</g>
<g style="fill:#000000; fill-opacity:1.0; 
stroke:#000000; stroke-width:39.3701; stroke-opacity:1; 
stroke-linecap:round; stroke-linejoin:round;">
</g>
<g style="fill:#000000; fill-opacity:1.0; 
stroke:#000000; stroke-width:0; stroke-opacity:1; 
stroke-linecap:round; stroke-linejoin:round;">
<circle cx="66401.6" cy="47571.9" r="413.386" /> 
</g>
<g style="fill:#000000; fill-opacity:1.0; 
stroke:#000000; stroke-width:39.3701; stroke-opacity:1; 
stroke-linecap:round; stroke-linejoin:round;">
</g>
<g style="fill:#000000; fill-opacity:1.0; 
stroke:#000000; stroke-width:0; stroke-opacity:1; 
stroke-linecap:round; stroke-linejoin:round;">
<circle cx="67381.9" cy="47075.8" r="344.488" /> 
</g>
<g style="fill:#000000; fill-opacity:1.0; 
stroke:#000000; stroke-width:39.3701; stroke-opacity:1; 
stroke-linecap:round; stroke-linejoin:round;">
</g>
<g style="fill:#000000; fill-opacity:1.0; 
stroke:#000000; stroke-width:0; stroke-opacity:1; 
stroke-linecap:round; stroke-linejoin:round;">
<circle cx="67381.9" cy="45304.2" r="344.488" /> 
</g>
<g style="fill:#000000; fill-opacity:1.0; 
stroke:#000000; stroke-width:39.3701; stroke-opacity:1; 
stroke-linecap:round; stroke-linejoin:round;">
</g>
<g style="fill:#000000; fill-opacity:1.0; 
stroke:#000000; stroke-width:0; stroke-opacity:1; 
stroke-linecap:round; stroke-linejoin:round;">
<circle cx="66401.6" cy="44812" r="413.386" /> 
</g>
<g style="fill:#000000; fill-opacity:1.0; 
stroke:#000000; stroke-width:39.3701; stroke-opacity:1; 
stroke-linecap:round; stroke-linejoin:round;">
</g>
<g style="fill:#000000; fill-opacity:1.0; 
stroke:#000000; stroke-width:0; stroke-opacity:1; 
stroke-linecap:round; stroke-linejoin:round;">
<circle cx="66421.3" cy="38311" r="413.386" /> 
</g>
<g style="fill:#000000; fill-opacity:1.0; 
stroke:#000000; stroke-width:39.3701; stroke-opacity:1; 
stroke-linecap:round; stroke-linejoin:round;">
</g>
<g style="fill:#000000; fill-opacity:1.0; 
stroke:#000000; stroke-width:0; stroke-opacity:1; 
stroke-linecap:round; stroke-linejoin:round;">
<circle cx="67401.6" cy="37815" r="344.488" /> 
</g>
<g style="fill:#000000; fill-opacity:1.0; 
stroke:#000000; stroke-width:39.3701; stroke-opacity:1; 
stroke-linecap:round; stroke-linejoin:round;">
</g>
<g style="fill:#000000; fill-opacity:1.0; 
stroke:#000000; stroke-width:0; stroke-opacity:1; 
stroke-linecap:round; stroke-linejoin:round;">
<circle cx="67401.6" cy="36043.3" r="344.488" /> 
</g>
<g style="fill:#000000; fill-opacity:1.0; 
stroke:#000000; stroke-width:39.3701; stroke-opacity:1; 
stroke-linecap:round; stroke-linejoin:round;">
</g>
<g style="fill:#000000; fill-opacity:1.0; 
stroke:#000000; stroke-width:0; stroke-opacity:1; 
stroke-linecap:round; stroke-linejoin:round;">
<circle cx="66421.3" cy="35551.2" r="413.386" /> 
</g>
<g style="fill:#000000; fill-opacity:1.0; 
stroke:#000000; stroke-width:39.3701; stroke-opacity:1; 
stroke-linecap:round; stroke-linejoin:round;">
</g>
<g style="fill:#000000; fill-opacity:1.0; 
stroke:#000000; stroke-width:0; stroke-opacity:1; 
stroke-linecap:round; stroke-linejoin:round;">
<polyline style="fill-rule:evenodd;"
points="58208,46137
58208,46807
57539,46807
57539,46137
58208,46137
" /> 
</g>
<g style="fill:#000000; fill-opacity:1.0; 
stroke:#000000; stroke-width:669.291; stroke-opacity:1; 
stroke-linecap:round; stroke-linejoin:round;">
</g>
<g style="fill:#000000; fill-opacity:0.0; 
stroke:#000000; stroke-width:669.291; stroke-opacity:1; 
stroke-linecap:round; stroke-linejoin:round;">
<path d="M57874 45472
L57874 45472
" />
</g>
<g style="fill:#000000; fill-opacity:0.0; 
stroke:#000000; stroke-width:0; stroke-opacity:1; 
stroke-linecap:round; stroke-linejoin:round;">
</g>
<g style="fill:#000000; fill-opacity:1.0; 
stroke:#000000; stroke-width:0; stroke-opacity:1; 
stroke-linecap:round; stroke-linejoin:round;">
<polyline style="fill-rule:evenodd;"
points="60078,36200
60078,35492
60787,35492
60787,36200
60078,36200
" /> 
<circle cx="61433.1" cy="35846.5" r="354.331" /> 
</g>
<g style="fill:#000000; fill-opacity:1.0; 
stroke:#000000; stroke-width:39.3701; stroke-opacity:1; 
stroke-linecap:round; stroke-linejoin:round;">
</g>
<g style="fill:#000000; fill-opacity:1.0; 
stroke:#000000; stroke-width:0; stroke-opacity:1; 
stroke-linecap:round; stroke-linejoin:round;">
<polyline style="fill-rule:evenodd;"
points="60078,35492
60078,36200
59370,36200
59370,35492
60078,35492
" /> 
<circle cx="58724.4" cy="35846.5" r="354.331" /> 
</g>
<g style="fill:#000000; fill-opacity:1.0; 
stroke:#000000; stroke-width:39.3701; stroke-opacity:1; 
stroke-linecap:round; stroke-linejoin:round;">
</g>
<g style="fill:#000000; fill-opacity:1.0; 
stroke:#000000; stroke-width:0; stroke-opacity:1; 
stroke-linecap:round; stroke-linejoin:round;">
<circle cx="62283.5" cy="40649.6" r="314.961" /> 
</g>
<g style="fill:#000000; fill-opacity:1.0; 
stroke:#000000; stroke-width:39.3701; stroke-opacity:1; 
stroke-linecap:round; stroke-linejoin:round;">
</g>
<g style="fill:#000000; fill-opacity:1.0; 
stroke:#000000; stroke-width:0; stroke-opacity:1; 
stroke-linecap:round; stroke-linejoin:round;">
<circle cx="64409.4" cy="35374" r="314.961" /> 
</g>
<g style="fill:#000000; fill-opacity:1.0; 
stroke:#000000; stroke-width:39.3701; stroke-opacity:1; 
stroke-linecap:round; stroke-linejoin:round;">
</g>
<g style="fill:#000000; fill-opacity:1.0; 
stroke:#000000; stroke-width:0; stroke-opacity:1; 
stroke-linecap:round; stroke-linejoin:round;">
<circle cx="60881.9" cy="44169.3" r="314.961" /> 
</g>
<g style="fill:#000000; fill-opacity:1.0; 
stroke:#000000; stroke-width:39.3701; stroke-opacity:1; 
stroke-linecap:round; stroke-linejoin:round;">
</g>
<g style="fill:#000000; fill-opacity:1.0; 
stroke:#000000; stroke-width:0; stroke-opacity:1; 
stroke-linecap:round; stroke-linejoin:round;">
<circle cx="62106.3" cy="46574.8" r="314.961" /> 
</g>
<g style="fill:#000000; fill-opacity:1.0; 
stroke:#000000; stroke-width:39.3701; stroke-opacity:1; 
stroke-linecap:round; stroke-linejoin:round;">
</g>
<g style="fill:#000000; fill-opacity:1.0; 
stroke:#000000; stroke-width:157.48; stroke-opacity:1; 
stroke-linecap:round; stroke-linejoin:round;">
</g>
<g style="fill:#000000; fill-opacity:0.0; 
stroke:#000000; stroke-width:157.48; stroke-opacity:1; 
stroke-linecap:round; stroke-linejoin:round;">
<path d="M60881 44614
L60881 44169
" />
<path d="M60881 45350
L60881 44614
" />
<path d="M62106 46574
L60881 45350
" />
</g>
<g style="fill:#000000; fill-opacity:1.0; 
stroke:#000000; stroke-width:50; stroke-opacity:1; 
stroke-linecap:round; stroke-linejoin:round;">
<polyline style="fill-rule:evenodd;"
points="68006,48163
63286,48163
63309,48140
63283,48114
63355,48077
63394,47972
66051,47972
66097,48051
66304,48130
66525,48125
66705,48051
66751,47972
66401,47622
66051,47972
63394,47972
63423,47895
63417,47701
63355,47552
63283,47515
62984,47814
62989,47820
62938,47871
62933,47865
62927,47871
62876,47820
62882,47814
62876,47809
62927,47758
62933,47764
63222,47474
65842,47474
65847,47696
65922,47875
66001,47921
66350,47571
66452,47571
66802,47921
66880,47875
66960,47669
66955,47447
66946,47426
67082,47426
67119,47498
67301,47566
67495,47559
67644,47498
67681,47426
67381,47126
67082,47426
66946,47426
66880,47268
66802,47222
66452,47571
66350,47571
66001,47222
65922,47268
65842,47474
63222,47474
63232,47464
63195,47392
63013,47324
62819,47330
62670,47392
62643,47445
62643,47235
63075,47235
63121,47313
63328,47393
63549,47388
63728,47313
63774,47235
63425,46885
63075,47235
62643,47235
62643,46737
62866,46737
62871,46958
62945,47138
63024,47184
63374,46834
63476,46834
63825,47184
63847,47171
66051,47171
66401,47520
66751,47171
66705,47092
66498,47012
66277,47018
66097,47092
66051,47171
63847,47171
63904,47138
63959,46995
66891,46995
66897,47188
66959,47338
67031,47375
67330,47075
67432,47075
67732,47375
67804,47338
67872,47156
67865,46962
67804,46813
67732,46776
67432,47075
67330,47075
67031,46776
66959,46813
66891,46995
63959,46995
63984,46931
63979,46725
67082,46725
67381,47024
67681,46725
67644,46653
67462,46585
67268,46591
67119,46653
67082,46725
63979,46725
63978,46710
63904,46530
63825,46485
63476,46834
63374,46834
63024,46485
62945,46530
62866,46737
62643,46737
62643,46434
63075,46434
63425,46783
63774,46434
63728,46355
63522,46275
63301,46280
63121,46355
63075,46434
62643,46434
62643,45400
66894,45400
66968,45580
67105,45717
67284,45791
67478,45791
67657,45717
67795,45580
67869,45401
67869,45207
67795,45028
67658,44891
67479,44816
67285,44816
67106,44890
66968,45027
66894,45206
66894,45400
62643,45400
62643,45212
66051,45212
66097,45291
66304,45371
66525,45365
66705,45291
66751,45212
66401,44862
66051,45212
62643,45212
62643,44714
65842,44714
65847,44936
65922,45115
66001,45161
66350,44812
66452,44812
66802,45161
66880,45115
66960,44909
66955,44687
66880,44508
66802,44462
66452,44812
66350,44812
66001,44462
65922,44508
65842,44714
62643,44714
62643,44411
66051,44411
66401,44761
66751,44411
66705,44332
66498,44253
66277,44258
66097,44332
66051,44411
62643,44411
62643,44055
62640,44027
62625,43951
62607,43908
66051,43908
66097,43987
66304,44066
66525,44061
66705,43987
66751,43908
66401,43558
66051,43908
62607,43908
62604,43900
62561,43836
62521,43796
62457,43754
62406,43732
62331,43717
62303,43715
60982,43715
60973,43711
60791,43711
60781,43715
60767,43715
60739,43717
60664,43732
60612,43754
60549,43796
60509,43836
60466,43900
60445,43951
60430,44027
60427,44055
60427,44068
60423,44077
60423,44260
60427,44269
60427,46327
60361,46355
60315,46434
60427,46546
60427,46647
60264,46485
60186,46530
60106,46737
60111,46958
60186,47138
60264,47184
60427,47021
60427,47123
60315,47235
60361,47313
60427,47339
60427,48163
56521,48163
56521,46137
57393,46137
57393,46807
57403,46860
57434,46908
57482,46941
57539,46953
58208,46953
58261,46943
58310,46911
58343,46863
58354,46807
58354,46137
58344,46084
58313,46036
58265,46003
58208,45991
57539,45991
57486,46001
57437,46033
57404,46081
57393,46137
56521,46137
56521,45472
57386,45472
57423,45655
57526,45810
57681,45913
57864,45950
57883,45950
58066,45913
58221,45810
58324,45655
58361,45472
58324,45289
58221,45134
58066,45031
57883,44994
57864,44994
57681,45031
57526,45134
57423,45289
57386,45472
56521,45472
56521,43641
57393,43641
57393,44311
57403,44364
57434,44412
57482,44445
57539,44456
58208,44456
58261,44446
58310,44415
58343,44367
58354,44311
58354,43641
58344,43588
58313,43539
58265,43507
58208,43495
57539,43495
57486,43505
57437,43537
57404,43584
57393,43641
56521,43641
56521,43086
57409,43086
57467,43227
57594,43363
57763,43441
57837,43416
57837,43012
57910,43012
57910,43416
57984,43441
58050,43410
65842,43410
65847,43632
65922,43811
66001,43857
66350,43507
66452,43507
66802,43857
66880,43811
66960,43605
66955,43383
66946,43362
67082,43362
67119,43434
67301,43502
67495,43495
67644,43434
67681,43362
67381,43062
67082,43362
66946,43362
66880,43204
66802,43158
66452,43507
66350,43507
66001,43158
65922,43204
65842,43410
58050,43410
58153,43363
58280,43227
58330,43107
66051,43107
66401,43456
66751,43107
66705,43028
66498,42948
66277,42954
66097,43028
66051,43107
58330,43107
58338,43086
58314,43012
57910,43012
57837,43012
57433,43012
57409,43086
56521,43086
56521,42866
57409,42866
57433,42940
57837,42940
57837,42535
57910,42535
57910,42940
58314,42940
58317,42931
66891,42931
66897,43124
66959,43274
67031,43311
67330,43011
67432,43011
67732,43311
67804,43274
67872,43092
67865,42898
67804,42749
67732,42712
67432,43011
67330,43011
67031,42712
66959,42749
66891,42931
58317,42931
58338,42866
58280,42725
58220,42661
67082,42661
67381,42960
67681,42661
67644,42589
67462,42521
67268,42527
67119,42589
67082,42661
58220,42661
58153,42589
57984,42511
57910,42535
57837,42535
57763,42511
57594,42589
57467,42725
57409,42866
56521,42866
56521,41976
57386,41976
57423,42159
57526,42314
57681,42417
57864,42454
57883,42454
58066,42417
58221,42314
58324,42159
58361,41976
58324,41793
58221,41638
58066,41534
57883,41498
57864,41498
57681,41534
57526,41638
57423,41793
57386,41976
56521,41976
56521,41442
57805,41442
57864,41454
57883,41454
57942,41442
64704,41442
64732,41439
64807,41424
64859,41403
64923,41360
64947,41336
66894,41336
66968,41515
67105,41653
67284,41727
67478,41727
67657,41653
67795,41516
67869,41337
67869,41143
67795,40964
67658,40827
67479,40752
67285,40752
67106,40826
66968,40963
66894,41142
66894,41336
64947,41336
64962,41321
65005,41257
65026,41205
65038,41148
66051,41148
66097,41227
66304,41307
66525,41301
66705,41227
66751,41148
66401,40798
66051,41148
65038,41148
65041,41130
65044,41102
65044,40650
65842,40650
65847,40872
65922,41051
66001,41097
66350,40748
66452,40748
66802,41097
66880,41051
66960,40845
66955,40623
66880,40444
66802,40398
66452,40748
66350,40748
66001,40398
65922,40444
65842,40650
65044,40650
65044,40347
66051,40347
66401,40697
66751,40347
66705,40268
66498,40189
66277,40194
66097,40268
66051,40347
65044,40347
65044,38711
66071,38711
66117,38790
66324,38870
66545,38864
66724,38790
66770,38711
66421,38361
66071,38711
65044,38711
65044,38213
65862,38213
65867,38435
65941,38614
66020,38660
66370,38311
66472,38311
66821,38660
66900,38614
66980,38408
66974,38186
66966,38165
67101,38165
67139,38237
67320,38305
67514,38299
67663,38237
67701,38165
67401,37865
67101,38165
66966,38165
66900,38007
66821,37961
66472,38311
66370,38311
66020,37961
65941,38007
65862,38213
65044,38213
65044,37910
66071,37910
66421,38260
66770,37910
66724,37831
66518,37752
66297,37757
66117,37831
66071,37910
65044,37910
65044,37734
66911,37734
66917,37928
66979,38077
67050,38114
67350,37814
67452,37814
67752,38114
67823,38077
67892,37895
67885,37701
67823,37552
67752,37515
67452,37814
67350,37814
67050,37515
66979,37552
66911,37734
65044,37734
65044,37464
67101,37464
67401,37764
67701,37464
67663,37392
67482,37324
67288,37330
67139,37392
67101,37464
65044,37464
65044,36139
66913,36139
66987,36319
67125,36456
67304,36530
67498,36530
67677,36456
67814,36319
67889,36140
67889,35946
67815,35767
67678,35630
67498,35555
67305,35555
67125,35629
66988,35766
66914,35945
66913,36139
65044,36139
65044,35951
66071,35951
66117,36030
66324,36110
66545,36104
66724,36030
66770,35951
66421,35602
66071,35951
65044,35951
65044,35454
65862,35454
65867,35675
65941,35854
66020,35900
66370,35551
66472,35551
66821,35900
66900,35854
66980,35648
66974,35427
66900,35247
66821,35201
66472,35551
66370,35551
66020,35201
65941,35247
65862,35454
65044,35454
65044,35150
66071,35150
66421,35500
66770,35150
66724,35071
66518,34992
66297,34997
66117,35071
66071,35150
65044,35150
65044,34316
68006,34316
68006,48163
" /> 
<polyline style="fill-rule:evenodd;"
points="64876,41099
64863,41167
64825,41223
64770,41260
64702,41274
58247,41274
58324,41159
58361,40976
58324,40793
58221,40638
58066,40534
57883,40498
57864,40498
57681,40534
57526,40638
57423,40793
57386,40976
57423,41159
57500,41274
56521,41274
56521,39976
57386,39976
57423,40159
57526,40314
57681,40417
57864,40454
57883,40454
58066,40417
58221,40314
58324,40159
58361,39976
58324,39793
58221,39638
58066,39534
57883,39498
57864,39498
57681,39534
57526,39638
57423,39793
57386,39976
56521,39976
56521,38976
57386,38976
57423,39159
57526,39314
57681,39417
57864,39454
57883,39454
58066,39417
58221,39314
58324,39159
58361,38976
58324,38793
58221,38638
58066,38534
57883,38498
57864,38498
57681,38534
57526,38638
57423,38793
57386,38976
56521,38976
56521,37976
57386,37976
57423,38159
57526,38314
57681,38417
57864,38454
57883,38454
58066,38417
58221,38314
58324,38159
58361,37976
58324,37793
58221,37638
58066,37534
57883,37498
57864,37498
57681,37534
57526,37638
57423,37793
57386,37976
56521,37976
56521,36976
57386,36976
57423,37159
57526,37314
57681,37417
57864,37454
57883,37454
58066,37417
58221,37314
58324,37159
58361,36976
58324,36793
58221,36638
58066,36534
57883,36498
57864,36498
57681,36534
57526,36638
57423,36793
57386,36976
56521,36976
56521,35944
58226,35944
58302,36127
58442,36267
58625,36343
58822,36343
59005,36268
59145,36128
59221,35945
59221,35747
59146,35565
59073,35492
59224,35492
59224,36200
59234,36253
59265,36302
59313,36335
59370,36346
60787,36346
60840,36336
60889,36305
60921,36257
60933,36200
60933,35944
60935,35944
61011,36127
61150,36267
61333,36343
61531,36343
61714,36268
61854,36128
61930,35945
61930,35747
61855,35565
61715,35424
61532,35349
61334,35348
61151,35424
61011,35564
60935,35747
60935,35944
60933,35944
60933,35492
60923,35439
60891,35390
60844,35357
60787,35346
59370,35346
59317,35356
59268,35387
59235,35435
59224,35492
59073,35492
59006,35424
58823,35349
58625,35348
58443,35424
58302,35564
58227,35747
58226,35944
56521,35944
56521,34316
64876,34316
64876,41099
" /> 
<polyline style="fill-rule:evenodd;"
points="62368,43896
62424,43933
62461,43989
62475,44057
62475,47646
62445,47717
62445,47911
62475,47983
62475,48163
61501,48163
61574,48091
61648,47912
61649,47718
61575,47539
61437,47401
61258,47327
61064,47327
60885,47401
60748,47538
60673,47717
60673,47911
60747,48090
60820,48163
60595,48163
60595,47391
60775,47391
60980,47306
61136,47150
61221,46945
61221,46724
61137,46519
60980,46363
60776,46278
60595,46278
60595,44057
60609,43989
60646,43933
60702,43896
60770,43883
62300,43883
62368,43896
" /> 
</g>
<g style="fill:#FFFFFF; fill-opacity:1.0; 
stroke:#FFFFFF; stroke-width:50; stroke-opacity:1; 
stroke-linecap:round; stroke-linejoin:round;">
</g>
<g style="fill:#FFFFFF; fill-opacity:1.0; 
stroke:#FFFFFF; stroke-width:0; stroke-opacity:1; 
stroke-linecap:round; stroke-linejoin:round;">
<circle cx="62283.5" cy="40649.6" r="68.8976" /> 
</g>
<g style="fill:#FFFFFF; fill-opacity:1.0; 
stroke:#FFFFFF; stroke-width:39.3701; stroke-opacity:1; 
stroke-linecap:round; stroke-linejoin:round;">
</g>
<g style="fill:#FFFFFF; fill-opacity:1.0; 
stroke:#FFFFFF; stroke-width:0; stroke-opacity:1; 
stroke-linecap:round; stroke-linejoin:round;">
<circle cx="64409.4" cy="35374" r="68.8976" /> 
</g>
<g style="fill:#FFFFFF; fill-opacity:1.0; 
stroke:#FFFFFF; stroke-width:39.3701; stroke-opacity:1; 
stroke-linecap:round; stroke-linejoin:round;">
</g>
<g style="fill:#FFFFFF; fill-opacity:1.0; 
stroke:#FFFFFF; stroke-width:0; stroke-opacity:1; 
stroke-linecap:round; stroke-linejoin:round;">
<circle cx="60881.9" cy="44169.3" r="68.8976" /> 
</g>
<g style="fill:#FFFFFF; fill-opacity:1.0; 
stroke:#FFFFFF; stroke-width:39.3701; stroke-opacity:1; 
stroke-linecap:round; stroke-linejoin:round;">
</g>
<g style="fill:#FFFFFF; fill-opacity:1.0; 
stroke:#FFFFFF; stroke-width:0; stroke-opacity:1; 
stroke-linecap:round; stroke-linejoin:round;">
<circle cx="62106.3" cy="46574.8" r="68.8976" /> 
</g>
<g style="fill:#FFFFFF; fill-opacity:1.0; 
stroke:#FFFFFF; stroke-width:39.3701; stroke-opacity:1; 
stroke-linecap:round; stroke-linejoin:round;">
</g>
<g style="fill:#FFFFFF; fill-opacity:1.0; 
stroke:#FFFFFF; stroke-width:0; stroke-opacity:1; 
stroke-linecap:round; stroke-linejoin:round;">
<circle cx="57874" cy="43976.4" r="68.8976" /> 
</g>
<g style="fill:#FFFFFF; fill-opacity:1.0; 
stroke:#FFFFFF; stroke-width:39.3701; stroke-opacity:1; 
stroke-linecap:round; stroke-linejoin:round;">
</g>
<g style="fill:#FFFFFF; fill-opacity:1.0; 
stroke:#FFFFFF; stroke-width:0; stroke-opacity:1; 
stroke-linecap:round; stroke-linejoin:round;">
<circle cx="57874" cy="42976.4" r="68.8976" /> 
</g>
<g style="fill:#FFFFFF; fill-opacity:1.0; 
stroke:#FFFFFF; stroke-width:39.3701; stroke-opacity:1; 
stroke-linecap:round; stroke-linejoin:round;">
</g>
<g style="fill:#FFFFFF; fill-opacity:1.0; 
stroke:#FFFFFF; stroke-width:0; stroke-opacity:1; 
stroke-linecap:round; stroke-linejoin:round;">
<circle cx="57874" cy="41976.4" r="68.8976" /> 
</g>
<g style="fill:#FFFFFF; fill-opacity:1.0; 
stroke:#FFFFFF; stroke-width:39.3701; stroke-opacity:1; 
stroke-linecap:round; stroke-linejoin:round;">
</g>
<g style="fill:#FFFFFF; fill-opacity:1.0; 
stroke:#FFFFFF; stroke-width:0; stroke-opacity:1; 
stroke-linecap:round; stroke-linejoin:round;">
<circle cx="57874" cy="40976.4" r="68.8976" /> 
</g>
<g style="fill:#FFFFFF; fill-opacity:1.0; 
stroke:#FFFFFF; stroke-width:39.3701; stroke-opacity:1; 
stroke-linecap:round; stroke-linejoin:round;">
</g>
<g style="fill:#FFFFFF; fill-opacity:1.0; 
stroke:#FFFFFF; stroke-width:0; stroke-opacity:1; 
stroke-linecap:round; stroke-linejoin:round;">
<circle cx="57874" cy="39976.4" r="68.8976" /> 
</g>
<g style="fill:#FFFFFF; fill-opacity:1.0; 
stroke:#FFFFFF; stroke-width:39.3701; stroke-opacity:1; 
stroke-linecap:round; stroke-linejoin:round;">
</g>
<g style="fill:#FFFFFF; fill-opacity:1.0; 
stroke:#FFFFFF; stroke-width:0; stroke-opacity:1; 
stroke-linecap:round; stroke-linejoin:round;">
<circle cx="57874" cy="38976.4" r="68.8976" /> 
</g>
<g style="fill:#FFFFFF; fill-opacity:1.0; 
stroke:#FFFFFF; stroke-width:39.3701; stroke-opacity:1; 
stroke-linecap:round; stroke-linejoin:round;">
</g>
<g style="fill:#FFFFFF; fill-opacity:1.0; 
stroke:#FFFFFF; stroke-width:0; stroke-opacity:1; 
stroke-linecap:round; stroke-linejoin:round;">
<circle cx="57874" cy="37976.4" r="68.8976" /> 
</g>
<g style="fill:#FFFFFF; fill-opacity:1.0; 
stroke:#FFFFFF; stroke-width:39.3701; stroke-opacity:1; 
stroke-linecap:round; stroke-linejoin:round;">
</g>
<g style="fill:#FFFFFF; fill-opacity:1.0; 
stroke:#FFFFFF; stroke-width:0; stroke-opacity:1; 
stroke-linecap:round; stroke-linejoin:round;">
<circle cx="57874" cy="36976.4" r="68.8976" /> 
</g>
<g style="fill:#FFFFFF; fill-opacity:1.0; 
stroke:#FFFFFF; stroke-width:39.3701; stroke-opacity:1; 
stroke-linecap:round; stroke-linejoin:round;">
</g>
<g style="fill:#FFFFFF; fill-opacity:1.0; 
stroke:#FFFFFF; stroke-width:0; stroke-opacity:1; 
stroke-linecap:round; stroke-linejoin:round;">
<circle cx="60665.4" cy="46834.6" r="68.8976" /> 
</g>
<g style="fill:#FFFFFF; fill-opacity:1.0; 
stroke:#FFFFFF; stroke-width:39.3701; stroke-opacity:1; 
stroke-linecap:round; stroke-linejoin:round;">
</g>
<g style="fill:#FFFFFF; fill-opacity:1.0; 
stroke:#FFFFFF; stroke-width:0; stroke-opacity:1; 
stroke-linecap:round; stroke-linejoin:round;">
<circle cx="61161.4" cy="47815" r="68.8976" /> 
</g>
<g style="fill:#FFFFFF; fill-opacity:1.0; 
stroke:#FFFFFF; stroke-width:39.3701; stroke-opacity:1; 
stroke-linecap:round; stroke-linejoin:round;">
</g>
<g style="fill:#FFFFFF; fill-opacity:1.0; 
stroke:#FFFFFF; stroke-width:0; stroke-opacity:1; 
stroke-linecap:round; stroke-linejoin:round;">
<circle cx="62933.1" cy="47815" r="68.8976" /> 
</g>
<g style="fill:#FFFFFF; fill-opacity:1.0; 
stroke:#FFFFFF; stroke-width:39.3701; stroke-opacity:1; 
stroke-linecap:round; stroke-linejoin:round;">
</g>
<g style="fill:#FFFFFF; fill-opacity:1.0; 
stroke:#FFFFFF; stroke-width:0; stroke-opacity:1; 
stroke-linecap:round; stroke-linejoin:round;">
<circle cx="63425.2" cy="46834.6" r="68.8976" /> 
</g>
<g style="fill:#FFFFFF; fill-opacity:1.0; 
stroke:#FFFFFF; stroke-width:39.3701; stroke-opacity:1; 
stroke-linecap:round; stroke-linejoin:round;">
</g>
<g style="fill:#FFFFFF; fill-opacity:1.0; 
stroke:#FFFFFF; stroke-width:0; stroke-opacity:1; 
stroke-linecap:round; stroke-linejoin:round;">
<circle cx="66401.6" cy="43507.9" r="68.8976" /> 
</g>
<g style="fill:#FFFFFF; fill-opacity:1.0; 
stroke:#FFFFFF; stroke-width:39.3701; stroke-opacity:1; 
stroke-linecap:round; stroke-linejoin:round;">
</g>
<g style="fill:#FFFFFF; fill-opacity:1.0; 
stroke:#FFFFFF; stroke-width:0; stroke-opacity:1; 
stroke-linecap:round; stroke-linejoin:round;">
<circle cx="67381.9" cy="43011.8" r="68.8976" /> 
</g>
<g style="fill:#FFFFFF; fill-opacity:1.0; 
stroke:#FFFFFF; stroke-width:39.3701; stroke-opacity:1; 
stroke-linecap:round; stroke-linejoin:round;">
</g>
<g style="fill:#FFFFFF; fill-opacity:1.0; 
stroke:#FFFFFF; stroke-width:0; stroke-opacity:1; 
stroke-linecap:round; stroke-linejoin:round;">
<circle cx="67381.9" cy="41240.2" r="68.8976" /> 
</g>
<g style="fill:#FFFFFF; fill-opacity:1.0; 
stroke:#FFFFFF; stroke-width:39.3701; stroke-opacity:1; 
stroke-linecap:round; stroke-linejoin:round;">
</g>
<g style="fill:#FFFFFF; fill-opacity:1.0; 
stroke:#FFFFFF; stroke-width:0; stroke-opacity:1; 
stroke-linecap:round; stroke-linejoin:round;">
<circle cx="66401.6" cy="40748" r="68.8976" /> 
</g>
<g style="fill:#FFFFFF; fill-opacity:1.0; 
stroke:#FFFFFF; stroke-width:39.3701; stroke-opacity:1; 
stroke-linecap:round; stroke-linejoin:round;">
</g>
<g style="fill:#FFFFFF; fill-opacity:1.0; 
stroke:#FFFFFF; stroke-width:0; stroke-opacity:1; 
stroke-linecap:round; stroke-linejoin:round;">
<circle cx="66401.6" cy="47571.9" r="68.8976" /> 
</g>
<g style="fill:#FFFFFF; fill-opacity:1.0; 
stroke:#FFFFFF; stroke-width:39.3701; stroke-opacity:1; 
stroke-linecap:round; stroke-linejoin:round;">
</g>
<g style="fill:#FFFFFF; fill-opacity:1.0; 
stroke:#FFFFFF; stroke-width:0; stroke-opacity:1; 
stroke-linecap:round; stroke-linejoin:round;">
<circle cx="67381.9" cy="47075.8" r="68.8976" /> 
</g>
<g style="fill:#FFFFFF; fill-opacity:1.0; 
stroke:#FFFFFF; stroke-width:39.3701; stroke-opacity:1; 
stroke-linecap:round; stroke-linejoin:round;">
</g>
<g style="fill:#FFFFFF; fill-opacity:1.0; 
stroke:#FFFFFF; stroke-width:0; stroke-opacity:1; 
stroke-linecap:round; stroke-linejoin:round;">
<circle cx="67381.9" cy="45304.2" r="68.8976" /> 
</g>
<g style="fill:#FFFFFF; fill-opacity:1.0; 
stroke:#FFFFFF; stroke-width:39.3701; stroke-opacity:1; 
stroke-linecap:round; stroke-linejoin:round;">
</g>
<g style="fill:#FFFFFF; fill-opacity:1.0; 
stroke:#FFFFFF; stroke-width:0; stroke-opacity:1; 
stroke-linecap:round; stroke-linejoin:round;">
<circle cx="66401.6" cy="44812" r="68.8976" /> 
</g>
<g style="fill:#FFFFFF; fill-opacity:1.0; 
stroke:#FFFFFF; stroke-width:39.3701; stroke-opacity:1; 
stroke-linecap:round; stroke-linejoin:round;">
</g>
<g style="fill:#FFFFFF; fill-opacity:1.0; 
stroke:#FFFFFF; stroke-width:0; stroke-opacity:1; 
stroke-linecap:round; stroke-linejoin:round;">
<circle cx="66421.3" cy="38311" r="68.8976" /> 
</g>
<g style="fill:#FFFFFF; fill-opacity:1.0; 
stroke:#FFFFFF; stroke-width:39.3701; stroke-opacity:1; 
stroke-linecap:round; stroke-linejoin:round;">
</g>
<g style="fill:#FFFFFF; fill-opacity:1.0; 
stroke:#FFFFFF; stroke-width:0; stroke-opacity:1; 
stroke-linecap:round; stroke-linejoin:round;">
<circle cx="67401.6" cy="37815" r="68.8976" /> 
</g>
<g style="fill:#FFFFFF; fill-opacity:1.0; 
stroke:#FFFFFF; stroke-width:39.3701; stroke-opacity:1; 
stroke-linecap:round; stroke-linejoin:round;">
</g>
<g style="fill:#FFFFFF; fill-opacity:1.0; 
stroke:#FFFFFF; stroke-width:0; stroke-opacity:1; 
stroke-linecap:round; stroke-linejoin:round;">
<circle cx="67401.6" cy="36043.3" r="68.8976" /> 
</g>
<g style="fill:#FFFFFF; fill-opacity:1.0; 
stroke:#FFFFFF; stroke-width:39.3701; stroke-opacity:1; 
stroke-linecap:round; stroke-linejoin:round;">
</g>
<g style="fill:#FFFFFF; fill-opacity:1.0; 
stroke:#FFFFFF; stroke-width:0; stroke-opacity:1; 
stroke-linecap:round; stroke-linejoin:round;">
<circle cx="66421.3" cy="35551.2" r="68.8976" /> 
</g>
<g style="fill:#FFFFFF; fill-opacity:1.0; 
stroke:#FFFFFF; stroke-width:39.3701; stroke-opacity:1; 
stroke-linecap:round; stroke-linejoin:round;">
</g>
<g style="fill:#FFFFFF; fill-opacity:1.0; 
stroke:#FFFFFF; stroke-width:0; stroke-opacity:1; 
stroke-linecap:round; stroke-linejoin:round;">
<circle cx="57874" cy="46472.4" r="68.8976" /> 
</g>
<g style="fill:#FFFFFF; fill-opacity:1.0; 
stroke:#FFFFFF; stroke-width:39.3701; stroke-opacity:1; 
stroke-linecap:round; stroke-linejoin:round;">
</g>
<g style="fill:#FFFFFF; fill-opacity:1.0; 
stroke:#FFFFFF; stroke-width:0; stroke-opacity:1; 
stroke-linecap:round; stroke-linejoin:round;">
<circle cx="57874" cy="45472.4" r="68.8976" /> 
</g>
<g style="fill:#FFFFFF; fill-opacity:1.0; 
stroke:#FFFFFF; stroke-width:39.3701; stroke-opacity:1; 
stroke-linecap:round; stroke-linejoin:round;">
</g>
<g style="fill:#FFFFFF; fill-opacity:1.0; 
stroke:#FFFFFF; stroke-width:0; stroke-opacity:1; 
stroke-linecap:round; stroke-linejoin:round;">
<circle cx="60433.1" cy="35846.5" r="68.8976" /> 
</g>
<g style="fill:#FFFFFF; fill-opacity:1.0; 
stroke:#FFFFFF; stroke-width:39.3701; stroke-opacity:1; 
stroke-linecap:round; stroke-linejoin:round;">
</g>
<g style="fill:#FFFFFF; fill-opacity:1.0; 
stroke:#FFFFFF; stroke-width:0; stroke-opacity:1; 
stroke-linecap:round; stroke-linejoin:round;">
<circle cx="61433.1" cy="35846.5" r="68.8976" /> 
</g>
<g style="fill:#FFFFFF; fill-opacity:1.0; 
stroke:#FFFFFF; stroke-width:39.3701; stroke-opacity:1; 
stroke-linecap:round; stroke-linejoin:round;">
</g>
<g style="fill:#FFFFFF; fill-opacity:1.0; 
stroke:#FFFFFF; stroke-width:0; stroke-opacity:1; 
stroke-linecap:round; stroke-linejoin:round;">
<circle cx="59724.4" cy="35846.5" r="68.8976" /> 
</g>
<g style="fill:#FFFFFF; fill-opacity:1.0; 
stroke:#FFFFFF; stroke-width:39.3701; stroke-opacity:1; 
stroke-linecap:round; stroke-linejoin:round;">
</g>
<g style="fill:#FFFFFF; fill-opacity:1.0; 
stroke:#FFFFFF; stroke-width:0; stroke-opacity:1; 
stroke-linecap:round; stroke-linejoin:round;">
<circle cx="58724.4" cy="35846.5" r="68.8976" /> 
</g>
<g style="fill:#FFFFFF; fill-opacity:1.0; 
stroke:#FFFFFF; stroke-width:39.3701; stroke-opacity:1; 
stroke-linecap:round; stroke-linejoin:round;">
</g>
<g style="fill:#000000; fill-opacity:1.0; 
stroke:#000000; stroke-width:39.3701; stroke-opacity:1; 
stroke-linecap:round; stroke-linejoin:round;">
</g> 
</svg>
