  0
SECTION
  2
HEADER
  9
$ANGBASE
  50
0.0
  9
$ANGDIR
  70
  1
  9
$MEASUREMENT
  70
0
  0
ENDSEC
  0
SECTION
  2
TABLES
  0
TABLE
  2
LTYPE
  70
1
  0
LTYPE
  2
CONTINUOUS
  70
0
  3
Solid line
  72
65
  73
0
  40
0.0
  0
ENDTAB
  0
TABLE
  2
STYLE
  70
4
  0
STYLE
  2
KICAD
  70
0
  40
0
  41
1
  42
1
  50
0
  71
0
  3
isocp.shx
  0
STYLE
  2
KICADB
  70
0
  40
0
  41
1
  42
1
  50
0
  71
0
  3
isocp.shx
  0
STYLE
  2
KICADI
  70
0
  40
0
  41
1
  42
1
  50
15
  71
0
  3
isocp.shx
  0
STYLE
  2
KICADBI
  70
0
  40
0
  41
1
  42
1
  50
15
  71
0
  3
isocp.shx
  0
ENDTAB
  0
TABLE
  2
LAYER
  70
30
  0
LAYER
  2
BLACK
  70
0
  62
7
  6
CONTINUOUS
  0
LAYER
  2
GRAY1
  70
0
  62
251
  6
CONTINUOUS
  0
LAYER
  2
GRAY2
  70
0
  62
8
  6
CONTINUOUS
  0
LAYER
  2
GRAY3
  70
0
  62
9
  6
CONTINUOUS
  0
LAYER
  2
WHITE
  70
0
  62
7
  6
CONTINUOUS
  0
LAYER
  2
LYELLOW
  70
0
  62
51
  6
CONTINUOUS
  0
LAYER
  2
BLUE1
  70
0
  62
178
  6
CONTINUOUS
  0
LAYER
  2
GREEN1
  70
0
  62
98
  6
CONTINUOUS
  0
LAYER
  2
CYAN1
  70
0
  62
138
  6
CONTINUOUS
  0
LAYER
  2
RED1
  70
0
  62
18
  6
CONTINUOUS
  0
LAYER
  2
MAGENTA1
  70
0
  62
228
  6
CONTINUOUS
  0
LAYER
  2
BROWN1
  70
0
  62
58
  6
CONTINUOUS
  0
LAYER
  2
BLUE2
  70
0
  62
5
  6
CONTINUOUS
  0
LAYER
  2
GREEN2
  70
0
  62
3
  6
CONTINUOUS
  0
LAYER
  2
CYAN2
  70
0
  62
4
  6
CONTINUOUS
  0
LAYER
  2
RED2
  70
0
  62
1
  6
CONTINUOUS
  0
LAYER
  2
MAGENTA2
  70
0
  62
6
  6
CONTINUOUS
  0
LAYER
  2
BROWN2
  70
0
  62
54
  6
CONTINUOUS
  0
LAYER
  2
BLUE3
  70
0
  62
171
  6
CONTINUOUS
  0
LAYER
  2
GREEN3
  70
0
  62
91
  6
CONTINUOUS
  0
LAYER
  2
CYAN3
  70
0
  62
131
  6
CONTINUOUS
  0
LAYER
  2
RED3
  70
0
  62
11
  6
CONTINUOUS
  0
LAYER
  2
MAGENTA3
  70
0
  62
221
  6
CONTINUOUS
  0
LAYER
  2
YELLOW3
  70
0
  62
2
  6
CONTINUOUS
  0
LAYER
  2
BLUE4
  70
0
  62
5
  6
CONTINUOUS
  0
LAYER
  2
GREEN4
  70
0
  62
3
  6
CONTINUOUS
  0
LAYER
  2
CYAN4
  70
0
  62
4
  6
CONTINUOUS
  0
LAYER
  2
RED4
  70
0
  62
1
  6
CONTINUOUS
  0
LAYER
  2
MAGENTA4
  70
0
  62
6
  6
CONTINUOUS
  0
LAYER
  2
YELLOW4
  70
0
  62
2
  6
CONTINUOUS
  0
ENDTAB
  0
ENDSEC
  0
SECTION
  2
ENTITIES
0
LINE
8
Black
10
143.2
20
-122.75
11
143.2
21
-86.75
0
LINE
8
Black
10
143.1
20
-122.75
11
143.1
21
-86.75
0
ARC
8
Black
10
143.15
20
-86.75
40
0.05
50
360
51
540
0
ARC
8
Black
10
143.15
20
-122.75
40
0.05
50
180
51
360
0
LINE
8
Black
10
143.15
20
-122.8
11
173.15
21
-122.8
0
LINE
8
Black
10
143.15
20
-122.7
11
173.15
21
-122.7
0
ARC
8
Black
10
173.15
20
-122.75
40
0.05
50
270
51
450
0
ARC
8
Black
10
143.15
20
-122.75
40
0.05
50
90
51
270
0
LINE
8
Black
10
173.2
20
-122.75
11
173.2
21
-86.75
0
LINE
8
Black
10
173.1
20
-122.75
11
173.1
21
-86.75
0
ARC
8
Black
10
173.15
20
-86.75
40
0.05
50
360
51
540
0
ARC
8
Black
10
173.15
20
-122.75
40
0.05
50
180
51
360
0
LINE
8
Black
10
143.15
20
-86.8
11
173.15
21
-86.8
0
LINE
8
Black
10
143.15
20
-86.7
11
173.15
21
-86.7
0
ARC
8
Black
10
173.15
20
-86.75
40
0.05
50
270
51
450
0
ARC
8
Black
10
143.15
20
-86.75
40
0.05
50
90
51
270
0
LINE
8
Black
10
154.24
20
-111.79
11
155.04
21
-112.59
0
LINE
8
Black
10
155.04
20
-111.79
11
154.24
21
-112.59
0
LINE
8
Black
10
157.35
20
-117.9
11
158.15
21
-118.7
0
LINE
8
Black
10
158.15
20
-117.9
11
157.35
21
-118.7
0
LINE
8
Black
10
157.8
20
-102.85
11
158.6
21
-103.65
0
LINE
8
Black
10
158.6
20
-102.85
11
157.8
21
-103.65
0
LINE
8
Black
10
163.2
20
-89.45
11
164
21
-90.25
0
LINE
8
Black
10
164
20
-89.45
11
163.2
21
-90.25
0
CIRCLE
8
Black
10
149.16
20
-91.05
40
0.45
0
CIRCLE
8
Black
10
151.7
20
-91.05
40
0.45
0
CIRCLE
8
Black
10
153.5
20
-91.05
40
0.45
0
CIRCLE
8
Black
10
156.04
20
-91.05
40
0.45
0
LINE
8
Black
10
155.35
20
-120.955
11
155.35
21
-121.945
0
LINE
8
Black
10
154.855
20
-121.45
11
155.845
21
-121.45
0
LINE
8
Black
10
159.85
20
-120.955
11
159.85
21
-121.945
0
LINE
8
Black
10
159.355
20
-121.45
11
160.345
21
-121.45
0
LINE
8
Black
10
171.15
20
-114.578
11
171.15
21
-115.568
0
LINE
8
Black
10
170.655
20
-115.073
11
171.645
21
-115.073
0
LINE
8
Black
10
171.15
20
-119.078
11
171.15
21
-120.068
0
LINE
8
Black
10
170.655
20
-119.573
11
171.645
21
-119.573
0
LINE
8
Black
10
171.15
20
-104.255
11
171.15
21
-105.245
0
LINE
8
Black
10
170.655
20
-104.75
11
171.645
21
-104.75
0
LINE
8
Black
10
171.15
20
-108.755
11
171.15
21
-109.745
0
LINE
8
Black
10
170.655
20
-109.25
11
171.645
21
-109.25
0
LINE
8
Black
10
171.2
20
-91.055
11
171.2
21
-92.045
0
LINE
8
Black
10
170.705
20
-91.55
11
171.695
21
-91.55
0
LINE
8
Black
10
171.2
20
-95.555
11
171.2
21
-96.545
0
LINE
8
Black
10
170.705
20
-96.05
11
171.695
21
-96.05
0
LINE
8
Black
10
147.354
20
-94.2736
11
147.354
21
-93.5664
0
LINE
8
Black
10
147.354
20
-93.5664
11
146.646
21
-93.5664
0
LINE
8
Black
10
146.646
20
-93.5664
11
146.646
21
-94.2736
0
LINE
8
Black
10
146.646
20
-94.2736
11
147.354
21
-94.2736
0
LINE
8
Black
10
147.354
20
-96.8136
11
147.354
21
-96.1064
0
LINE
8
Black
10
147.354
20
-96.1064
11
146.646
21
-96.1064
0
LINE
8
Black
10
146.646
20
-96.1064
11
146.646
21
-96.8136
0
LINE
8
Black
10
146.646
20
-96.8136
11
147.354
21
-96.8136
0
LINE
8
Black
10
147.354
20
-99.3536
11
147.354
21
-98.6464
0
LINE
8
Black
10
147.354
20
-98.6464
11
146.646
21
-98.6464
0
LINE
8
Black
10
146.646
20
-98.6464
11
146.646
21
-99.3536
0
LINE
8
Black
10
146.646
20
-99.3536
11
147.354
21
-99.3536
0
LINE
8
Black
10
147.354
20
-101.894
11
147.354
21
-101.186
0
LINE
8
Black
10
147.354
20
-101.186
11
146.646
21
-101.186
0
LINE
8
Black
10
146.646
20
-101.186
11
146.646
21
-101.894
0
LINE
8
Black
10
146.646
20
-101.894
11
147.354
21
-101.894
0
LINE
8
Black
10
147.354
20
-104.434
11
147.354
21
-103.726
0
LINE
8
Black
10
147.354
20
-103.726
11
146.646
21
-103.726
0
LINE
8
Black
10
146.646
20
-103.726
11
146.646
21
-104.434
0
LINE
8
Black
10
146.646
20
-104.434
11
147.354
21
-104.434
0
LINE
8
Black
10
147.354
20
-106.974
11
147.354
21
-106.266
0
LINE
8
Black
10
147.354
20
-106.266
11
146.646
21
-106.266
0
LINE
8
Black
10
146.646
20
-106.266
11
146.646
21
-106.974
0
LINE
8
Black
10
146.646
20
-106.974
11
147.354
21
-106.974
0
LINE
8
Black
10
147.354
20
-109.514
11
147.354
21
-108.806
0
LINE
8
Black
10
147.354
20
-108.806
11
146.646
21
-108.806
0
LINE
8
Black
10
146.646
20
-108.806
11
146.646
21
-109.514
0
LINE
8
Black
10
146.646
20
-109.514
11
147.354
21
-109.514
0
LINE
8
Black
10
147.354
20
-112.054
11
147.354
21
-111.346
0
LINE
8
Black
10
147.354
20
-111.346
11
146.646
21
-111.346
0
LINE
8
Black
10
146.646
20
-111.346
11
146.646
21
-112.054
0
LINE
8
Black
10
146.646
20
-112.054
11
147.354
21
-112.054
0
LINE
8
Black
10
147.354
20
-115.854
11
147.354
21
-115.146
0
LINE
8
Black
10
147.354
20
-115.146
11
146.646
21
-115.146
0
LINE
8
Black
10
146.646
20
-115.146
11
146.646
21
-115.854
0
LINE
8
Black
10
146.646
20
-115.854
11
147.354
21
-115.854
0
LINE
8
Black
10
147.354
20
-118.394
11
147.354
21
-117.686
0
LINE
8
Black
10
147.354
20
-117.686
11
146.646
21
-117.686
0
LINE
8
Black
10
146.646
20
-117.686
11
146.646
21
-118.394
0
LINE
8
Black
10
146.646
20
-118.394
11
147.354
21
-118.394
0
LINE
8
Black
10
154.09
20
-119.61
11
154.74
21
-118.96
0
LINE
8
Black
10
154.74
20
-118.96
11
154.09
21
-118.31
0
LINE
8
Black
10
154.09
20
-118.31
11
153.44
21
-118.96
0
LINE
8
Black
10
153.44
20
-118.96
11
154.09
21
-119.61
0
LINE
8
Black
10
161.1
20
-119.61
11
161.75
21
-118.96
0
LINE
8
Black
10
161.75
20
-118.96
11
161.1
21
-118.31
0
LINE
8
Black
10
161.1
20
-118.31
11
160.45
21
-118.96
0
LINE
8
Black
10
160.45
20
-118.96
11
161.1
21
-119.61
0
LINE
8
Black
10
168.66
20
-114.473
11
169.31
21
-113.823
0
LINE
8
Black
10
169.31
20
-113.823
11
168.66
21
-113.173
0
LINE
8
Black
10
168.66
20
-113.173
11
168.01
21
-113.823
0
LINE
8
Black
10
168.01
20
-113.823
11
168.66
21
-114.473
0
LINE
8
Black
10
168.66
20
-121.483
11
169.31
21
-120.833
0
LINE
8
Black
10
169.31
20
-120.833
11
168.66
21
-120.183
0
LINE
8
Black
10
168.66
20
-120.183
11
168.01
21
-120.833
0
LINE
8
Black
10
168.01
20
-120.833
11
168.66
21
-121.483
0
LINE
8
Black
10
168.66
20
-104.15
11
169.31
21
-103.5
0
LINE
8
Black
10
169.31
20
-103.5
11
168.66
21
-102.85
0
LINE
8
Black
10
168.66
20
-102.85
11
168.01
21
-103.5
0
LINE
8
Black
10
168.01
20
-103.5
11
168.66
21
-104.15
0
LINE
8
Black
10
168.66
20
-111.16
11
169.31
21
-110.51
0
LINE
8
Black
10
169.31
20
-110.51
11
168.66
21
-109.86
0
LINE
8
Black
10
168.66
20
-109.86
11
168.01
21
-110.51
0
LINE
8
Black
10
168.01
20
-110.51
11
168.66
21
-111.16
0
LINE
8
Black
10
168.71
20
-90.95
11
169.36
21
-90.3
0
LINE
8
Black
10
169.36
20
-90.3
11
168.71
21
-89.65
0
LINE
8
Black
10
168.71
20
-89.65
11
168.06
21
-90.3
0
LINE
8
Black
10
168.06
20
-90.3
11
168.71
21
-90.95
0
LINE
8
Black
10
168.71
20
-97.96
11
169.36
21
-97.31
0
LINE
8
Black
10
169.36
20
-97.31
11
168.71
21
-96.66
0
LINE
8
Black
10
168.71
20
-96.66
11
168.06
21
-97.31
0
LINE
8
Black
10
168.06
20
-97.31
11
168.71
21
-97.96
0
LINE
8
Black
10
145.814
20
-127.457
11
145.814
21
-124.457
0
LINE
8
Black
10
145.814
20
-124.457
11
146.529
21
-124.457
0
LINE
8
Black
10
146.529
20
-124.457
11
146.957
21
-124.6
0
LINE
8
Black
10
146.957
20
-124.6
11
147.243
21
-124.886
0
LINE
8
Black
10
147.243
20
-124.886
11
147.386
21
-125.171
0
LINE
8
Black
10
147.386
20
-125.171
11
147.529
21
-125.743
0
LINE
8
Black
10
147.529
20
-125.743
11
147.529
21
-126.171
0
LINE
8
Black
10
147.529
20
-126.171
11
147.386
21
-126.743
0
LINE
8
Black
10
147.386
20
-126.743
11
147.243
21
-127.029
0
LINE
8
Black
10
147.243
20
-127.029
11
146.957
21
-127.314
0
LINE
8
Black
10
146.957
20
-127.314
11
146.529
21
-127.457
0
LINE
8
Black
10
146.529
20
-127.457
11
145.814
21
-127.457
0
LINE
8
Black
10
148.814
20
-127.457
11
148.814
21
-125.457
0
LINE
8
Black
10
148.814
20
-126.029
11
148.957
21
-125.743
0
LINE
8
Black
10
148.957
20
-125.743
11
149.1
21
-125.6
0
LINE
8
Black
10
149.1
20
-125.6
11
149.386
21
-125.457
0
LINE
8
Black
10
149.386
20
-125.457
11
149.671
21
-125.457
0
LINE
8
Black
10
150.671
20
-127.457
11
150.671
21
-125.457
0
LINE
8
Black
10
150.671
20
-124.457
11
150.529
21
-124.6
0
LINE
8
Black
10
150.529
20
-124.6
11
150.671
21
-124.743
0
LINE
8
Black
10
150.671
20
-124.743
11
150.814
21
-124.6
0
LINE
8
Black
10
150.814
20
-124.6
11
150.671
21
-124.457
0
LINE
8
Black
10
150.671
20
-124.457
11
150.671
21
-124.743
0
LINE
8
Black
10
152.529
20
-127.457
11
152.243
21
-127.314
0
LINE
8
Black
10
152.243
20
-127.314
11
152.1
21
-127.029
0
LINE
8
Black
10
152.1
20
-127.029
11
152.1
21
-124.457
0
LINE
8
Black
10
154.1
20
-127.457
11
153.814
21
-127.314
0
LINE
8
Black
10
153.814
20
-127.314
11
153.671
21
-127.029
0
LINE
8
Black
10
153.671
20
-127.029
11
153.671
21
-124.457
0
LINE
8
Black
10
157.529
20
-127.457
11
157.529
21
-124.457
0
LINE
8
Black
10
157.529
20
-124.457
11
158.529
21
-126.6
0
LINE
8
Black
10
158.529
20
-126.6
11
159.529
21
-124.457
0
LINE
8
Black
10
159.529
20
-124.457
11
159.529
21
-127.457
0
LINE
8
Black
10
162.243
20
-127.457
11
162.243
21
-125.886
0
LINE
8
Black
10
162.243
20
-125.886
11
162.1
21
-125.6
0
LINE
8
Black
10
162.1
20
-125.6
11
161.814
21
-125.457
0
LINE
8
Black
10
161.814
20
-125.457
11
161.243
21
-125.457
0
LINE
8
Black
10
161.243
20
-125.457
11
160.957
21
-125.6
0
LINE
8
Black
10
162.243
20
-127.314
11
161.957
21
-127.457
0
LINE
8
Black
10
161.957
20
-127.457
11
161.243
21
-127.457
0
LINE
8
Black
10
161.243
20
-127.457
11
160.957
21
-127.314
0
LINE
8
Black
10
160.957
20
-127.314
11
160.814
21
-127.029
0
LINE
8
Black
10
160.814
20
-127.029
11
160.814
21
-126.743
0
LINE
8
Black
10
160.814
20
-126.743
11
160.957
21
-126.457
0
LINE
8
Black
10
160.957
20
-126.457
11
161.243
21
-126.314
0
LINE
8
Black
10
161.243
20
-126.314
11
161.957
21
-126.314
0
LINE
8
Black
10
161.957
20
-126.314
11
162.243
21
-126.171
0
LINE
8
Black
10
163.671
20
-125.457
11
163.671
21
-128.457
0
LINE
8
Black
10
163.671
20
-125.6
11
163.957
21
-125.457
0
LINE
8
Black
10
163.957
20
-125.457
11
164.529
21
-125.457
0
LINE
8
Black
10
164.529
20
-125.457
11
164.814
21
-125.6
0
LINE
8
Black
10
164.814
20
-125.6
11
164.957
21
-125.743
0
LINE
8
Black
10
164.957
20
-125.743
11
165.1
21
-126.029
0
LINE
8
Black
10
165.1
20
-126.029
11
165.1
21
-126.886
0
LINE
8
Black
10
165.1
20
-126.886
11
164.957
21
-127.171
0
LINE
8
Black
10
164.957
20
-127.171
11
164.814
21
-127.314
0
LINE
8
Black
10
164.814
20
-127.314
11
164.529
21
-127.457
0
LINE
8
Black
10
164.529
20
-127.457
11
163.957
21
-127.457
0
LINE
8
Black
10
163.957
20
-127.457
11
163.671
21
-127.314
0
LINE
8
Black
10
166.386
20
-127.171
11
166.529
21
-127.314
0
LINE
8
Black
10
166.529
20
-127.314
11
166.386
21
-127.457
0
LINE
8
Black
10
166.386
20
-127.457
11
166.243
21
-127.314
0
LINE
8
Black
10
166.243
20
-127.314
11
166.386
21
-127.171
0
LINE
8
Black
10
166.386
20
-127.171
11
166.386
21
-127.457
0
LINE
8
Black
10
166.386
20
-125.6
11
166.529
21
-125.743
0
LINE
8
Black
10
166.529
20
-125.743
11
166.386
21
-125.886
0
LINE
8
Black
10
166.386
20
-125.886
11
166.243
21
-125.743
0
LINE
8
Black
10
166.243
20
-125.743
11
166.386
21
-125.6
0
LINE
8
Black
10
166.386
20
-125.6
11
166.386
21
-125.886
0
LINE
8
Black
10
142.3
20
-132
11
143.1
21
-132.8
0
LINE
8
Black
10
143.1
20
-132
11
142.3
21
-132.8
0
LINE
8
Black
10
146.386
20
-130.757
11
146.671
21
-130.757
0
LINE
8
Black
10
146.671
20
-130.757
11
146.957
21
-130.9
0
LINE
8
Black
10
146.957
20
-130.9
11
147.1
21
-131.043
0
LINE
8
Black
10
147.1
20
-131.043
11
147.243
21
-131.329
0
LINE
8
Black
10
147.243
20
-131.329
11
147.386
21
-131.9
0
LINE
8
Black
10
147.386
20
-131.9
11
147.386
21
-132.614
0
LINE
8
Black
10
147.386
20
-132.614
11
147.243
21
-133.186
0
LINE
8
Black
10
147.243
20
-133.186
11
147.1
21
-133.471
0
LINE
8
Black
10
147.1
20
-133.471
11
146.957
21
-133.614
0
LINE
8
Black
10
146.957
20
-133.614
11
146.671
21
-133.757
0
LINE
8
Black
10
146.671
20
-133.757
11
146.386
21
-133.757
0
LINE
8
Black
10
146.386
20
-133.757
11
146.1
21
-133.614
0
LINE
8
Black
10
146.1
20
-133.614
11
145.957
21
-133.471
0
LINE
8
Black
10
145.957
20
-133.471
11
145.814
21
-133.186
0
LINE
8
Black
10
145.814
20
-133.186
11
145.671
21
-132.614
0
LINE
8
Black
10
145.671
20
-132.614
11
145.671
21
-131.9
0
LINE
8
Black
10
145.671
20
-131.9
11
145.814
21
-131.329
0
LINE
8
Black
10
145.814
20
-131.329
11
145.957
21
-131.043
0
LINE
8
Black
10
145.957
20
-131.043
11
146.1
21
-130.9
0
LINE
8
Black
10
146.1
20
-130.9
11
146.386
21
-130.757
0
LINE
8
Black
10
148.671
20
-133.471
11
148.814
21
-133.614
0
LINE
8
Black
10
148.814
20
-133.614
11
148.671
21
-133.757
0
LINE
8
Black
10
148.671
20
-133.757
11
148.529
21
-133.614
0
LINE
8
Black
10
148.529
20
-133.614
11
148.671
21
-133.471
0
LINE
8
Black
10
148.671
20
-133.471
11
148.671
21
-133.757
0
LINE
8
Black
10
150.529
20
-132.043
11
150.243
21
-131.9
0
LINE
8
Black
10
150.243
20
-131.9
11
150.1
21
-131.757
0
LINE
8
Black
10
150.1
20
-131.757
11
149.957
21
-131.471
0
LINE
8
Black
10
149.957
20
-131.471
11
149.957
21
-131.329
0
LINE
8
Black
10
149.957
20
-131.329
11
150.1
21
-131.043
0
LINE
8
Black
10
150.1
20
-131.043
11
150.243
21
-130.9
0
LINE
8
Black
10
150.243
20
-130.9
11
150.529
21
-130.757
0
LINE
8
Black
10
150.529
20
-130.757
11
151.1
21
-130.757
0
LINE
8
Black
10
151.1
20
-130.757
11
151.386
21
-130.9
0
LINE
8
Black
10
151.386
20
-130.9
11
151.529
21
-131.043
0
LINE
8
Black
10
151.529
20
-131.043
11
151.671
21
-131.329
0
LINE
8
Black
10
151.671
20
-131.329
11
151.671
21
-131.471
0
LINE
8
Black
10
151.671
20
-131.471
11
151.529
21
-131.757
0
LINE
8
Black
10
151.529
20
-131.757
11
151.386
21
-131.9
0
LINE
8
Black
10
151.386
20
-131.9
11
151.1
21
-132.043
0
LINE
8
Black
10
151.1
20
-132.043
11
150.529
21
-132.043
0
LINE
8
Black
10
150.529
20
-132.043
11
150.243
21
-132.186
0
LINE
8
Black
10
150.243
20
-132.186
11
150.1
21
-132.329
0
LINE
8
Black
10
150.1
20
-132.329
11
149.957
21
-132.614
0
LINE
8
Black
10
149.957
20
-132.614
11
149.957
21
-133.186
0
LINE
8
Black
10
149.957
20
-133.186
11
150.1
21
-133.471
0
LINE
8
Black
10
150.1
20
-133.471
11
150.243
21
-133.614
0
LINE
8
Black
10
150.243
20
-133.614
11
150.529
21
-133.757
0
LINE
8
Black
10
150.529
20
-133.757
11
151.1
21
-133.757
0
LINE
8
Black
10
151.1
20
-133.757
11
151.386
21
-133.614
0
LINE
8
Black
10
151.386
20
-133.614
11
151.529
21
-133.471
0
LINE
8
Black
10
151.529
20
-133.471
11
151.671
21
-133.186
0
LINE
8
Black
10
151.671
20
-133.186
11
151.671
21
-132.614
0
LINE
8
Black
10
151.671
20
-132.614
11
151.529
21
-132.329
0
LINE
8
Black
10
151.529
20
-132.329
11
151.386
21
-132.186
0
LINE
8
Black
10
151.386
20
-132.186
11
151.1
21
-132.043
0
LINE
8
Black
10
153.529
20
-130.757
11
153.814
21
-130.757
0
LINE
8
Black
10
153.814
20
-130.757
11
154.1
21
-130.9
0
LINE
8
Black
10
154.1
20
-130.9
11
154.243
21
-131.043
0
LINE
8
Black
10
154.243
20
-131.043
11
154.386
21
-131.329
0
LINE
8
Black
10
154.386
20
-131.329
11
154.529
21
-131.9
0
LINE
8
Black
10
154.529
20
-131.9
11
154.529
21
-132.614
0
LINE
8
Black
10
154.529
20
-132.614
11
154.386
21
-133.186
0
LINE
8
Black
10
154.386
20
-133.186
11
154.243
21
-133.471
0
LINE
8
Black
10
154.243
20
-133.471
11
154.1
21
-133.614
0
LINE
8
Black
10
154.1
20
-133.614
11
153.814
21
-133.757
0
LINE
8
Black
10
153.814
20
-133.757
11
153.529
21
-133.757
0
LINE
8
Black
10
153.529
20
-133.757
11
153.243
21
-133.614
0
LINE
8
Black
10
153.243
20
-133.614
11
153.1
21
-133.471
0
LINE
8
Black
10
153.1
20
-133.471
11
152.957
21
-133.186
0
LINE
8
Black
10
152.957
20
-133.186
11
152.814
21
-132.614
0
LINE
8
Black
10
152.814
20
-132.614
11
152.814
21
-131.9
0
LINE
8
Black
10
152.814
20
-131.9
11
152.957
21
-131.329
0
LINE
8
Black
10
152.957
20
-131.329
11
153.1
21
-131.043
0
LINE
8
Black
10
153.1
20
-131.043
11
153.243
21
-130.9
0
LINE
8
Black
10
153.243
20
-130.9
11
153.529
21
-130.757
0
LINE
8
Black
10
155.814
20
-133.757
11
155.814
21
-131.757
0
LINE
8
Black
10
155.814
20
-132.043
11
155.957
21
-131.9
0
LINE
8
Black
10
155.957
20
-131.9
11
156.243
21
-131.757
0
LINE
8
Black
10
156.243
20
-131.757
11
156.671
21
-131.757
0
LINE
8
Black
10
156.671
20
-131.757
11
156.957
21
-131.9
0
LINE
8
Black
10
156.957
20
-131.9
11
157.1
21
-132.186
0
LINE
8
Black
10
157.1
20
-132.186
11
157.1
21
-133.757
0
LINE
8
Black
10
157.1
20
-132.186
11
157.243
21
-131.9
0
LINE
8
Black
10
157.243
20
-131.9
11
157.529
21
-131.757
0
LINE
8
Black
10
157.529
20
-131.757
11
157.957
21
-131.757
0
LINE
8
Black
10
157.957
20
-131.757
11
158.243
21
-131.9
0
LINE
8
Black
10
158.243
20
-131.9
11
158.386
21
-132.186
0
LINE
8
Black
10
158.386
20
-132.186
11
158.386
21
-133.757
0
LINE
8
Black
10
159.814
20
-133.757
11
159.814
21
-131.757
0
LINE
8
Black
10
159.814
20
-132.043
11
159.957
21
-131.9
0
LINE
8
Black
10
159.957
20
-131.9
11
160.243
21
-131.757
0
LINE
8
Black
10
160.243
20
-131.757
11
160.671
21
-131.757
0
LINE
8
Black
10
160.671
20
-131.757
11
160.957
21
-131.9
0
LINE
8
Black
10
160.957
20
-131.9
11
161.1
21
-132.186
0
LINE
8
Black
10
161.1
20
-132.186
11
161.1
21
-133.757
0
LINE
8
Black
10
161.1
20
-132.186
11
161.243
21
-131.9
0
LINE
8
Black
10
161.243
20
-131.9
11
161.529
21
-131.757
0
LINE
8
Black
10
161.529
20
-131.757
11
161.957
21
-131.757
0
LINE
8
Black
10
161.957
20
-131.757
11
162.243
21
-131.9
0
LINE
8
Black
10
162.243
20
-131.9
11
162.386
21
-132.186
0
LINE
8
Black
10
162.386
20
-132.186
11
162.386
21
-133.757
0
LINE
8
Black
10
168.243
20
-130.614
11
165.671
21
-134.471
0
LINE
8
Black
10
172.1
20
-130.757
11
172.386
21
-130.757
0
LINE
8
Black
10
172.386
20
-130.757
11
172.671
21
-130.9
0
LINE
8
Black
10
172.671
20
-130.9
11
172.814
21
-131.043
0
LINE
8
Black
10
172.814
20
-131.043
11
172.957
21
-131.329
0
LINE
8
Black
10
172.957
20
-131.329
11
173.1
21
-131.9
0
LINE
8
Black
10
173.1
20
-131.9
11
173.1
21
-132.614
0
LINE
8
Black
10
173.1
20
-132.614
11
172.957
21
-133.186
0
LINE
8
Black
10
172.957
20
-133.186
11
172.814
21
-133.471
0
LINE
8
Black
10
172.814
20
-133.471
11
172.671
21
-133.614
0
LINE
8
Black
10
172.671
20
-133.614
11
172.386
21
-133.757
0
LINE
8
Black
10
172.386
20
-133.757
11
172.1
21
-133.757
0
LINE
8
Black
10
172.1
20
-133.757
11
171.814
21
-133.614
0
LINE
8
Black
10
171.814
20
-133.614
11
171.671
21
-133.471
0
LINE
8
Black
10
171.671
20
-133.471
11
171.529
21
-133.186
0
LINE
8
Black
10
171.529
20
-133.186
11
171.386
21
-132.614
0
LINE
8
Black
10
171.386
20
-132.614
11
171.386
21
-131.9
0
LINE
8
Black
10
171.386
20
-131.9
11
171.529
21
-131.329
0
LINE
8
Black
10
171.529
20
-131.329
11
171.671
21
-131.043
0
LINE
8
Black
10
171.671
20
-131.043
11
171.814
21
-130.9
0
LINE
8
Black
10
171.814
20
-130.9
11
172.1
21
-130.757
0
LINE
8
Black
10
174.386
20
-133.471
11
174.529
21
-133.614
0
LINE
8
Black
10
174.529
20
-133.614
11
174.386
21
-133.757
0
LINE
8
Black
10
174.386
20
-133.757
11
174.243
21
-133.614
0
LINE
8
Black
10
174.243
20
-133.614
11
174.386
21
-133.471
0
LINE
8
Black
10
174.386
20
-133.471
11
174.386
21
-133.757
0
LINE
8
Black
10
176.386
20
-130.757
11
176.671
21
-130.757
0
LINE
8
Black
10
176.671
20
-130.757
11
176.957
21
-130.9
0
LINE
8
Black
10
176.957
20
-130.9
11
177.1
21
-131.043
0
LINE
8
Black
10
177.1
20
-131.043
11
177.243
21
-131.329
0
LINE
8
Black
10
177.243
20
-131.329
11
177.386
21
-131.9
0
LINE
8
Black
10
177.386
20
-131.9
11
177.386
21
-132.614
0
LINE
8
Black
10
177.386
20
-132.614
11
177.243
21
-133.186
0
LINE
8
Black
10
177.243
20
-133.186
11
177.1
21
-133.471
0
LINE
8
Black
10
177.1
20
-133.471
11
176.957
21
-133.614
0
LINE
8
Black
10
176.957
20
-133.614
11
176.671
21
-133.757
0
LINE
8
Black
10
176.671
20
-133.757
11
176.386
21
-133.757
0
LINE
8
Black
10
176.386
20
-133.757
11
176.1
21
-133.614
0
LINE
8
Black
10
176.1
20
-133.614
11
175.957
21
-133.471
0
LINE
8
Black
10
175.957
20
-133.471
11
175.814
21
-133.186
0
LINE
8
Black
10
175.814
20
-133.186
11
175.671
21
-132.614
0
LINE
8
Black
10
175.671
20
-132.614
11
175.671
21
-131.9
0
LINE
8
Black
10
175.671
20
-131.9
11
175.814
21
-131.329
0
LINE
8
Black
10
175.814
20
-131.329
11
175.957
21
-131.043
0
LINE
8
Black
10
175.957
20
-131.043
11
176.1
21
-130.9
0
LINE
8
Black
10
176.1
20
-130.9
11
176.386
21
-130.757
0
LINE
8
Black
10
178.386
20
-130.757
11
180.243
21
-130.757
0
LINE
8
Black
10
180.243
20
-130.757
11
179.243
21
-131.9
0
LINE
8
Black
10
179.243
20
-131.9
11
179.671
21
-131.9
0
LINE
8
Black
10
179.671
20
-131.9
11
179.957
21
-132.043
0
LINE
8
Black
10
179.957
20
-132.043
11
180.1
21
-132.186
0
LINE
8
Black
10
180.1
20
-132.186
11
180.243
21
-132.471
0
LINE
8
Black
10
180.243
20
-132.471
11
180.243
21
-133.186
0
LINE
8
Black
10
180.243
20
-133.186
11
180.1
21
-133.471
0
LINE
8
Black
10
180.1
20
-133.471
11
179.957
21
-133.614
0
LINE
8
Black
10
179.957
20
-133.614
11
179.671
21
-133.757
0
LINE
8
Black
10
179.671
20
-133.757
11
178.814
21
-133.757
0
LINE
8
Black
10
178.814
20
-133.757
11
178.529
21
-133.614
0
LINE
8
Black
10
178.529
20
-133.614
11
178.386
21
-133.471
0
LINE
8
Black
10
183.1
20
-133.757
11
181.386
21
-133.757
0
LINE
8
Black
10
182.243
20
-133.757
11
182.243
21
-130.757
0
LINE
8
Black
10
182.243
20
-130.757
11
181.957
21
-131.186
0
LINE
8
Black
10
181.957
20
-131.186
11
181.671
21
-131.471
0
LINE
8
Black
10
181.671
20
-131.471
11
181.386
21
-131.614
0
LINE
8
Black
10
184.243
20
-130.757
11
184.243
21
-131.329
0
LINE
8
Black
10
185.386
20
-130.757
11
185.386
21
-131.329
0
LINE
8
Black
10
189.814
20
-134.9
11
189.671
21
-134.757
0
LINE
8
Black
10
189.671
20
-134.757
11
189.386
21
-134.329
0
LINE
8
Black
10
189.386
20
-134.329
11
189.243
21
-134.043
0
LINE
8
Black
10
189.243
20
-134.043
11
189.1
21
-133.614
0
LINE
8
Black
10
189.1
20
-133.614
11
188.957
21
-132.9
0
LINE
8
Black
10
188.957
20
-132.9
11
188.957
21
-132.329
0
LINE
8
Black
10
188.957
20
-132.329
11
189.1
21
-131.614
0
LINE
8
Black
10
189.1
20
-131.614
11
189.243
21
-131.186
0
LINE
8
Black
10
189.243
20
-131.186
11
189.386
21
-130.9
0
LINE
8
Black
10
189.386
20
-130.9
11
189.671
21
-130.471
0
LINE
8
Black
10
189.671
20
-130.471
11
189.814
21
-130.329
0
LINE
8
Black
10
192.243
20
-131.757
11
192.243
21
-133.757
0
LINE
8
Black
10
191.529
20
-130.614
11
190.814
21
-132.757
0
LINE
8
Black
10
190.814
20
-132.757
11
192.671
21
-132.757
0
LINE
8
Black
10
196.1
20
-133.757
11
196.1
21
-130.757
0
LINE
8
Black
10
197.386
20
-133.757
11
197.386
21
-132.186
0
LINE
8
Black
10
197.386
20
-132.186
11
197.243
21
-131.9
0
LINE
8
Black
10
197.243
20
-131.9
11
196.957
21
-131.757
0
LINE
8
Black
10
196.957
20
-131.757
11
196.529
21
-131.757
0
LINE
8
Black
10
196.529
20
-131.757
11
196.243
21
-131.9
0
LINE
8
Black
10
196.243
20
-131.9
11
196.1
21
-132.043
0
LINE
8
Black
10
199.243
20
-133.757
11
198.957
21
-133.614
0
LINE
8
Black
10
198.957
20
-133.614
11
198.814
21
-133.471
0
LINE
8
Black
10
198.814
20
-133.471
11
198.671
21
-133.186
0
LINE
8
Black
10
198.671
20
-133.186
11
198.671
21
-132.329
0
LINE
8
Black
10
198.671
20
-132.329
11
198.814
21
-132.043
0
LINE
8
Black
10
198.814
20
-132.043
11
198.957
21
-131.9
0
LINE
8
Black
10
198.957
20
-131.9
11
199.243
21
-131.757
0
LINE
8
Black
10
199.243
20
-131.757
11
199.671
21
-131.757
0
LINE
8
Black
10
199.671
20
-131.757
11
199.957
21
-131.9
0
LINE
8
Black
10
199.957
20
-131.9
11
200.1
21
-132.043
0
LINE
8
Black
10
200.1
20
-132.043
11
200.243
21
-132.329
0
LINE
8
Black
10
200.243
20
-132.329
11
200.243
21
-133.186
0
LINE
8
Black
10
200.243
20
-133.186
11
200.1
21
-133.471
0
LINE
8
Black
10
200.1
20
-133.471
11
199.957
21
-133.614
0
LINE
8
Black
10
199.957
20
-133.614
11
199.671
21
-133.757
0
LINE
8
Black
10
199.671
20
-133.757
11
199.243
21
-133.757
0
LINE
8
Black
10
201.957
20
-133.757
11
201.671
21
-133.614
0
LINE
8
Black
10
201.671
20
-133.614
11
201.529
21
-133.329
0
LINE
8
Black
10
201.529
20
-133.329
11
201.529
21
-130.757
0
LINE
8
Black
10
204.243
20
-133.614
11
203.957
21
-133.757
0
LINE
8
Black
10
203.957
20
-133.757
11
203.386
21
-133.757
0
LINE
8
Black
10
203.386
20
-133.757
11
203.1
21
-133.614
0
LINE
8
Black
10
203.1
20
-133.614
11
202.957
21
-133.329
0
LINE
8
Black
10
202.957
20
-133.329
11
202.957
21
-132.186
0
LINE
8
Black
10
202.957
20
-132.186
11
203.1
21
-131.9
0
LINE
8
Black
10
203.1
20
-131.9
11
203.386
21
-131.757
0
LINE
8
Black
10
203.386
20
-131.757
11
203.957
21
-131.757
0
LINE
8
Black
10
203.957
20
-131.757
11
204.243
21
-131.9
0
LINE
8
Black
10
204.243
20
-131.9
11
204.386
21
-132.186
0
LINE
8
Black
10
204.386
20
-132.186
11
204.386
21
-132.471
0
LINE
8
Black
10
204.386
20
-132.471
11
202.957
21
-132.757
0
LINE
8
Black
10
205.529
20
-133.614
11
205.814
21
-133.757
0
LINE
8
Black
10
205.814
20
-133.757
11
206.386
21
-133.757
0
LINE
8
Black
10
206.386
20
-133.757
11
206.671
21
-133.614
0
LINE
8
Black
10
206.671
20
-133.614
11
206.814
21
-133.329
0
LINE
8
Black
10
206.814
20
-133.329
11
206.814
21
-133.186
0
LINE
8
Black
10
206.814
20
-133.186
11
206.671
21
-132.9
0
LINE
8
Black
10
206.671
20
-132.9
11
206.386
21
-132.757
0
LINE
8
Black
10
206.386
20
-132.757
11
205.957
21
-132.757
0
LINE
8
Black
10
205.957
20
-132.757
11
205.671
21
-132.614
0
LINE
8
Black
10
205.671
20
-132.614
11
205.529
21
-132.329
0
LINE
8
Black
10
205.529
20
-132.329
11
205.529
21
-132.186
0
LINE
8
Black
10
205.529
20
-132.186
11
205.671
21
-131.9
0
LINE
8
Black
10
205.671
20
-131.9
11
205.957
21
-131.757
0
LINE
8
Black
10
205.957
20
-131.757
11
206.386
21
-131.757
0
LINE
8
Black
10
206.386
20
-131.757
11
206.671
21
-131.9
0
LINE
8
Black
10
207.814
20
-134.9
11
207.957
21
-134.757
0
LINE
8
Black
10
207.957
20
-134.757
11
208.243
21
-134.329
0
LINE
8
Black
10
208.243
20
-134.329
11
208.386
21
-134.043
0
LINE
8
Black
10
208.386
20
-134.043
11
208.529
21
-133.614
0
LINE
8
Black
10
208.529
20
-133.614
11
208.671
21
-132.9
0
LINE
8
Black
10
208.671
20
-132.9
11
208.671
21
-132.329
0
LINE
8
Black
10
208.671
20
-132.329
11
208.529
21
-131.614
0
LINE
8
Black
10
208.529
20
-131.614
11
208.386
21
-131.186
0
LINE
8
Black
10
208.386
20
-131.186
11
208.243
21
-130.9
0
LINE
8
Black
10
208.243
20
-130.9
11
207.957
21
-130.471
0
LINE
8
Black
10
207.957
20
-130.471
11
207.814
21
-130.329
0
CIRCLE
8
Black
10
142.65
20
-136.36
40
0.45
0
LINE
8
Black
10
146.386
20
-134.717
11
146.671
21
-134.717
0
LINE
8
Black
10
146.671
20
-134.717
11
146.957
21
-134.86
0
LINE
8
Black
10
146.957
20
-134.86
11
147.1
21
-135.003
0
LINE
8
Black
10
147.1
20
-135.003
11
147.243
21
-135.289
0
LINE
8
Black
10
147.243
20
-135.289
11
147.386
21
-135.86
0
LINE
8
Black
10
147.386
20
-135.86
11
147.386
21
-136.574
0
LINE
8
Black
10
147.386
20
-136.574
11
147.243
21
-137.146
0
LINE
8
Black
10
147.243
20
-137.146
11
147.1
21
-137.431
0
LINE
8
Black
10
147.1
20
-137.431
11
146.957
21
-137.574
0
LINE
8
Black
10
146.957
20
-137.574
11
146.671
21
-137.717
0
LINE
8
Black
10
146.671
20
-137.717
11
146.386
21
-137.717
0
LINE
8
Black
10
146.386
20
-137.717
11
146.1
21
-137.574
0
LINE
8
Black
10
146.1
20
-137.574
11
145.957
21
-137.431
0
LINE
8
Black
10
145.957
20
-137.431
11
145.814
21
-137.146
0
LINE
8
Black
10
145.814
20
-137.146
11
145.671
21
-136.574
0
LINE
8
Black
10
145.671
20
-136.574
11
145.671
21
-135.86
0
LINE
8
Black
10
145.671
20
-135.86
11
145.814
21
-135.289
0
LINE
8
Black
10
145.814
20
-135.289
11
145.957
21
-135.003
0
LINE
8
Black
10
145.957
20
-135.003
11
146.1
21
-134.86
0
LINE
8
Black
10
146.1
20
-134.86
11
146.386
21
-134.717
0
LINE
8
Black
10
148.671
20
-137.431
11
148.814
21
-137.574
0
LINE
8
Black
10
148.814
20
-137.574
11
148.671
21
-137.717
0
LINE
8
Black
10
148.671
20
-137.717
11
148.529
21
-137.574
0
LINE
8
Black
10
148.529
20
-137.574
11
148.671
21
-137.431
0
LINE
8
Black
10
148.671
20
-137.431
11
148.671
21
-137.717
0
LINE
8
Black
10
150.243
20
-137.717
11
150.814
21
-137.717
0
LINE
8
Black
10
150.814
20
-137.717
11
151.1
21
-137.574
0
LINE
8
Black
10
151.1
20
-137.574
11
151.243
21
-137.431
0
LINE
8
Black
10
151.243
20
-137.431
11
151.529
21
-137.003
0
LINE
8
Black
10
151.529
20
-137.003
11
151.671
21
-136.431
0
LINE
8
Black
10
151.671
20
-136.431
11
151.671
21
-135.289
0
LINE
8
Black
10
151.671
20
-135.289
11
151.529
21
-135.003
0
LINE
8
Black
10
151.529
20
-135.003
11
151.386
21
-134.86
0
LINE
8
Black
10
151.386
20
-134.86
11
151.1
21
-134.717
0
LINE
8
Black
10
151.1
20
-134.717
11
150.529
21
-134.717
0
LINE
8
Black
10
150.529
20
-134.717
11
150.243
21
-134.86
0
LINE
8
Black
10
150.243
20
-134.86
11
150.1
21
-135.003
0
LINE
8
Black
10
150.1
20
-135.003
11
149.957
21
-135.289
0
LINE
8
Black
10
149.957
20
-135.289
11
149.957
21
-136.003
0
LINE
8
Black
10
149.957
20
-136.003
11
150.1
21
-136.289
0
LINE
8
Black
10
150.1
20
-136.289
11
150.243
21
-136.431
0
LINE
8
Black
10
150.243
20
-136.431
11
150.529
21
-136.574
0
LINE
8
Black
10
150.529
20
-136.574
11
151.1
21
-136.574
0
LINE
8
Black
10
151.1
20
-136.574
11
151.386
21
-136.431
0
LINE
8
Black
10
151.386
20
-136.431
11
151.529
21
-136.289
0
LINE
8
Black
10
151.529
20
-136.289
11
151.671
21
-136.003
0
LINE
8
Black
10
153.529
20
-134.717
11
153.814
21
-134.717
0
LINE
8
Black
10
153.814
20
-134.717
11
154.1
21
-134.86
0
LINE
8
Black
10
154.1
20
-134.86
11
154.243
21
-135.003
0
LINE
8
Black
10
154.243
20
-135.003
11
154.386
21
-135.289
0
LINE
8
Black
10
154.386
20
-135.289
11
154.529
21
-135.86
0
LINE
8
Black
10
154.529
20
-135.86
11
154.529
21
-136.574
0
LINE
8
Black
10
154.529
20
-136.574
11
154.386
21
-137.146
0
LINE
8
Black
10
154.386
20
-137.146
11
154.243
21
-137.431
0
LINE
8
Black
10
154.243
20
-137.431
11
154.1
21
-137.574
0
LINE
8
Black
10
154.1
20
-137.574
11
153.814
21
-137.717
0
LINE
8
Black
10
153.814
20
-137.717
11
153.529
21
-137.717
0
LINE
8
Black
10
153.529
20
-137.717
11
153.243
21
-137.574
0
LINE
8
Black
10
153.243
20
-137.574
11
153.1
21
-137.431
0
LINE
8
Black
10
153.1
20
-137.431
11
152.957
21
-137.146
0
LINE
8
Black
10
152.957
20
-137.146
11
152.814
21
-136.574
0
LINE
8
Black
10
152.814
20
-136.574
11
152.814
21
-135.86
0
LINE
8
Black
10
152.814
20
-135.86
11
152.957
21
-135.289
0
LINE
8
Black
10
152.957
20
-135.289
11
153.1
21
-135.003
0
LINE
8
Black
10
153.1
20
-135.003
11
153.243
21
-134.86
0
LINE
8
Black
10
153.243
20
-134.86
11
153.529
21
-134.717
0
LINE
8
Black
10
155.814
20
-137.717
11
155.814
21
-135.717
0
LINE
8
Black
10
155.814
20
-136.003
11
155.957
21
-135.86
0
LINE
8
Black
10
155.957
20
-135.86
11
156.243
21
-135.717
0
LINE
8
Black
10
156.243
20
-135.717
11
156.671
21
-135.717
0
LINE
8
Black
10
156.671
20
-135.717
11
156.957
21
-135.86
0
LINE
8
Black
10
156.957
20
-135.86
11
157.1
21
-136.146
0
LINE
8
Black
10
157.1
20
-136.146
11
157.1
21
-137.717
0
LINE
8
Black
10
157.1
20
-136.146
11
157.243
21
-135.86
0
LINE
8
Black
10
157.243
20
-135.86
11
157.529
21
-135.717
0
LINE
8
Black
10
157.529
20
-135.717
11
157.957
21
-135.717
0
LINE
8
Black
10
157.957
20
-135.717
11
158.243
21
-135.86
0
LINE
8
Black
10
158.243
20
-135.86
11
158.386
21
-136.146
0
LINE
8
Black
10
158.386
20
-136.146
11
158.386
21
-137.717
0
LINE
8
Black
10
159.814
20
-137.717
11
159.814
21
-135.717
0
LINE
8
Black
10
159.814
20
-136.003
11
159.957
21
-135.86
0
LINE
8
Black
10
159.957
20
-135.86
11
160.243
21
-135.717
0
LINE
8
Black
10
160.243
20
-135.717
11
160.671
21
-135.717
0
LINE
8
Black
10
160.671
20
-135.717
11
160.957
21
-135.86
0
LINE
8
Black
10
160.957
20
-135.86
11
161.1
21
-136.146
0
LINE
8
Black
10
161.1
20
-136.146
11
161.1
21
-137.717
0
LINE
8
Black
10
161.1
20
-136.146
11
161.243
21
-135.86
0
LINE
8
Black
10
161.243
20
-135.86
11
161.529
21
-135.717
0
LINE
8
Black
10
161.529
20
-135.717
11
161.957
21
-135.717
0
LINE
8
Black
10
161.957
20
-135.717
11
162.243
21
-135.86
0
LINE
8
Black
10
162.243
20
-135.86
11
162.386
21
-136.146
0
LINE
8
Black
10
162.386
20
-136.146
11
162.386
21
-137.717
0
LINE
8
Black
10
168.243
20
-134.574
11
165.671
21
-138.431
0
LINE
8
Black
10
172.1
20
-134.717
11
172.386
21
-134.717
0
LINE
8
Black
10
172.386
20
-134.717
11
172.671
21
-134.86
0
LINE
8
Black
10
172.671
20
-134.86
11
172.814
21
-135.003
0
LINE
8
Black
10
172.814
20
-135.003
11
172.957
21
-135.289
0
LINE
8
Black
10
172.957
20
-135.289
11
173.1
21
-135.86
0
LINE
8
Black
10
173.1
20
-135.86
11
173.1
21
-136.574
0
LINE
8
Black
10
173.1
20
-136.574
11
172.957
21
-137.146
0
LINE
8
Black
10
172.957
20
-137.146
11
172.814
21
-137.431
0
LINE
8
Black
10
172.814
20
-137.431
11
172.671
21
-137.574
0
LINE
8
Black
10
172.671
20
-137.574
11
172.386
21
-137.717
0
LINE
8
Black
10
172.386
20
-137.717
11
172.1
21
-137.717
0
LINE
8
Black
10
172.1
20
-137.717
11
171.814
21
-137.574
0
LINE
8
Black
10
171.814
20
-137.574
11
171.671
21
-137.431
0
LINE
8
Black
10
171.671
20
-137.431
11
171.529
21
-137.146
0
LINE
8
Black
10
171.529
20
-137.146
11
171.386
21
-136.574
0
LINE
8
Black
10
171.386
20
-136.574
11
171.386
21
-135.86
0
LINE
8
Black
10
171.386
20
-135.86
11
171.529
21
-135.289
0
LINE
8
Black
10
171.529
20
-135.289
11
171.671
21
-135.003
0
LINE
8
Black
10
171.671
20
-135.003
11
171.814
21
-134.86
0
LINE
8
Black
10
171.814
20
-134.86
11
172.1
21
-134.717
0
LINE
8
Black
10
174.386
20
-137.431
11
174.529
21
-137.574
0
LINE
8
Black
10
174.529
20
-137.574
11
174.386
21
-137.717
0
LINE
8
Black
10
174.386
20
-137.717
11
174.243
21
-137.574
0
LINE
8
Black
10
174.243
20
-137.574
11
174.386
21
-137.431
0
LINE
8
Black
10
174.386
20
-137.431
11
174.386
21
-137.717
0
LINE
8
Black
10
176.386
20
-134.717
11
176.671
21
-134.717
0
LINE
8
Black
10
176.671
20
-134.717
11
176.957
21
-134.86
0
LINE
8
Black
10
176.957
20
-134.86
11
177.1
21
-135.003
0
LINE
8
Black
10
177.1
20
-135.003
11
177.243
21
-135.289
0
LINE
8
Black
10
177.243
20
-135.289
11
177.386
21
-135.86
0
LINE
8
Black
10
177.386
20
-135.86
11
177.386
21
-136.574
0
LINE
8
Black
10
177.386
20
-136.574
11
177.243
21
-137.146
0
LINE
8
Black
10
177.243
20
-137.146
11
177.1
21
-137.431
0
LINE
8
Black
10
177.1
20
-137.431
11
176.957
21
-137.574
0
LINE
8
Black
10
176.957
20
-137.574
11
176.671
21
-137.717
0
LINE
8
Black
10
176.671
20
-137.717
11
176.386
21
-137.717
0
LINE
8
Black
10
176.386
20
-137.717
11
176.1
21
-137.574
0
LINE
8
Black
10
176.1
20
-137.574
11
175.957
21
-137.431
0
LINE
8
Black
10
175.957
20
-137.431
11
175.814
21
-137.146
0
LINE
8
Black
10
175.814
20
-137.146
11
175.671
21
-136.574
0
LINE
8
Black
10
175.671
20
-136.574
11
175.671
21
-135.86
0
LINE
8
Black
10
175.671
20
-135.86
11
175.814
21
-135.289
0
LINE
8
Black
10
175.814
20
-135.289
11
175.957
21
-135.003
0
LINE
8
Black
10
175.957
20
-135.003
11
176.1
21
-134.86
0
LINE
8
Black
10
176.1
20
-134.86
11
176.386
21
-134.717
0
LINE
8
Black
10
178.386
20
-134.717
11
180.243
21
-134.717
0
LINE
8
Black
10
180.243
20
-134.717
11
179.243
21
-135.86
0
LINE
8
Black
10
179.243
20
-135.86
11
179.671
21
-135.86
0
LINE
8
Black
10
179.671
20
-135.86
11
179.957
21
-136.003
0
LINE
8
Black
10
179.957
20
-136.003
11
180.1
21
-136.146
0
LINE
8
Black
10
180.1
20
-136.146
11
180.243
21
-136.431
0
LINE
8
Black
10
180.243
20
-136.431
11
180.243
21
-137.146
0
LINE
8
Black
10
180.243
20
-137.146
11
180.1
21
-137.431
0
LINE
8
Black
10
180.1
20
-137.431
11
179.957
21
-137.574
0
LINE
8
Black
10
179.957
20
-137.574
11
179.671
21
-137.717
0
LINE
8
Black
10
179.671
20
-137.717
11
178.814
21
-137.717
0
LINE
8
Black
10
178.814
20
-137.717
11
178.529
21
-137.574
0
LINE
8
Black
10
178.529
20
-137.574
11
178.386
21
-137.431
0
LINE
8
Black
10
182.957
20
-134.717
11
181.529
21
-134.717
0
LINE
8
Black
10
181.529
20
-134.717
11
181.386
21
-136.146
0
LINE
8
Black
10
181.386
20
-136.146
11
181.529
21
-136.003
0
LINE
8
Black
10
181.529
20
-136.003
11
181.814
21
-135.86
0
LINE
8
Black
10
181.814
20
-135.86
11
182.529
21
-135.86
0
LINE
8
Black
10
182.529
20
-135.86
11
182.814
21
-136.003
0
LINE
8
Black
10
182.814
20
-136.003
11
182.957
21
-136.146
0
LINE
8
Black
10
182.957
20
-136.146
11
183.1
21
-136.431
0
LINE
8
Black
10
183.1
20
-136.431
11
183.1
21
-137.146
0
LINE
8
Black
10
183.1
20
-137.146
11
182.957
21
-137.431
0
LINE
8
Black
10
182.957
20
-137.431
11
182.814
21
-137.574
0
LINE
8
Black
10
182.814
20
-137.574
11
182.529
21
-137.717
0
LINE
8
Black
10
182.529
20
-137.717
11
181.814
21
-137.717
0
LINE
8
Black
10
181.814
20
-137.717
11
181.529
21
-137.574
0
LINE
8
Black
10
181.529
20
-137.574
11
181.386
21
-137.431
0
LINE
8
Black
10
184.243
20
-134.717
11
184.243
21
-135.289
0
LINE
8
Black
10
185.386
20
-134.717
11
185.386
21
-135.289
0
LINE
8
Black
10
189.814
20
-138.86
11
189.671
21
-138.717
0
LINE
8
Black
10
189.671
20
-138.717
11
189.386
21
-138.289
0
LINE
8
Black
10
189.386
20
-138.289
11
189.243
21
-138.003
0
LINE
8
Black
10
189.243
20
-138.003
11
189.1
21
-137.574
0
LINE
8
Black
10
189.1
20
-137.574
11
188.957
21
-136.86
0
LINE
8
Black
10
188.957
20
-136.86
11
188.957
21
-136.289
0
LINE
8
Black
10
188.957
20
-136.289
11
189.1
21
-135.574
0
LINE
8
Black
10
189.1
20
-135.574
11
189.243
21
-135.146
0
LINE
8
Black
10
189.243
20
-135.146
11
189.386
21
-134.86
0
LINE
8
Black
10
189.386
20
-134.86
11
189.671
21
-134.431
0
LINE
8
Black
10
189.671
20
-134.431
11
189.814
21
-134.289
0
LINE
8
Black
10
192.243
20
-135.717
11
192.243
21
-137.717
0
LINE
8
Black
10
191.529
20
-134.574
11
190.814
21
-136.717
0
LINE
8
Black
10
190.814
20
-136.717
11
192.671
21
-136.717
0
LINE
8
Black
10
196.1
20
-137.717
11
196.1
21
-134.717
0
LINE
8
Black
10
197.386
20
-137.717
11
197.386
21
-136.146
0
LINE
8
Black
10
197.386
20
-136.146
11
197.243
21
-135.86
0
LINE
8
Black
10
197.243
20
-135.86
11
196.957
21
-135.717
0
LINE
8
Black
10
196.957
20
-135.717
11
196.529
21
-135.717
0
LINE
8
Black
10
196.529
20
-135.717
11
196.243
21
-135.86
0
LINE
8
Black
10
196.243
20
-135.86
11
196.1
21
-136.003
0
LINE
8
Black
10
199.243
20
-137.717
11
198.957
21
-137.574
0
LINE
8
Black
10
198.957
20
-137.574
11
198.814
21
-137.431
0
LINE
8
Black
10
198.814
20
-137.431
11
198.671
21
-137.146
0
LINE
8
Black
10
198.671
20
-137.146
11
198.671
21
-136.289
0
LINE
8
Black
10
198.671
20
-136.289
11
198.814
21
-136.003
0
LINE
8
Black
10
198.814
20
-136.003
11
198.957
21
-135.86
0
LINE
8
Black
10
198.957
20
-135.86
11
199.243
21
-135.717
0
LINE
8
Black
10
199.243
20
-135.717
11
199.671
21
-135.717
0
LINE
8
Black
10
199.671
20
-135.717
11
199.957
21
-135.86
0
LINE
8
Black
10
199.957
20
-135.86
11
200.1
21
-136.003
0
LINE
8
Black
10
200.1
20
-136.003
11
200.243
21
-136.289
0
LINE
8
Black
10
200.243
20
-136.289
11
200.243
21
-137.146
0
LINE
8
Black
10
200.243
20
-137.146
11
200.1
21
-137.431
0
LINE
8
Black
10
200.1
20
-137.431
11
199.957
21
-137.574
0
LINE
8
Black
10
199.957
20
-137.574
11
199.671
21
-137.717
0
LINE
8
Black
10
199.671
20
-137.717
11
199.243
21
-137.717
0
LINE
8
Black
10
201.957
20
-137.717
11
201.671
21
-137.574
0
LINE
8
Black
10
201.671
20
-137.574
11
201.529
21
-137.289
0
LINE
8
Black
10
201.529
20
-137.289
11
201.529
21
-134.717
0
LINE
8
Black
10
204.243
20
-137.574
11
203.957
21
-137.717
0
LINE
8
Black
10
203.957
20
-137.717
11
203.386
21
-137.717
0
LINE
8
Black
10
203.386
20
-137.717
11
203.1
21
-137.574
0
LINE
8
Black
10
203.1
20
-137.574
11
202.957
21
-137.289
0
LINE
8
Black
10
202.957
20
-137.289
11
202.957
21
-136.146
0
LINE
8
Black
10
202.957
20
-136.146
11
203.1
21
-135.86
0
LINE
8
Black
10
203.1
20
-135.86
11
203.386
21
-135.717
0
LINE
8
Black
10
203.386
20
-135.717
11
203.957
21
-135.717
0
LINE
8
Black
10
203.957
20
-135.717
11
204.243
21
-135.86
0
LINE
8
Black
10
204.243
20
-135.86
11
204.386
21
-136.146
0
LINE
8
Black
10
204.386
20
-136.146
11
204.386
21
-136.431
0
LINE
8
Black
10
204.386
20
-136.431
11
202.957
21
-136.717
0
LINE
8
Black
10
205.529
20
-137.574
11
205.814
21
-137.717
0
LINE
8
Black
10
205.814
20
-137.717
11
206.386
21
-137.717
0
LINE
8
Black
10
206.386
20
-137.717
11
206.671
21
-137.574
0
LINE
8
Black
10
206.671
20
-137.574
11
206.814
21
-137.289
0
LINE
8
Black
10
206.814
20
-137.289
11
206.814
21
-137.146
0
LINE
8
Black
10
206.814
20
-137.146
11
206.671
21
-136.86
0
LINE
8
Black
10
206.671
20
-136.86
11
206.386
21
-136.717
0
LINE
8
Black
10
206.386
20
-136.717
11
205.957
21
-136.717
0
LINE
8
Black
10
205.957
20
-136.717
11
205.671
21
-136.574
0
LINE
8
Black
10
205.671
20
-136.574
11
205.529
21
-136.289
0
LINE
8
Black
10
205.529
20
-136.289
11
205.529
21
-136.146
0
LINE
8
Black
10
205.529
20
-136.146
11
205.671
21
-135.86
0
LINE
8
Black
10
205.671
20
-135.86
11
205.957
21
-135.717
0
LINE
8
Black
10
205.957
20
-135.717
11
206.386
21
-135.717
0
LINE
8
Black
10
206.386
20
-135.717
11
206.671
21
-135.86
0
LINE
8
Black
10
207.814
20
-138.86
11
207.957
21
-138.717
0
LINE
8
Black
10
207.957
20
-138.717
11
208.243
21
-138.289
0
LINE
8
Black
10
208.243
20
-138.289
11
208.386
21
-138.003
0
LINE
8
Black
10
208.386
20
-138.003
11
208.529
21
-137.574
0
LINE
8
Black
10
208.529
20
-137.574
11
208.671
21
-136.86
0
LINE
8
Black
10
208.671
20
-136.86
11
208.671
21
-136.289
0
LINE
8
Black
10
208.671
20
-136.289
11
208.529
21
-135.574
0
LINE
8
Black
10
208.529
20
-135.574
11
208.386
21
-135.146
0
LINE
8
Black
10
208.386
20
-135.146
11
208.243
21
-134.86
0
LINE
8
Black
10
208.243
20
-134.86
11
207.957
21
-134.431
0
LINE
8
Black
10
207.957
20
-134.431
11
207.814
21
-134.289
0
LINE
8
Black
10
142.605
20
-139.825
11
142.605
21
-140.815
0
LINE
8
Black
10
142.11
20
-140.32
11
143.1
21
-140.32
0
LINE
8
Black
10
146.386
20
-138.677
11
146.671
21
-138.677
0
LINE
8
Black
10
146.671
20
-138.677
11
146.957
21
-138.82
0
LINE
8
Black
10
146.957
20
-138.82
11
147.1
21
-138.963
0
LINE
8
Black
10
147.1
20
-138.963
11
147.243
21
-139.249
0
LINE
8
Black
10
147.243
20
-139.249
11
147.386
21
-139.82
0
LINE
8
Black
10
147.386
20
-139.82
11
147.386
21
-140.534
0
LINE
8
Black
10
147.386
20
-140.534
11
147.243
21
-141.106
0
LINE
8
Black
10
147.243
20
-141.106
11
147.1
21
-141.391
0
LINE
8
Black
10
147.1
20
-141.391
11
146.957
21
-141.534
0
LINE
8
Black
10
146.957
20
-141.534
11
146.671
21
-141.677
0
LINE
8
Black
10
146.671
20
-141.677
11
146.386
21
-141.677
0
LINE
8
Black
10
146.386
20
-141.677
11
146.1
21
-141.534
0
LINE
8
Black
10
146.1
20
-141.534
11
145.957
21
-141.391
0
LINE
8
Black
10
145.957
20
-141.391
11
145.814
21
-141.106
0
LINE
8
Black
10
145.814
20
-141.106
11
145.671
21
-140.534
0
LINE
8
Black
10
145.671
20
-140.534
11
145.671
21
-139.82
0
LINE
8
Black
10
145.671
20
-139.82
11
145.814
21
-139.249
0
LINE
8
Black
10
145.814
20
-139.249
11
145.957
21
-138.963
0
LINE
8
Black
10
145.957
20
-138.963
11
146.1
21
-138.82
0
LINE
8
Black
10
146.1
20
-138.82
11
146.386
21
-138.677
0
LINE
8
Black
10
148.671
20
-141.391
11
148.814
21
-141.534
0
LINE
8
Black
10
148.814
20
-141.534
11
148.671
21
-141.677
0
LINE
8
Black
10
148.671
20
-141.677
11
148.529
21
-141.534
0
LINE
8
Black
10
148.529
20
-141.534
11
148.671
21
-141.391
0
LINE
8
Black
10
148.671
20
-141.391
11
148.671
21
-141.677
0
LINE
8
Black
10
150.243
20
-141.677
11
150.814
21
-141.677
0
LINE
8
Black
10
150.814
20
-141.677
11
151.1
21
-141.534
0
LINE
8
Black
10
151.1
20
-141.534
11
151.243
21
-141.391
0
LINE
8
Black
10
151.243
20
-141.391
11
151.529
21
-140.963
0
LINE
8
Black
10
151.529
20
-140.963
11
151.671
21
-140.391
0
LINE
8
Black
10
151.671
20
-140.391
11
151.671
21
-139.249
0
LINE
8
Black
10
151.671
20
-139.249
11
151.529
21
-138.963
0
LINE
8
Black
10
151.529
20
-138.963
11
151.386
21
-138.82
0
LINE
8
Black
10
151.386
20
-138.82
11
151.1
21
-138.677
0
LINE
8
Black
10
151.1
20
-138.677
11
150.529
21
-138.677
0
LINE
8
Black
10
150.529
20
-138.677
11
150.243
21
-138.82
0
LINE
8
Black
10
150.243
20
-138.82
11
150.1
21
-138.963
0
LINE
8
Black
10
150.1
20
-138.963
11
149.957
21
-139.249
0
LINE
8
Black
10
149.957
20
-139.249
11
149.957
21
-139.963
0
LINE
8
Black
10
149.957
20
-139.963
11
150.1
21
-140.249
0
LINE
8
Black
10
150.1
20
-140.249
11
150.243
21
-140.391
0
LINE
8
Black
10
150.243
20
-140.391
11
150.529
21
-140.534
0
LINE
8
Black
10
150.529
20
-140.534
11
151.1
21
-140.534
0
LINE
8
Black
10
151.1
20
-140.534
11
151.386
21
-140.391
0
LINE
8
Black
10
151.386
20
-140.391
11
151.529
21
-140.249
0
LINE
8
Black
10
151.529
20
-140.249
11
151.671
21
-139.963
0
LINE
8
Black
10
153.1
20
-141.677
11
153.671
21
-141.677
0
LINE
8
Black
10
153.671
20
-141.677
11
153.957
21
-141.534
0
LINE
8
Black
10
153.957
20
-141.534
11
154.1
21
-141.391
0
LINE
8
Black
10
154.1
20
-141.391
11
154.386
21
-140.963
0
LINE
8
Black
10
154.386
20
-140.963
11
154.529
21
-140.391
0
LINE
8
Black
10
154.529
20
-140.391
11
154.529
21
-139.249
0
LINE
8
Black
10
154.529
20
-139.249
11
154.386
21
-138.963
0
LINE
8
Black
10
154.386
20
-138.963
11
154.243
21
-138.82
0
LINE
8
Black
10
154.243
20
-138.82
11
153.957
21
-138.677
0
LINE
8
Black
10
153.957
20
-138.677
11
153.386
21
-138.677
0
LINE
8
Black
10
153.386
20
-138.677
11
153.1
21
-138.82
0
LINE
8
Black
10
153.1
20
-138.82
11
152.957
21
-138.963
0
LINE
8
Black
10
152.957
20
-138.963
11
152.814
21
-139.249
0
LINE
8
Black
10
152.814
20
-139.249
11
152.814
21
-139.963
0
LINE
8
Black
10
152.814
20
-139.963
11
152.957
21
-140.249
0
LINE
8
Black
10
152.957
20
-140.249
11
153.1
21
-140.391
0
LINE
8
Black
10
153.1
20
-140.391
11
153.386
21
-140.534
0
LINE
8
Black
10
153.386
20
-140.534
11
153.957
21
-140.534
0
LINE
8
Black
10
153.957
20
-140.534
11
154.243
21
-140.391
0
LINE
8
Black
10
154.243
20
-140.391
11
154.386
21
-140.249
0
LINE
8
Black
10
154.386
20
-140.249
11
154.529
21
-139.963
0
LINE
8
Black
10
155.814
20
-141.677
11
155.814
21
-139.677
0
LINE
8
Black
10
155.814
20
-139.963
11
155.957
21
-139.82
0
LINE
8
Black
10
155.957
20
-139.82
11
156.243
21
-139.677
0
LINE
8
Black
10
156.243
20
-139.677
11
156.671
21
-139.677
0
LINE
8
Black
10
156.671
20
-139.677
11
156.957
21
-139.82
0
LINE
8
Black
10
156.957
20
-139.82
11
157.1
21
-140.106
0
LINE
8
Black
10
157.1
20
-140.106
11
157.1
21
-141.677
0
LINE
8
Black
10
157.1
20
-140.106
11
157.243
21
-139.82
0
LINE
8
Black
10
157.243
20
-139.82
11
157.529
21
-139.677
0
LINE
8
Black
10
157.529
20
-139.677
11
157.957
21
-139.677
0
LINE
8
Black
10
157.957
20
-139.677
11
158.243
21
-139.82
0
LINE
8
Black
10
158.243
20
-139.82
11
158.386
21
-140.106
0
LINE
8
Black
10
158.386
20
-140.106
11
158.386
21
-141.677
0
LINE
8
Black
10
159.814
20
-141.677
11
159.814
21
-139.677
0
LINE
8
Black
10
159.814
20
-139.963
11
159.957
21
-139.82
0
LINE
8
Black
10
159.957
20
-139.82
11
160.243
21
-139.677
0
LINE
8
Black
10
160.243
20
-139.677
11
160.671
21
-139.677
0
LINE
8
Black
10
160.671
20
-139.677
11
160.957
21
-139.82
0
LINE
8
Black
10
160.957
20
-139.82
11
161.1
21
-140.106
0
LINE
8
Black
10
161.1
20
-140.106
11
161.1
21
-141.677
0
LINE
8
Black
10
161.1
20
-140.106
11
161.243
21
-139.82
0
LINE
8
Black
10
161.243
20
-139.82
11
161.529
21
-139.677
0
LINE
8
Black
10
161.529
20
-139.677
11
161.957
21
-139.677
0
LINE
8
Black
10
161.957
20
-139.677
11
162.243
21
-139.82
0
LINE
8
Black
10
162.243
20
-139.82
11
162.386
21
-140.106
0
LINE
8
Black
10
162.386
20
-140.106
11
162.386
21
-141.677
0
LINE
8
Black
10
168.243
20
-138.534
11
165.671
21
-142.391
0
LINE
8
Black
10
172.1
20
-138.677
11
172.386
21
-138.677
0
LINE
8
Black
10
172.386
20
-138.677
11
172.671
21
-138.82
0
LINE
8
Black
10
172.671
20
-138.82
11
172.814
21
-138.963
0
LINE
8
Black
10
172.814
20
-138.963
11
172.957
21
-139.249
0
LINE
8
Black
10
172.957
20
-139.249
11
173.1
21
-139.82
0
LINE
8
Black
10
173.1
20
-139.82
11
173.1
21
-140.534
0
LINE
8
Black
10
173.1
20
-140.534
11
172.957
21
-141.106
0
LINE
8
Black
10
172.957
20
-141.106
11
172.814
21
-141.391
0
LINE
8
Black
10
172.814
20
-141.391
11
172.671
21
-141.534
0
LINE
8
Black
10
172.671
20
-141.534
11
172.386
21
-141.677
0
LINE
8
Black
10
172.386
20
-141.677
11
172.1
21
-141.677
0
LINE
8
Black
10
172.1
20
-141.677
11
171.814
21
-141.534
0
LINE
8
Black
10
171.814
20
-141.534
11
171.671
21
-141.391
0
LINE
8
Black
10
171.671
20
-141.391
11
171.529
21
-141.106
0
LINE
8
Black
10
171.529
20
-141.106
11
171.386
21
-140.534
0
LINE
8
Black
10
171.386
20
-140.534
11
171.386
21
-139.82
0
LINE
8
Black
10
171.386
20
-139.82
11
171.529
21
-139.249
0
LINE
8
Black
10
171.529
20
-139.249
11
171.671
21
-138.963
0
LINE
8
Black
10
171.671
20
-138.963
11
171.814
21
-138.82
0
LINE
8
Black
10
171.814
20
-138.82
11
172.1
21
-138.677
0
LINE
8
Black
10
174.386
20
-141.391
11
174.529
21
-141.534
0
LINE
8
Black
10
174.529
20
-141.534
11
174.386
21
-141.677
0
LINE
8
Black
10
174.386
20
-141.677
11
174.243
21
-141.534
0
LINE
8
Black
10
174.243
20
-141.534
11
174.386
21
-141.391
0
LINE
8
Black
10
174.386
20
-141.391
11
174.386
21
-141.677
0
LINE
8
Black
10
176.386
20
-138.677
11
176.671
21
-138.677
0
LINE
8
Black
10
176.671
20
-138.677
11
176.957
21
-138.82
0
LINE
8
Black
10
176.957
20
-138.82
11
177.1
21
-138.963
0
LINE
8
Black
10
177.1
20
-138.963
11
177.243
21
-139.249
0
LINE
8
Black
10
177.243
20
-139.249
11
177.386
21
-139.82
0
LINE
8
Black
10
177.386
20
-139.82
11
177.386
21
-140.534
0
LINE
8
Black
10
177.386
20
-140.534
11
177.243
21
-141.106
0
LINE
8
Black
10
177.243
20
-141.106
11
177.1
21
-141.391
0
LINE
8
Black
10
177.1
20
-141.391
11
176.957
21
-141.534
0
LINE
8
Black
10
176.957
20
-141.534
11
176.671
21
-141.677
0
LINE
8
Black
10
176.671
20
-141.677
11
176.386
21
-141.677
0
LINE
8
Black
10
176.386
20
-141.677
11
176.1
21
-141.534
0
LINE
8
Black
10
176.1
20
-141.534
11
175.957
21
-141.391
0
LINE
8
Black
10
175.957
20
-141.391
11
175.814
21
-141.106
0
LINE
8
Black
10
175.814
20
-141.106
11
175.671
21
-140.534
0
LINE
8
Black
10
175.671
20
-140.534
11
175.671
21
-139.82
0
LINE
8
Black
10
175.671
20
-139.82
11
175.814
21
-139.249
0
LINE
8
Black
10
175.814
20
-139.249
11
175.957
21
-138.963
0
LINE
8
Black
10
175.957
20
-138.963
11
176.1
21
-138.82
0
LINE
8
Black
10
176.1
20
-138.82
11
176.386
21
-138.677
0
LINE
8
Black
10
178.386
20
-138.677
11
180.243
21
-138.677
0
LINE
8
Black
10
180.243
20
-138.677
11
179.243
21
-139.82
0
LINE
8
Black
10
179.243
20
-139.82
11
179.671
21
-139.82
0
LINE
8
Black
10
179.671
20
-139.82
11
179.957
21
-139.963
0
LINE
8
Black
10
179.957
20
-139.963
11
180.1
21
-140.106
0
LINE
8
Black
10
180.1
20
-140.106
11
180.243
21
-140.391
0
LINE
8
Black
10
180.243
20
-140.391
11
180.243
21
-141.106
0
LINE
8
Black
10
180.243
20
-141.106
11
180.1
21
-141.391
0
LINE
8
Black
10
180.1
20
-141.391
11
179.957
21
-141.534
0
LINE
8
Black
10
179.957
20
-141.534
11
179.671
21
-141.677
0
LINE
8
Black
10
179.671
20
-141.677
11
178.814
21
-141.677
0
LINE
8
Black
10
178.814
20
-141.677
11
178.529
21
-141.534
0
LINE
8
Black
10
178.529
20
-141.534
11
178.386
21
-141.391
0
LINE
8
Black
10
181.671
20
-141.677
11
182.243
21
-141.677
0
LINE
8
Black
10
182.243
20
-141.677
11
182.529
21
-141.534
0
LINE
8
Black
10
182.529
20
-141.534
11
182.671
21
-141.391
0
LINE
8
Black
10
182.671
20
-141.391
11
182.957
21
-140.963
0
LINE
8
Black
10
182.957
20
-140.963
11
183.1
21
-140.391
0
LINE
8
Black
10
183.1
20
-140.391
11
183.1
21
-139.249
0
LINE
8
Black
10
183.1
20
-139.249
11
182.957
21
-138.963
0
LINE
8
Black
10
182.957
20
-138.963
11
182.814
21
-138.82
0
LINE
8
Black
10
182.814
20
-138.82
11
182.529
21
-138.677
0
LINE
8
Black
10
182.529
20
-138.677
11
181.957
21
-138.677
0
LINE
8
Black
10
181.957
20
-138.677
11
181.671
21
-138.82
0
LINE
8
Black
10
181.671
20
-138.82
11
181.529
21
-138.963
0
LINE
8
Black
10
181.529
20
-138.963
11
181.386
21
-139.249
0
LINE
8
Black
10
181.386
20
-139.249
11
181.386
21
-139.963
0
LINE
8
Black
10
181.386
20
-139.963
11
181.529
21
-140.249
0
LINE
8
Black
10
181.529
20
-140.249
11
181.671
21
-140.391
0
LINE
8
Black
10
181.671
20
-140.391
11
181.957
21
-140.534
0
LINE
8
Black
10
181.957
20
-140.534
11
182.529
21
-140.534
0
LINE
8
Black
10
182.529
20
-140.534
11
182.814
21
-140.391
0
LINE
8
Black
10
182.814
20
-140.391
11
182.957
21
-140.249
0
LINE
8
Black
10
182.957
20
-140.249
11
183.1
21
-139.963
0
LINE
8
Black
10
184.243
20
-138.677
11
184.243
21
-139.249
0
LINE
8
Black
10
185.386
20
-138.677
11
185.386
21
-139.249
0
LINE
8
Black
10
189.814
20
-142.82
11
189.671
21
-142.677
0
LINE
8
Black
10
189.671
20
-142.677
11
189.386
21
-142.249
0
LINE
8
Black
10
189.386
20
-142.249
11
189.243
21
-141.963
0
LINE
8
Black
10
189.243
20
-141.963
11
189.1
21
-141.534
0
LINE
8
Black
10
189.1
20
-141.534
11
188.957
21
-140.82
0
LINE
8
Black
10
188.957
20
-140.82
11
188.957
21
-140.249
0
LINE
8
Black
10
188.957
20
-140.249
11
189.1
21
-139.534
0
LINE
8
Black
10
189.1
20
-139.534
11
189.243
21
-139.106
0
LINE
8
Black
10
189.243
20
-139.106
11
189.386
21
-138.82
0
LINE
8
Black
10
189.386
20
-138.82
11
189.671
21
-138.391
0
LINE
8
Black
10
189.671
20
-138.391
11
189.814
21
-138.249
0
LINE
8
Black
10
191.386
20
-139.963
11
191.1
21
-139.82
0
LINE
8
Black
10
191.1
20
-139.82
11
190.957
21
-139.677
0
LINE
8
Black
10
190.957
20
-139.677
11
190.814
21
-139.391
0
LINE
8
Black
10
190.814
20
-139.391
11
190.814
21
-139.249
0
LINE
8
Black
10
190.814
20
-139.249
11
190.957
21
-138.963
0
LINE
8
Black
10
190.957
20
-138.963
11
191.1
21
-138.82
0
LINE
8
Black
10
191.1
20
-138.82
11
191.386
21
-138.677
0
LINE
8
Black
10
191.386
20
-138.677
11
191.957
21
-138.677
0
LINE
8
Black
10
191.957
20
-138.677
11
192.243
21
-138.82
0
LINE
8
Black
10
192.243
20
-138.82
11
192.386
21
-138.963
0
LINE
8
Black
10
192.386
20
-138.963
11
192.529
21
-139.249
0
LINE
8
Black
10
192.529
20
-139.249
11
192.529
21
-139.391
0
LINE
8
Black
10
192.529
20
-139.391
11
192.386
21
-139.677
0
LINE
8
Black
10
192.386
20
-139.677
11
192.243
21
-139.82
0
LINE
8
Black
10
192.243
20
-139.82
11
191.957
21
-139.963
0
LINE
8
Black
10
191.957
20
-139.963
11
191.386
21
-139.963
0
LINE
8
Black
10
191.386
20
-139.963
11
191.1
21
-140.106
0
LINE
8
Black
10
191.1
20
-140.106
11
190.957
21
-140.249
0
LINE
8
Black
10
190.957
20
-140.249
11
190.814
21
-140.534
0
LINE
8
Black
10
190.814
20
-140.534
11
190.814
21
-141.106
0
LINE
8
Black
10
190.814
20
-141.106
11
190.957
21
-141.391
0
LINE
8
Black
10
190.957
20
-141.391
11
191.1
21
-141.534
0
LINE
8
Black
10
191.1
20
-141.534
11
191.386
21
-141.677
0
LINE
8
Black
10
191.386
20
-141.677
11
191.957
21
-141.677
0
LINE
8
Black
10
191.957
20
-141.677
11
192.243
21
-141.534
0
LINE
8
Black
10
192.243
20
-141.534
11
192.386
21
-141.391
0
LINE
8
Black
10
192.386
20
-141.391
11
192.529
21
-141.106
0
LINE
8
Black
10
192.529
20
-141.106
11
192.529
21
-140.534
0
LINE
8
Black
10
192.529
20
-140.534
11
192.386
21
-140.249
0
LINE
8
Black
10
192.386
20
-140.249
11
192.243
21
-140.106
0
LINE
8
Black
10
192.243
20
-140.106
11
191.957
21
-139.963
0
LINE
8
Black
10
196.1
20
-141.677
11
196.1
21
-138.677
0
LINE
8
Black
10
197.386
20
-141.677
11
197.386
21
-140.106
0
LINE
8
Black
10
197.386
20
-140.106
11
197.243
21
-139.82
0
LINE
8
Black
10
197.243
20
-139.82
11
196.957
21
-139.677
0
LINE
8
Black
10
196.957
20
-139.677
11
196.529
21
-139.677
0
LINE
8
Black
10
196.529
20
-139.677
11
196.243
21
-139.82
0
LINE
8
Black
10
196.243
20
-139.82
11
196.1
21
-139.963
0
LINE
8
Black
10
199.243
20
-141.677
11
198.957
21
-141.534
0
LINE
8
Black
10
198.957
20
-141.534
11
198.814
21
-141.391
0
LINE
8
Black
10
198.814
20
-141.391
11
198.671
21
-141.106
0
LINE
8
Black
10
198.671
20
-141.106
11
198.671
21
-140.249
0
LINE
8
Black
10
198.671
20
-140.249
11
198.814
21
-139.963
0
LINE
8
Black
10
198.814
20
-139.963
11
198.957
21
-139.82
0
LINE
8
Black
10
198.957
20
-139.82
11
199.243
21
-139.677
0
LINE
8
Black
10
199.243
20
-139.677
11
199.671
21
-139.677
0
LINE
8
Black
10
199.671
20
-139.677
11
199.957
21
-139.82
0
LINE
8
Black
10
199.957
20
-139.82
11
200.1
21
-139.963
0
LINE
8
Black
10
200.1
20
-139.963
11
200.243
21
-140.249
0
LINE
8
Black
10
200.243
20
-140.249
11
200.243
21
-141.106
0
LINE
8
Black
10
200.243
20
-141.106
11
200.1
21
-141.391
0
LINE
8
Black
10
200.1
20
-141.391
11
199.957
21
-141.534
0
LINE
8
Black
10
199.957
20
-141.534
11
199.671
21
-141.677
0
LINE
8
Black
10
199.671
20
-141.677
11
199.243
21
-141.677
0
LINE
8
Black
10
201.957
20
-141.677
11
201.671
21
-141.534
0
LINE
8
Black
10
201.671
20
-141.534
11
201.529
21
-141.249
0
LINE
8
Black
10
201.529
20
-141.249
11
201.529
21
-138.677
0
LINE
8
Black
10
204.243
20
-141.534
11
203.957
21
-141.677
0
LINE
8
Black
10
203.957
20
-141.677
11
203.386
21
-141.677
0
LINE
8
Black
10
203.386
20
-141.677
11
203.1
21
-141.534
0
LINE
8
Black
10
203.1
20
-141.534
11
202.957
21
-141.249
0
LINE
8
Black
10
202.957
20
-141.249
11
202.957
21
-140.106
0
LINE
8
Black
10
202.957
20
-140.106
11
203.1
21
-139.82
0
LINE
8
Black
10
203.1
20
-139.82
11
203.386
21
-139.677
0
LINE
8
Black
10
203.386
20
-139.677
11
203.957
21
-139.677
0
LINE
8
Black
10
203.957
20
-139.677
11
204.243
21
-139.82
0
LINE
8
Black
10
204.243
20
-139.82
11
204.386
21
-140.106
0
LINE
8
Black
10
204.386
20
-140.106
11
204.386
21
-140.391
0
LINE
8
Black
10
204.386
20
-140.391
11
202.957
21
-140.677
0
LINE
8
Black
10
205.529
20
-141.534
11
205.814
21
-141.677
0
LINE
8
Black
10
205.814
20
-141.677
11
206.386
21
-141.677
0
LINE
8
Black
10
206.386
20
-141.677
11
206.671
21
-141.534
0
LINE
8
Black
10
206.671
20
-141.534
11
206.814
21
-141.249
0
LINE
8
Black
10
206.814
20
-141.249
11
206.814
21
-141.106
0
LINE
8
Black
10
206.814
20
-141.106
11
206.671
21
-140.82
0
LINE
8
Black
10
206.671
20
-140.82
11
206.386
21
-140.677
0
LINE
8
Black
10
206.386
20
-140.677
11
205.957
21
-140.677
0
LINE
8
Black
10
205.957
20
-140.677
11
205.671
21
-140.534
0
LINE
8
Black
10
205.671
20
-140.534
11
205.529
21
-140.249
0
LINE
8
Black
10
205.529
20
-140.249
11
205.529
21
-140.106
0
LINE
8
Black
10
205.529
20
-140.106
11
205.671
21
-139.82
0
LINE
8
Black
10
205.671
20
-139.82
11
205.957
21
-139.677
0
LINE
8
Black
10
205.957
20
-139.677
11
206.386
21
-139.677
0
LINE
8
Black
10
206.386
20
-139.677
11
206.671
21
-139.82
0
LINE
8
Black
10
207.814
20
-142.82
11
207.957
21
-142.677
0
LINE
8
Black
10
207.957
20
-142.677
11
208.243
21
-142.249
0
LINE
8
Black
10
208.243
20
-142.249
11
208.386
21
-141.963
0
LINE
8
Black
10
208.386
20
-141.963
11
208.529
21
-141.534
0
LINE
8
Black
10
208.529
20
-141.534
11
208.671
21
-140.82
0
LINE
8
Black
10
208.671
20
-140.82
11
208.671
21
-140.249
0
LINE
8
Black
10
208.671
20
-140.249
11
208.529
21
-139.534
0
LINE
8
Black
10
208.529
20
-139.534
11
208.386
21
-139.106
0
LINE
8
Black
10
208.386
20
-139.106
11
208.243
21
-138.82
0
LINE
8
Black
10
208.243
20
-138.82
11
207.957
21
-138.391
0
LINE
8
Black
10
207.957
20
-138.391
11
207.814
21
-138.249
0
LINE
8
Black
10
142.954
20
-144.634
11
142.954
21
-143.926
0
LINE
8
Black
10
142.954
20
-143.926
11
142.246
21
-143.926
0
LINE
8
Black
10
142.246
20
-143.926
11
142.246
21
-144.634
0
LINE
8
Black
10
142.246
20
-144.634
11
142.954
21
-144.634
0
LINE
8
Black
10
147.386
20
-145.637
11
145.671
21
-145.637
0
LINE
8
Black
10
146.529
20
-145.637
11
146.529
21
-142.637
0
LINE
8
Black
10
146.529
20
-142.637
11
146.243
21
-143.066
0
LINE
8
Black
10
146.243
20
-143.066
11
145.957
21
-143.351
0
LINE
8
Black
10
145.957
20
-143.351
11
145.671
21
-143.494
0
LINE
8
Black
10
148.671
20
-145.351
11
148.814
21
-145.494
0
LINE
8
Black
10
148.814
20
-145.494
11
148.671
21
-145.637
0
LINE
8
Black
10
148.671
20
-145.637
11
148.529
21
-145.494
0
LINE
8
Black
10
148.529
20
-145.494
11
148.671
21
-145.351
0
LINE
8
Black
10
148.671
20
-145.351
11
148.671
21
-145.637
0
LINE
8
Black
10
150.671
20
-142.637
11
150.957
21
-142.637
0
LINE
8
Black
10
150.957
20
-142.637
11
151.243
21
-142.78
0
LINE
8
Black
10
151.243
20
-142.78
11
151.386
21
-142.923
0
LINE
8
Black
10
151.386
20
-142.923
11
151.529
21
-143.209
0
LINE
8
Black
10
151.529
20
-143.209
11
151.671
21
-143.78
0
LINE
8
Black
10
151.671
20
-143.78
11
151.671
21
-144.494
0
LINE
8
Black
10
151.671
20
-144.494
11
151.529
21
-145.066
0
LINE
8
Black
10
151.529
20
-145.066
11
151.386
21
-145.351
0
LINE
8
Black
10
151.386
20
-145.351
11
151.243
21
-145.494
0
LINE
8
Black
10
151.243
20
-145.494
11
150.957
21
-145.637
0
LINE
8
Black
10
150.957
20
-145.637
11
150.671
21
-145.637
0
LINE
8
Black
10
150.671
20
-145.637
11
150.386
21
-145.494
0
LINE
8
Black
10
150.386
20
-145.494
11
150.243
21
-145.351
0
LINE
8
Black
10
150.243
20
-145.351
11
150.1
21
-145.066
0
LINE
8
Black
10
150.1
20
-145.066
11
149.957
21
-144.494
0
LINE
8
Black
10
149.957
20
-144.494
11
149.957
21
-143.78
0
LINE
8
Black
10
149.957
20
-143.78
11
150.1
21
-143.209
0
LINE
8
Black
10
150.1
20
-143.209
11
150.243
21
-142.923
0
LINE
8
Black
10
150.243
20
-142.923
11
150.386
21
-142.78
0
LINE
8
Black
10
150.386
20
-142.78
11
150.671
21
-142.637
0
LINE
8
Black
10
153.529
20
-142.637
11
153.814
21
-142.637
0
LINE
8
Black
10
153.814
20
-142.637
11
154.1
21
-142.78
0
LINE
8
Black
10
154.1
20
-142.78
11
154.243
21
-142.923
0
LINE
8
Black
10
154.243
20
-142.923
11
154.386
21
-143.209
0
LINE
8
Black
10
154.386
20
-143.209
11
154.529
21
-143.78
0
LINE
8
Black
10
154.529
20
-143.78
11
154.529
21
-144.494
0
LINE
8
Black
10
154.529
20
-144.494
11
154.386
21
-145.066
0
LINE
8
Black
10
154.386
20
-145.066
11
154.243
21
-145.351
0
LINE
8
Black
10
154.243
20
-145.351
11
154.1
21
-145.494
0
LINE
8
Black
10
154.1
20
-145.494
11
153.814
21
-145.637
0
LINE
8
Black
10
153.814
20
-145.637
11
153.529
21
-145.637
0
LINE
8
Black
10
153.529
20
-145.637
11
153.243
21
-145.494
0
LINE
8
Black
10
153.243
20
-145.494
11
153.1
21
-145.351
0
LINE
8
Black
10
153.1
20
-145.351
11
152.957
21
-145.066
0
LINE
8
Black
10
152.957
20
-145.066
11
152.814
21
-144.494
0
LINE
8
Black
10
152.814
20
-144.494
11
152.814
21
-143.78
0
LINE
8
Black
10
152.814
20
-143.78
11
152.957
21
-143.209
0
LINE
8
Black
10
152.957
20
-143.209
11
153.1
21
-142.923
0
LINE
8
Black
10
153.1
20
-142.923
11
153.243
21
-142.78
0
LINE
8
Black
10
153.243
20
-142.78
11
153.529
21
-142.637
0
LINE
8
Black
10
155.814
20
-145.637
11
155.814
21
-143.637
0
LINE
8
Black
10
155.814
20
-143.923
11
155.957
21
-143.78
0
LINE
8
Black
10
155.957
20
-143.78
11
156.243
21
-143.637
0
LINE
8
Black
10
156.243
20
-143.637
11
156.671
21
-143.637
0
LINE
8
Black
10
156.671
20
-143.637
11
156.957
21
-143.78
0
LINE
8
Black
10
156.957
20
-143.78
11
157.1
21
-144.066
0
LINE
8
Black
10
157.1
20
-144.066
11
157.1
21
-145.637
0
LINE
8
Black
10
157.1
20
-144.066
11
157.243
21
-143.78
0
LINE
8
Black
10
157.243
20
-143.78
11
157.529
21
-143.637
0
LINE
8
Black
10
157.529
20
-143.637
11
157.957
21
-143.637
0
LINE
8
Black
10
157.957
20
-143.637
11
158.243
21
-143.78
0
LINE
8
Black
10
158.243
20
-143.78
11
158.386
21
-144.066
0
LINE
8
Black
10
158.386
20
-144.066
11
158.386
21
-145.637
0
LINE
8
Black
10
159.814
20
-145.637
11
159.814
21
-143.637
0
LINE
8
Black
10
159.814
20
-143.923
11
159.957
21
-143.78
0
LINE
8
Black
10
159.957
20
-143.78
11
160.243
21
-143.637
0
LINE
8
Black
10
160.243
20
-143.637
11
160.671
21
-143.637
0
LINE
8
Black
10
160.671
20
-143.637
11
160.957
21
-143.78
0
LINE
8
Black
10
160.957
20
-143.78
11
161.1
21
-144.066
0
LINE
8
Black
10
161.1
20
-144.066
11
161.1
21
-145.637
0
LINE
8
Black
10
161.1
20
-144.066
11
161.243
21
-143.78
0
LINE
8
Black
10
161.243
20
-143.78
11
161.529
21
-143.637
0
LINE
8
Black
10
161.529
20
-143.637
11
161.957
21
-143.637
0
LINE
8
Black
10
161.957
20
-143.637
11
162.243
21
-143.78
0
LINE
8
Black
10
162.243
20
-143.78
11
162.386
21
-144.066
0
LINE
8
Black
10
162.386
20
-144.066
11
162.386
21
-145.637
0
LINE
8
Black
10
168.243
20
-142.494
11
165.671
21
-146.351
0
LINE
8
Black
10
172.1
20
-142.637
11
172.386
21
-142.637
0
LINE
8
Black
10
172.386
20
-142.637
11
172.671
21
-142.78
0
LINE
8
Black
10
172.671
20
-142.78
11
172.814
21
-142.923
0
LINE
8
Black
10
172.814
20
-142.923
11
172.957
21
-143.209
0
LINE
8
Black
10
172.957
20
-143.209
11
173.1
21
-143.78
0
LINE
8
Black
10
173.1
20
-143.78
11
173.1
21
-144.494
0
LINE
8
Black
10
173.1
20
-144.494
11
172.957
21
-145.066
0
LINE
8
Black
10
172.957
20
-145.066
11
172.814
21
-145.351
0
LINE
8
Black
10
172.814
20
-145.351
11
172.671
21
-145.494
0
LINE
8
Black
10
172.671
20
-145.494
11
172.386
21
-145.637
0
LINE
8
Black
10
172.386
20
-145.637
11
172.1
21
-145.637
0
LINE
8
Black
10
172.1
20
-145.637
11
171.814
21
-145.494
0
LINE
8
Black
10
171.814
20
-145.494
11
171.671
21
-145.351
0
LINE
8
Black
10
171.671
20
-145.351
11
171.529
21
-145.066
0
LINE
8
Black
10
171.529
20
-145.066
11
171.386
21
-144.494
0
LINE
8
Black
10
171.386
20
-144.494
11
171.386
21
-143.78
0
LINE
8
Black
10
171.386
20
-143.78
11
171.529
21
-143.209
0
LINE
8
Black
10
171.529
20
-143.209
11
171.671
21
-142.923
0
LINE
8
Black
10
171.671
20
-142.923
11
171.814
21
-142.78
0
LINE
8
Black
10
171.814
20
-142.78
11
172.1
21
-142.637
0
LINE
8
Black
10
174.386
20
-145.351
11
174.529
21
-145.494
0
LINE
8
Black
10
174.529
20
-145.494
11
174.386
21
-145.637
0
LINE
8
Black
10
174.386
20
-145.637
11
174.243
21
-145.494
0
LINE
8
Black
10
174.243
20
-145.494
11
174.386
21
-145.351
0
LINE
8
Black
10
174.386
20
-145.351
11
174.386
21
-145.637
0
LINE
8
Black
10
176.386
20
-142.637
11
176.671
21
-142.637
0
LINE
8
Black
10
176.671
20
-142.637
11
176.957
21
-142.78
0
LINE
8
Black
10
176.957
20
-142.78
11
177.1
21
-142.923
0
LINE
8
Black
10
177.1
20
-142.923
11
177.243
21
-143.209
0
LINE
8
Black
10
177.243
20
-143.209
11
177.386
21
-143.78
0
LINE
8
Black
10
177.386
20
-143.78
11
177.386
21
-144.494
0
LINE
8
Black
10
177.386
20
-144.494
11
177.243
21
-145.066
0
LINE
8
Black
10
177.243
20
-145.066
11
177.1
21
-145.351
0
LINE
8
Black
10
177.1
20
-145.351
11
176.957
21
-145.494
0
LINE
8
Black
10
176.957
20
-145.494
11
176.671
21
-145.637
0
LINE
8
Black
10
176.671
20
-145.637
11
176.386
21
-145.637
0
LINE
8
Black
10
176.386
20
-145.637
11
176.1
21
-145.494
0
LINE
8
Black
10
176.1
20
-145.494
11
175.957
21
-145.351
0
LINE
8
Black
10
175.957
20
-145.351
11
175.814
21
-145.066
0
LINE
8
Black
10
175.814
20
-145.066
11
175.671
21
-144.494
0
LINE
8
Black
10
175.671
20
-144.494
11
175.671
21
-143.78
0
LINE
8
Black
10
175.671
20
-143.78
11
175.814
21
-143.209
0
LINE
8
Black
10
175.814
20
-143.209
11
175.957
21
-142.923
0
LINE
8
Black
10
175.957
20
-142.923
11
176.1
21
-142.78
0
LINE
8
Black
10
176.1
20
-142.78
11
176.386
21
-142.637
0
LINE
8
Black
10
178.386
20
-142.637
11
180.243
21
-142.637
0
LINE
8
Black
10
180.243
20
-142.637
11
179.243
21
-143.78
0
LINE
8
Black
10
179.243
20
-143.78
11
179.671
21
-143.78
0
LINE
8
Black
10
179.671
20
-143.78
11
179.957
21
-143.923
0
LINE
8
Black
10
179.957
20
-143.923
11
180.1
21
-144.066
0
LINE
8
Black
10
180.1
20
-144.066
11
180.243
21
-144.351
0
LINE
8
Black
10
180.243
20
-144.351
11
180.243
21
-145.066
0
LINE
8
Black
10
180.243
20
-145.066
11
180.1
21
-145.351
0
LINE
8
Black
10
180.1
20
-145.351
11
179.957
21
-145.494
0
LINE
8
Black
10
179.957
20
-145.494
11
179.671
21
-145.637
0
LINE
8
Black
10
179.671
20
-145.637
11
178.814
21
-145.637
0
LINE
8
Black
10
178.814
20
-145.637
11
178.529
21
-145.494
0
LINE
8
Black
10
178.529
20
-145.494
11
178.386
21
-145.351
0
LINE
8
Black
10
181.671
20
-145.637
11
182.243
21
-145.637
0
LINE
8
Black
10
182.243
20
-145.637
11
182.529
21
-145.494
0
LINE
8
Black
10
182.529
20
-145.494
11
182.671
21
-145.351
0
LINE
8
Black
10
182.671
20
-145.351
11
182.957
21
-144.923
0
LINE
8
Black
10
182.957
20
-144.923
11
183.1
21
-144.351
0
LINE
8
Black
10
183.1
20
-144.351
11
183.1
21
-143.209
0
LINE
8
Black
10
183.1
20
-143.209
11
182.957
21
-142.923
0
LINE
8
Black
10
182.957
20
-142.923
11
182.814
21
-142.78
0
LINE
8
Black
10
182.814
20
-142.78
11
182.529
21
-142.637
0
LINE
8
Black
10
182.529
20
-142.637
11
181.957
21
-142.637
0
LINE
8
Black
10
181.957
20
-142.637
11
181.671
21
-142.78
0
LINE
8
Black
10
181.671
20
-142.78
11
181.529
21
-142.923
0
LINE
8
Black
10
181.529
20
-142.923
11
181.386
21
-143.209
0
LINE
8
Black
10
181.386
20
-143.209
11
181.386
21
-143.923
0
LINE
8
Black
10
181.386
20
-143.923
11
181.529
21
-144.209
0
LINE
8
Black
10
181.529
20
-144.209
11
181.671
21
-144.351
0
LINE
8
Black
10
181.671
20
-144.351
11
181.957
21
-144.494
0
LINE
8
Black
10
181.957
20
-144.494
11
182.529
21
-144.494
0
LINE
8
Black
10
182.529
20
-144.494
11
182.814
21
-144.351
0
LINE
8
Black
10
182.814
20
-144.351
11
182.957
21
-144.209
0
LINE
8
Black
10
182.957
20
-144.209
11
183.1
21
-143.923
0
LINE
8
Black
10
184.243
20
-142.637
11
184.243
21
-143.209
0
LINE
8
Black
10
185.386
20
-142.637
11
185.386
21
-143.209
0
LINE
8
Black
10
189.814
20
-146.78
11
189.671
21
-146.637
0
LINE
8
Black
10
189.671
20
-146.637
11
189.386
21
-146.209
0
LINE
8
Black
10
189.386
20
-146.209
11
189.243
21
-145.923
0
LINE
8
Black
10
189.243
20
-145.923
11
189.1
21
-145.494
0
LINE
8
Black
10
189.1
20
-145.494
11
188.957
21
-144.78
0
LINE
8
Black
10
188.957
20
-144.78
11
188.957
21
-144.209
0
LINE
8
Black
10
188.957
20
-144.209
11
189.1
21
-143.494
0
LINE
8
Black
10
189.1
20
-143.494
11
189.243
21
-143.066
0
LINE
8
Black
10
189.243
20
-143.066
11
189.386
21
-142.78
0
LINE
8
Black
10
189.386
20
-142.78
11
189.671
21
-142.351
0
LINE
8
Black
10
189.671
20
-142.351
11
189.814
21
-142.209
0
LINE
8
Black
10
192.529
20
-145.637
11
190.814
21
-145.637
0
LINE
8
Black
10
191.671
20
-145.637
11
191.671
21
-142.637
0
LINE
8
Black
10
191.671
20
-142.637
11
191.386
21
-143.066
0
LINE
8
Black
10
191.386
20
-143.066
11
191.1
21
-143.351
0
LINE
8
Black
10
191.1
20
-143.351
11
190.814
21
-143.494
0
LINE
8
Black
10
194.386
20
-142.637
11
194.671
21
-142.637
0
LINE
8
Black
10
194.671
20
-142.637
11
194.957
21
-142.78
0
LINE
8
Black
10
194.957
20
-142.78
11
195.1
21
-142.923
0
LINE
8
Black
10
195.1
20
-142.923
11
195.243
21
-143.209
0
LINE
8
Black
10
195.243
20
-143.209
11
195.386
21
-143.78
0
LINE
8
Black
10
195.386
20
-143.78
11
195.386
21
-144.494
0
LINE
8
Black
10
195.386
20
-144.494
11
195.243
21
-145.066
0
LINE
8
Black
10
195.243
20
-145.066
11
195.1
21
-145.351
0
LINE
8
Black
10
195.1
20
-145.351
11
194.957
21
-145.494
0
LINE
8
Black
10
194.957
20
-145.494
11
194.671
21
-145.637
0
LINE
8
Black
10
194.671
20
-145.637
11
194.386
21
-145.637
0
LINE
8
Black
10
194.386
20
-145.637
11
194.1
21
-145.494
0
LINE
8
Black
10
194.1
20
-145.494
11
193.957
21
-145.351
0
LINE
8
Black
10
193.957
20
-145.351
11
193.814
21
-145.066
0
LINE
8
Black
10
193.814
20
-145.066
11
193.671
21
-144.494
0
LINE
8
Black
10
193.671
20
-144.494
11
193.671
21
-143.78
0
LINE
8
Black
10
193.671
20
-143.78
11
193.814
21
-143.209
0
LINE
8
Black
10
193.814
20
-143.209
11
193.957
21
-142.923
0
LINE
8
Black
10
193.957
20
-142.923
11
194.1
21
-142.78
0
LINE
8
Black
10
194.1
20
-142.78
11
194.386
21
-142.637
0
LINE
8
Black
10
198.957
20
-145.637
11
198.957
21
-142.637
0
LINE
8
Black
10
200.243
20
-145.637
11
200.243
21
-144.066
0
LINE
8
Black
10
200.243
20
-144.066
11
200.1
21
-143.78
0
LINE
8
Black
10
200.1
20
-143.78
11
199.814
21
-143.637
0
LINE
8
Black
10
199.814
20
-143.637
11
199.386
21
-143.637
0
LINE
8
Black
10
199.386
20
-143.637
11
199.1
21
-143.78
0
LINE
8
Black
10
199.1
20
-143.78
11
198.957
21
-143.923
0
LINE
8
Black
10
202.1
20
-145.637
11
201.814
21
-145.494
0
LINE
8
Black
10
201.814
20
-145.494
11
201.671
21
-145.351
0
LINE
8
Black
10
201.671
20
-145.351
11
201.529
21
-145.066
0
LINE
8
Black
10
201.529
20
-145.066
11
201.529
21
-144.209
0
LINE
8
Black
10
201.529
20
-144.209
11
201.671
21
-143.923
0
LINE
8
Black
10
201.671
20
-143.923
11
201.814
21
-143.78
0
LINE
8
Black
10
201.814
20
-143.78
11
202.1
21
-143.637
0
LINE
8
Black
10
202.1
20
-143.637
11
202.529
21
-143.637
0
LINE
8
Black
10
202.529
20
-143.637
11
202.814
21
-143.78
0
LINE
8
Black
10
202.814
20
-143.78
11
202.957
21
-143.923
0
LINE
8
Black
10
202.957
20
-143.923
11
203.1
21
-144.209
0
LINE
8
Black
10
203.1
20
-144.209
11
203.1
21
-145.066
0
LINE
8
Black
10
203.1
20
-145.066
11
202.957
21
-145.351
0
LINE
8
Black
10
202.957
20
-145.351
11
202.814
21
-145.494
0
LINE
8
Black
10
202.814
20
-145.494
11
202.529
21
-145.637
0
LINE
8
Black
10
202.529
20
-145.637
11
202.1
21
-145.637
0
LINE
8
Black
10
204.814
20
-145.637
11
204.529
21
-145.494
0
LINE
8
Black
10
204.529
20
-145.494
11
204.386
21
-145.209
0
LINE
8
Black
10
204.386
20
-145.209
11
204.386
21
-142.637
0
LINE
8
Black
10
207.1
20
-145.494
11
206.814
21
-145.637
0
LINE
8
Black
10
206.814
20
-145.637
11
206.243
21
-145.637
0
LINE
8
Black
10
206.243
20
-145.637
11
205.957
21
-145.494
0
LINE
8
Black
10
205.957
20
-145.494
11
205.814
21
-145.209
0
LINE
8
Black
10
205.814
20
-145.209
11
205.814
21
-144.066
0
LINE
8
Black
10
205.814
20
-144.066
11
205.957
21
-143.78
0
LINE
8
Black
10
205.957
20
-143.78
11
206.243
21
-143.637
0
LINE
8
Black
10
206.243
20
-143.637
11
206.814
21
-143.637
0
LINE
8
Black
10
206.814
20
-143.637
11
207.1
21
-143.78
0
LINE
8
Black
10
207.1
20
-143.78
11
207.243
21
-144.066
0
LINE
8
Black
10
207.243
20
-144.066
11
207.243
21
-144.351
0
LINE
8
Black
10
207.243
20
-144.351
11
205.814
21
-144.637
0
LINE
8
Black
10
208.386
20
-145.494
11
208.671
21
-145.637
0
LINE
8
Black
10
208.671
20
-145.637
11
209.243
21
-145.637
0
LINE
8
Black
10
209.243
20
-145.637
11
209.529
21
-145.494
0
LINE
8
Black
10
209.529
20
-145.494
11
209.671
21
-145.209
0
LINE
8
Black
10
209.671
20
-145.209
11
209.671
21
-145.066
0
LINE
8
Black
10
209.671
20
-145.066
11
209.529
21
-144.78
0
LINE
8
Black
10
209.529
20
-144.78
11
209.243
21
-144.637
0
LINE
8
Black
10
209.243
20
-144.637
11
208.814
21
-144.637
0
LINE
8
Black
10
208.814
20
-144.637
11
208.529
21
-144.494
0
LINE
8
Black
10
208.529
20
-144.494
11
208.386
21
-144.209
0
LINE
8
Black
10
208.386
20
-144.209
11
208.386
21
-144.066
0
LINE
8
Black
10
208.386
20
-144.066
11
208.529
21
-143.78
0
LINE
8
Black
10
208.529
20
-143.78
11
208.814
21
-143.637
0
LINE
8
Black
10
208.814
20
-143.637
11
209.243
21
-143.637
0
LINE
8
Black
10
209.243
20
-143.637
11
209.529
21
-143.78
0
LINE
8
Black
10
210.671
20
-146.78
11
210.814
21
-146.637
0
LINE
8
Black
10
210.814
20
-146.637
11
211.1
21
-146.209
0
LINE
8
Black
10
211.1
20
-146.209
11
211.243
21
-145.923
0
LINE
8
Black
10
211.243
20
-145.923
11
211.386
21
-145.494
0
LINE
8
Black
10
211.386
20
-145.494
11
211.529
21
-144.78
0
LINE
8
Black
10
211.529
20
-144.78
11
211.529
21
-144.209
0
LINE
8
Black
10
211.529
20
-144.209
11
211.386
21
-143.494
0
LINE
8
Black
10
211.386
20
-143.494
11
211.243
21
-143.066
0
LINE
8
Black
10
211.243
20
-143.066
11
211.1
21
-142.78
0
LINE
8
Black
10
211.1
20
-142.78
11
210.814
21
-142.351
0
LINE
8
Black
10
210.814
20
-142.351
11
210.671
21
-142.209
0
LINE
8
Black
10
142.45
20
-148.89
11
143.1
21
-148.24
0
LINE
8
Black
10
143.1
20
-148.24
11
142.45
21
-147.59
0
LINE
8
Black
10
142.45
20
-147.59
11
141.8
21
-148.24
0
LINE
8
Black
10
141.8
20
-148.24
11
142.45
21
-148.89
0
LINE
8
Black
10
147.386
20
-149.597
11
145.671
21
-149.597
0
LINE
8
Black
10
146.529
20
-149.597
11
146.529
21
-146.597
0
LINE
8
Black
10
146.529
20
-146.597
11
146.243
21
-147.026
0
LINE
8
Black
10
146.243
20
-147.026
11
145.957
21
-147.311
0
LINE
8
Black
10
145.957
20
-147.311
11
145.671
21
-147.454
0
LINE
8
Black
10
148.671
20
-149.311
11
148.814
21
-149.454
0
LINE
8
Black
10
148.814
20
-149.454
11
148.671
21
-149.597
0
LINE
8
Black
10
148.671
20
-149.597
11
148.529
21
-149.454
0
LINE
8
Black
10
148.529
20
-149.454
11
148.671
21
-149.311
0
LINE
8
Black
10
148.671
20
-149.311
11
148.671
21
-149.597
0
LINE
8
Black
10
149.814
20
-146.597
11
151.671
21
-146.597
0
LINE
8
Black
10
151.671
20
-146.597
11
150.671
21
-147.74
0
LINE
8
Black
10
150.671
20
-147.74
11
151.1
21
-147.74
0
LINE
8
Black
10
151.1
20
-147.74
11
151.386
21
-147.883
0
LINE
8
Black
10
151.386
20
-147.883
11
151.529
21
-148.026
0
LINE
8
Black
10
151.529
20
-148.026
11
151.671
21
-148.311
0
LINE
8
Black
10
151.671
20
-148.311
11
151.671
21
-149.026
0
LINE
8
Black
10
151.671
20
-149.026
11
151.529
21
-149.311
0
LINE
8
Black
10
151.529
20
-149.311
11
151.386
21
-149.454
0
LINE
8
Black
10
151.386
20
-149.454
11
151.1
21
-149.597
0
LINE
8
Black
10
151.1
20
-149.597
11
150.243
21
-149.597
0
LINE
8
Black
10
150.243
20
-149.597
11
149.957
21
-149.454
0
LINE
8
Black
10
149.957
20
-149.454
11
149.814
21
-149.311
0
LINE
8
Black
10
153.529
20
-146.597
11
153.814
21
-146.597
0
LINE
8
Black
10
153.814
20
-146.597
11
154.1
21
-146.74
0
LINE
8
Black
10
154.1
20
-146.74
11
154.243
21
-146.883
0
LINE
8
Black
10
154.243
20
-146.883
11
154.386
21
-147.169
0
LINE
8
Black
10
154.386
20
-147.169
11
154.529
21
-147.74
0
LINE
8
Black
10
154.529
20
-147.74
11
154.529
21
-148.454
0
LINE
8
Black
10
154.529
20
-148.454
11
154.386
21
-149.026
0
LINE
8
Black
10
154.386
20
-149.026
11
154.243
21
-149.311
0
LINE
8
Black
10
154.243
20
-149.311
11
154.1
21
-149.454
0
LINE
8
Black
10
154.1
20
-149.454
11
153.814
21
-149.597
0
LINE
8
Black
10
153.814
20
-149.597
11
153.529
21
-149.597
0
LINE
8
Black
10
153.529
20
-149.597
11
153.243
21
-149.454
0
LINE
8
Black
10
153.243
20
-149.454
11
153.1
21
-149.311
0
LINE
8
Black
10
153.1
20
-149.311
11
152.957
21
-149.026
0
LINE
8
Black
10
152.957
20
-149.026
11
152.814
21
-148.454
0
LINE
8
Black
10
152.814
20
-148.454
11
152.814
21
-147.74
0
LINE
8
Black
10
152.814
20
-147.74
11
152.957
21
-147.169
0
LINE
8
Black
10
152.957
20
-147.169
11
153.1
21
-146.883
0
LINE
8
Black
10
153.1
20
-146.883
11
153.243
21
-146.74
0
LINE
8
Black
10
153.243
20
-146.74
11
153.529
21
-146.597
0
LINE
8
Black
10
155.814
20
-149.597
11
155.814
21
-147.597
0
LINE
8
Black
10
155.814
20
-147.883
11
155.957
21
-147.74
0
LINE
8
Black
10
155.957
20
-147.74
11
156.243
21
-147.597
0
LINE
8
Black
10
156.243
20
-147.597
11
156.671
21
-147.597
0
LINE
8
Black
10
156.671
20
-147.597
11
156.957
21
-147.74
0
LINE
8
Black
10
156.957
20
-147.74
11
157.1
21
-148.026
0
LINE
8
Black
10
157.1
20
-148.026
11
157.1
21
-149.597
0
LINE
8
Black
10
157.1
20
-148.026
11
157.243
21
-147.74
0
LINE
8
Black
10
157.243
20
-147.74
11
157.529
21
-147.597
0
LINE
8
Black
10
157.529
20
-147.597
11
157.957
21
-147.597
0
LINE
8
Black
10
157.957
20
-147.597
11
158.243
21
-147.74
0
LINE
8
Black
10
158.243
20
-147.74
11
158.386
21
-148.026
0
LINE
8
Black
10
158.386
20
-148.026
11
158.386
21
-149.597
0
LINE
8
Black
10
159.814
20
-149.597
11
159.814
21
-147.597
0
LINE
8
Black
10
159.814
20
-147.883
11
159.957
21
-147.74
0
LINE
8
Black
10
159.957
20
-147.74
11
160.243
21
-147.597
0
LINE
8
Black
10
160.243
20
-147.597
11
160.671
21
-147.597
0
LINE
8
Black
10
160.671
20
-147.597
11
160.957
21
-147.74
0
LINE
8
Black
10
160.957
20
-147.74
11
161.1
21
-148.026
0
LINE
8
Black
10
161.1
20
-148.026
11
161.1
21
-149.597
0
LINE
8
Black
10
161.1
20
-148.026
11
161.243
21
-147.74
0
LINE
8
Black
10
161.243
20
-147.74
11
161.529
21
-147.597
0
LINE
8
Black
10
161.529
20
-147.597
11
161.957
21
-147.597
0
LINE
8
Black
10
161.957
20
-147.597
11
162.243
21
-147.74
0
LINE
8
Black
10
162.243
20
-147.74
11
162.386
21
-148.026
0
LINE
8
Black
10
162.386
20
-148.026
11
162.386
21
-149.597
0
LINE
8
Black
10
168.243
20
-146.454
11
165.671
21
-150.311
0
LINE
8
Black
10
172.1
20
-146.597
11
172.386
21
-146.597
0
LINE
8
Black
10
172.386
20
-146.597
11
172.671
21
-146.74
0
LINE
8
Black
10
172.671
20
-146.74
11
172.814
21
-146.883
0
LINE
8
Black
10
172.814
20
-146.883
11
172.957
21
-147.169
0
LINE
8
Black
10
172.957
20
-147.169
11
173.1
21
-147.74
0
LINE
8
Black
10
173.1
20
-147.74
11
173.1
21
-148.454
0
LINE
8
Black
10
173.1
20
-148.454
11
172.957
21
-149.026
0
LINE
8
Black
10
172.957
20
-149.026
11
172.814
21
-149.311
0
LINE
8
Black
10
172.814
20
-149.311
11
172.671
21
-149.454
0
LINE
8
Black
10
172.671
20
-149.454
11
172.386
21
-149.597
0
LINE
8
Black
10
172.386
20
-149.597
11
172.1
21
-149.597
0
LINE
8
Black
10
172.1
20
-149.597
11
171.814
21
-149.454
0
LINE
8
Black
10
171.814
20
-149.454
11
171.671
21
-149.311
0
LINE
8
Black
10
171.671
20
-149.311
11
171.529
21
-149.026
0
LINE
8
Black
10
171.529
20
-149.026
11
171.386
21
-148.454
0
LINE
8
Black
10
171.386
20
-148.454
11
171.386
21
-147.74
0
LINE
8
Black
10
171.386
20
-147.74
11
171.529
21
-147.169
0
LINE
8
Black
10
171.529
20
-147.169
11
171.671
21
-146.883
0
LINE
8
Black
10
171.671
20
-146.883
11
171.814
21
-146.74
0
LINE
8
Black
10
171.814
20
-146.74
11
172.1
21
-146.597
0
LINE
8
Black
10
174.386
20
-149.311
11
174.529
21
-149.454
0
LINE
8
Black
10
174.529
20
-149.454
11
174.386
21
-149.597
0
LINE
8
Black
10
174.386
20
-149.597
11
174.243
21
-149.454
0
LINE
8
Black
10
174.243
20
-149.454
11
174.386
21
-149.311
0
LINE
8
Black
10
174.386
20
-149.311
11
174.386
21
-149.597
0
LINE
8
Black
10
176.386
20
-146.597
11
176.671
21
-146.597
0
LINE
8
Black
10
176.671
20
-146.597
11
176.957
21
-146.74
0
LINE
8
Black
10
176.957
20
-146.74
11
177.1
21
-146.883
0
LINE
8
Black
10
177.1
20
-146.883
11
177.243
21
-147.169
0
LINE
8
Black
10
177.243
20
-147.169
11
177.386
21
-147.74
0
LINE
8
Black
10
177.386
20
-147.74
11
177.386
21
-148.454
0
LINE
8
Black
10
177.386
20
-148.454
11
177.243
21
-149.026
0
LINE
8
Black
10
177.243
20
-149.026
11
177.1
21
-149.311
0
LINE
8
Black
10
177.1
20
-149.311
11
176.957
21
-149.454
0
LINE
8
Black
10
176.957
20
-149.454
11
176.671
21
-149.597
0
LINE
8
Black
10
176.671
20
-149.597
11
176.386
21
-149.597
0
LINE
8
Black
10
176.386
20
-149.597
11
176.1
21
-149.454
0
LINE
8
Black
10
176.1
20
-149.454
11
175.957
21
-149.311
0
LINE
8
Black
10
175.957
20
-149.311
11
175.814
21
-149.026
0
LINE
8
Black
10
175.814
20
-149.026
11
175.671
21
-148.454
0
LINE
8
Black
10
175.671
20
-148.454
11
175.671
21
-147.74
0
LINE
8
Black
10
175.671
20
-147.74
11
175.814
21
-147.169
0
LINE
8
Black
10
175.814
20
-147.169
11
175.957
21
-146.883
0
LINE
8
Black
10
175.957
20
-146.883
11
176.1
21
-146.74
0
LINE
8
Black
10
176.1
20
-146.74
11
176.386
21
-146.597
0
LINE
8
Black
10
180.1
20
-146.597
11
178.671
21
-146.597
0
LINE
8
Black
10
178.671
20
-146.597
11
178.529
21
-148.026
0
LINE
8
Black
10
178.529
20
-148.026
11
178.671
21
-147.883
0
LINE
8
Black
10
178.671
20
-147.883
11
178.957
21
-147.74
0
LINE
8
Black
10
178.957
20
-147.74
11
179.671
21
-147.74
0
LINE
8
Black
10
179.671
20
-147.74
11
179.957
21
-147.883
0
LINE
8
Black
10
179.957
20
-147.883
11
180.1
21
-148.026
0
LINE
8
Black
10
180.1
20
-148.026
11
180.243
21
-148.311
0
LINE
8
Black
10
180.243
20
-148.311
11
180.243
21
-149.026
0
LINE
8
Black
10
180.243
20
-149.026
11
180.1
21
-149.311
0
LINE
8
Black
10
180.1
20
-149.311
11
179.957
21
-149.454
0
LINE
8
Black
10
179.957
20
-149.454
11
179.671
21
-149.597
0
LINE
8
Black
10
179.671
20
-149.597
11
178.957
21
-149.597
0
LINE
8
Black
10
178.957
20
-149.597
11
178.671
21
-149.454
0
LINE
8
Black
10
178.671
20
-149.454
11
178.529
21
-149.311
0
LINE
8
Black
10
183.1
20
-149.597
11
181.386
21
-149.597
0
LINE
8
Black
10
182.243
20
-149.597
11
182.243
21
-146.597
0
LINE
8
Black
10
182.243
20
-146.597
11
181.957
21
-147.026
0
LINE
8
Black
10
181.957
20
-147.026
11
181.671
21
-147.311
0
LINE
8
Black
10
181.671
20
-147.311
11
181.386
21
-147.454
0
LINE
8
Black
10
184.243
20
-146.597
11
184.243
21
-147.169
0
LINE
8
Black
10
185.386
20
-146.597
11
185.386
21
-147.169
0
LINE
8
Black
10
189.814
20
-150.74
11
189.671
21
-150.597
0
LINE
8
Black
10
189.671
20
-150.597
11
189.386
21
-150.169
0
LINE
8
Black
10
189.386
20
-150.169
11
189.243
21
-149.883
0
LINE
8
Black
10
189.243
20
-149.883
11
189.1
21
-149.454
0
LINE
8
Black
10
189.1
20
-149.454
11
188.957
21
-148.74
0
LINE
8
Black
10
188.957
20
-148.74
11
188.957
21
-148.169
0
LINE
8
Black
10
188.957
20
-148.169
11
189.1
21
-147.454
0
LINE
8
Black
10
189.1
20
-147.454
11
189.243
21
-147.026
0
LINE
8
Black
10
189.243
20
-147.026
11
189.386
21
-146.74
0
LINE
8
Black
10
189.386
20
-146.74
11
189.671
21
-146.311
0
LINE
8
Black
10
189.671
20
-146.311
11
189.814
21
-146.169
0
LINE
8
Black
10
191.386
20
-147.883
11
191.1
21
-147.74
0
LINE
8
Black
10
191.1
20
-147.74
11
190.957
21
-147.597
0
LINE
8
Black
10
190.957
20
-147.597
11
190.814
21
-147.311
0
LINE
8
Black
10
190.814
20
-147.311
11
190.814
21
-147.169
0
LINE
8
Black
10
190.814
20
-147.169
11
190.957
21
-146.883
0
LINE
8
Black
10
190.957
20
-146.883
11
191.1
21
-146.74
0
LINE
8
Black
10
191.1
20
-146.74
11
191.386
21
-146.597
0
LINE
8
Black
10
191.386
20
-146.597
11
191.957
21
-146.597
0
LINE
8
Black
10
191.957
20
-146.597
11
192.243
21
-146.74
0
LINE
8
Black
10
192.243
20
-146.74
11
192.386
21
-146.883
0
LINE
8
Black
10
192.386
20
-146.883
11
192.529
21
-147.169
0
LINE
8
Black
10
192.529
20
-147.169
11
192.529
21
-147.311
0
LINE
8
Black
10
192.529
20
-147.311
11
192.386
21
-147.597
0
LINE
8
Black
10
192.386
20
-147.597
11
192.243
21
-147.74
0
LINE
8
Black
10
192.243
20
-147.74
11
191.957
21
-147.883
0
LINE
8
Black
10
191.957
20
-147.883
11
191.386
21
-147.883
0
LINE
8
Black
10
191.386
20
-147.883
11
191.1
21
-148.026
0
LINE
8
Black
10
191.1
20
-148.026
11
190.957
21
-148.169
0
LINE
8
Black
10
190.957
20
-148.169
11
190.814
21
-148.454
0
LINE
8
Black
10
190.814
20
-148.454
11
190.814
21
-149.026
0
LINE
8
Black
10
190.814
20
-149.026
11
190.957
21
-149.311
0
LINE
8
Black
10
190.957
20
-149.311
11
191.1
21
-149.454
0
LINE
8
Black
10
191.1
20
-149.454
11
191.386
21
-149.597
0
LINE
8
Black
10
191.386
20
-149.597
11
191.957
21
-149.597
0
LINE
8
Black
10
191.957
20
-149.597
11
192.243
21
-149.454
0
LINE
8
Black
10
192.243
20
-149.454
11
192.386
21
-149.311
0
LINE
8
Black
10
192.386
20
-149.311
11
192.529
21
-149.026
0
LINE
8
Black
10
192.529
20
-149.026
11
192.529
21
-148.454
0
LINE
8
Black
10
192.529
20
-148.454
11
192.386
21
-148.169
0
LINE
8
Black
10
192.386
20
-148.169
11
192.243
21
-148.026
0
LINE
8
Black
10
192.243
20
-148.026
11
191.957
21
-147.883
0
LINE
8
Black
10
196.1
20
-149.597
11
196.1
21
-146.597
0
LINE
8
Black
10
197.386
20
-149.597
11
197.386
21
-148.026
0
LINE
8
Black
10
197.386
20
-148.026
11
197.243
21
-147.74
0
LINE
8
Black
10
197.243
20
-147.74
11
196.957
21
-147.597
0
LINE
8
Black
10
196.957
20
-147.597
11
196.529
21
-147.597
0
LINE
8
Black
10
196.529
20
-147.597
11
196.243
21
-147.74
0
LINE
8
Black
10
196.243
20
-147.74
11
196.1
21
-147.883
0
LINE
8
Black
10
199.243
20
-149.597
11
198.957
21
-149.454
0
LINE
8
Black
10
198.957
20
-149.454
11
198.814
21
-149.311
0
LINE
8
Black
10
198.814
20
-149.311
11
198.671
21
-149.026
0
LINE
8
Black
10
198.671
20
-149.026
11
198.671
21
-148.169
0
LINE
8
Black
10
198.671
20
-148.169
11
198.814
21
-147.883
0
LINE
8
Black
10
198.814
20
-147.883
11
198.957
21
-147.74
0
LINE
8
Black
10
198.957
20
-147.74
11
199.243
21
-147.597
0
LINE
8
Black
10
199.243
20
-147.597
11
199.671
21
-147.597
0
LINE
8
Black
10
199.671
20
-147.597
11
199.957
21
-147.74
0
LINE
8
Black
10
199.957
20
-147.74
11
200.1
21
-147.883
0
LINE
8
Black
10
200.1
20
-147.883
11
200.243
21
-148.169
0
LINE
8
Black
10
200.243
20
-148.169
11
200.243
21
-149.026
0
LINE
8
Black
10
200.243
20
-149.026
11
200.1
21
-149.311
0
LINE
8
Black
10
200.1
20
-149.311
11
199.957
21
-149.454
0
LINE
8
Black
10
199.957
20
-149.454
11
199.671
21
-149.597
0
LINE
8
Black
10
199.671
20
-149.597
11
199.243
21
-149.597
0
LINE
8
Black
10
201.957
20
-149.597
11
201.671
21
-149.454
0
LINE
8
Black
10
201.671
20
-149.454
11
201.529
21
-149.169
0
LINE
8
Black
10
201.529
20
-149.169
11
201.529
21
-146.597
0
LINE
8
Black
10
204.243
20
-149.454
11
203.957
21
-149.597
0
LINE
8
Black
10
203.957
20
-149.597
11
203.386
21
-149.597
0
LINE
8
Black
10
203.386
20
-149.597
11
203.1
21
-149.454
0
LINE
8
Black
10
203.1
20
-149.454
11
202.957
21
-149.169
0
LINE
8
Black
10
202.957
20
-149.169
11
202.957
21
-148.026
0
LINE
8
Black
10
202.957
20
-148.026
11
203.1
21
-147.74
0
LINE
8
Black
10
203.1
20
-147.74
11
203.386
21
-147.597
0
LINE
8
Black
10
203.386
20
-147.597
11
203.957
21
-147.597
0
LINE
8
Black
10
203.957
20
-147.597
11
204.243
21
-147.74
0
LINE
8
Black
10
204.243
20
-147.74
11
204.386
21
-148.026
0
LINE
8
Black
10
204.386
20
-148.026
11
204.386
21
-148.311
0
LINE
8
Black
10
204.386
20
-148.311
11
202.957
21
-148.597
0
LINE
8
Black
10
205.529
20
-149.454
11
205.814
21
-149.597
0
LINE
8
Black
10
205.814
20
-149.597
11
206.386
21
-149.597
0
LINE
8
Black
10
206.386
20
-149.597
11
206.671
21
-149.454
0
LINE
8
Black
10
206.671
20
-149.454
11
206.814
21
-149.169
0
LINE
8
Black
10
206.814
20
-149.169
11
206.814
21
-149.026
0
LINE
8
Black
10
206.814
20
-149.026
11
206.671
21
-148.74
0
LINE
8
Black
10
206.671
20
-148.74
11
206.386
21
-148.597
0
LINE
8
Black
10
206.386
20
-148.597
11
205.957
21
-148.597
0
LINE
8
Black
10
205.957
20
-148.597
11
205.671
21
-148.454
0
LINE
8
Black
10
205.671
20
-148.454
11
205.529
21
-148.169
0
LINE
8
Black
10
205.529
20
-148.169
11
205.529
21
-148.026
0
LINE
8
Black
10
205.529
20
-148.026
11
205.671
21
-147.74
0
LINE
8
Black
10
205.671
20
-147.74
11
205.957
21
-147.597
0
LINE
8
Black
10
205.957
20
-147.597
11
206.386
21
-147.597
0
LINE
8
Black
10
206.386
20
-147.597
11
206.671
21
-147.74
0
LINE
8
Black
10
207.814
20
-150.74
11
207.957
21
-150.597
0
LINE
8
Black
10
207.957
20
-150.597
11
208.243
21
-150.169
0
LINE
8
Black
10
208.243
20
-150.169
11
208.386
21
-149.883
0
LINE
8
Black
10
208.386
20
-149.883
11
208.529
21
-149.454
0
LINE
8
Black
10
208.529
20
-149.454
11
208.671
21
-148.74
0
LINE
8
Black
10
208.671
20
-148.74
11
208.671
21
-148.169
0
LINE
8
Black
10
208.671
20
-148.169
11
208.529
21
-147.454
0
LINE
8
Black
10
208.529
20
-147.454
11
208.386
21
-147.026
0
LINE
8
Black
10
208.386
20
-147.026
11
208.243
21
-146.74
0
LINE
8
Black
10
208.243
20
-146.74
11
207.957
21
-146.311
0
LINE
8
Black
10
207.957
20
-146.311
11
207.814
21
-146.169
  0
ENDSEC
  0
EOF
